G75*
G70*
%OFA0B0*%
%FSLAX24Y24*%
%IPPOS*%
%LPD*%
%AMOC8*
5,1,8,0,0,1.08239X$1,22.5*
%
%ADD10C,0.0680*%
%ADD11OC8,0.0680*%
%ADD12C,0.0640*%
%ADD13C,0.0720*%
%ADD14C,0.0792*%
%ADD15OC8,0.0720*%
%ADD16C,0.2080*%
%ADD17C,0.1380*%
D10*
X004399Y013585D03*
D11*
X003399Y013585D03*
X003399Y014585D03*
X004399Y014585D03*
X004399Y015585D03*
X003399Y015585D03*
X003399Y016585D03*
X004399Y016585D03*
X004399Y017585D03*
X003399Y017585D03*
X003399Y018585D03*
X004399Y018585D03*
X004399Y019585D03*
X003399Y019585D03*
X003399Y020585D03*
X004399Y020585D03*
D12*
X010619Y018585D02*
X011179Y018585D01*
X011179Y017585D02*
X010619Y017585D01*
X010619Y016585D02*
X011179Y016585D01*
X011179Y015585D02*
X010619Y015585D01*
X010619Y014585D02*
X011179Y014585D01*
X011179Y013585D02*
X010619Y013585D01*
X010619Y012585D02*
X011179Y012585D01*
X011179Y011585D02*
X010619Y011585D01*
X010619Y010585D02*
X011179Y010585D01*
X011179Y009585D02*
X010619Y009585D01*
X010619Y008585D02*
X011179Y008585D01*
X011179Y007585D02*
X010619Y007585D01*
X010619Y006585D02*
X011179Y006585D01*
X011179Y005585D02*
X010619Y005585D01*
X013619Y005585D02*
X014179Y005585D01*
X014179Y006585D02*
X013619Y006585D01*
X013619Y007585D02*
X014179Y007585D01*
X014179Y008585D02*
X013619Y008585D01*
X013619Y009585D02*
X014179Y009585D01*
X014179Y010585D02*
X013619Y010585D01*
X013619Y011585D02*
X014179Y011585D01*
X014179Y012585D02*
X013619Y012585D01*
X013619Y013585D02*
X014179Y013585D01*
X014179Y014585D02*
X013619Y014585D01*
X013619Y015585D02*
X014179Y015585D01*
X014179Y016585D02*
X013619Y016585D01*
X013619Y017585D02*
X014179Y017585D01*
X014179Y018585D02*
X013619Y018585D01*
D13*
X004219Y003585D02*
X003579Y003585D01*
X003579Y004585D02*
X004219Y004585D01*
X004219Y005585D02*
X003579Y005585D01*
X003579Y006585D02*
X004219Y006585D01*
X004219Y007585D02*
X003579Y007585D01*
X003579Y008585D02*
X004219Y008585D01*
X004219Y009585D02*
X003579Y009585D01*
X003579Y010585D02*
X004219Y010585D01*
X008079Y008585D02*
X008719Y008585D01*
X008719Y007585D02*
X008079Y007585D01*
X008079Y006585D02*
X008719Y006585D01*
X008719Y005585D02*
X008079Y005585D01*
X008079Y004585D02*
X008719Y004585D01*
X008719Y003585D02*
X008079Y003585D01*
X016899Y014765D02*
X016899Y015405D01*
X017899Y015405D02*
X017899Y014765D01*
X018899Y014765D02*
X018899Y015405D01*
X019899Y015405D02*
X019899Y014765D01*
X028649Y014405D02*
X028649Y013765D01*
X029649Y013765D02*
X029649Y014405D01*
X030649Y014405D02*
X030649Y013765D01*
X031649Y013765D02*
X031649Y014405D01*
X016899Y021265D02*
X016899Y021905D01*
X015899Y021905D02*
X015899Y021265D01*
X014899Y021265D02*
X014899Y021905D01*
X013899Y021905D02*
X013899Y021265D01*
X012899Y021265D02*
X012899Y021905D01*
X011899Y021905D02*
X011899Y021265D01*
D14*
X009899Y021229D02*
X009899Y021942D01*
X008899Y021942D02*
X008899Y021229D01*
X007899Y021229D02*
X007899Y021942D01*
X006899Y021942D02*
X006899Y021229D01*
X018899Y023729D02*
X018899Y024442D01*
X019899Y024442D02*
X019899Y023729D01*
X020899Y023729D02*
X020899Y024442D01*
X021899Y024442D02*
X021899Y023729D01*
X022899Y023729D02*
X022899Y024442D01*
X023899Y024442D02*
X023899Y023729D01*
X026399Y023729D02*
X026399Y024442D01*
X027399Y024442D02*
X027399Y023729D01*
X028399Y023729D02*
X028399Y024442D01*
X029399Y024442D02*
X029399Y023729D01*
X030399Y023729D02*
X030399Y024442D01*
X031399Y024442D02*
X031399Y023729D01*
D15*
X033399Y016245D03*
X034399Y015705D03*
X033399Y015165D03*
X034399Y014625D03*
X033399Y014085D03*
X034399Y013545D03*
X033399Y013005D03*
X034399Y012465D03*
X033399Y011925D03*
D16*
X033899Y009155D03*
X033899Y019015D03*
D17*
X036663Y023723D03*
X010482Y023723D03*
X010482Y002660D03*
X036663Y002660D03*
M02*
