G75*
G70*
%OFA0B0*%
%FSLAX24Y24*%
%IPPOS*%
%LPD*%
%AMOC8*
5,1,8,0,0,1.08239X$1,22.5*
%
%ADD10R,0.0472X0.0472*%
%ADD11R,0.0512X0.0630*%
%ADD12R,0.0630X0.0512*%
%ADD13R,0.0450X0.0300*%
%ADD14R,0.0866X0.0236*%
%ADD15R,0.0760X0.2100*%
%ADD16R,0.0591X0.0512*%
%ADD17R,0.0512X0.0591*%
%ADD18R,0.0600X0.0300*%
%ADD19R,0.0236X0.0866*%
%ADD20R,0.1102X0.0945*%
%ADD21R,0.0460X0.0630*%
%ADD22R,0.0630X0.0460*%
%ADD23R,0.0551X0.0551*%
%ADD24R,0.0551X0.1102*%
D10*
X018736Y008835D03*
X019563Y008835D03*
X019563Y009835D03*
X018736Y009835D03*
X009313Y017085D03*
X008486Y017085D03*
X008486Y018585D03*
X009313Y018585D03*
X020486Y019085D03*
X021313Y019085D03*
X021313Y020335D03*
X020486Y020335D03*
D11*
X022275Y020335D03*
X023023Y020335D03*
X023023Y019085D03*
X022275Y019085D03*
X022273Y014085D03*
X021525Y014085D03*
X024025Y014085D03*
X024773Y014085D03*
X016293Y011585D03*
X015506Y011585D03*
X009273Y016085D03*
X008525Y016085D03*
X007273Y017085D03*
X006525Y017085D03*
X006525Y018585D03*
X007273Y018585D03*
X007293Y019835D03*
X006506Y019835D03*
X016525Y024085D03*
X017273Y024085D03*
X030525Y006585D03*
X031273Y006585D03*
X019773Y005085D03*
X019025Y005085D03*
D12*
X016399Y009192D03*
X016399Y009979D03*
X018399Y011461D03*
X018399Y012209D03*
X019399Y012209D03*
X019399Y011461D03*
X021649Y011709D03*
X021649Y010961D03*
X023149Y015211D03*
X023149Y015959D03*
X020899Y016461D03*
X020899Y017209D03*
X016899Y019442D03*
X016899Y020229D03*
X020399Y021711D03*
X020399Y022459D03*
X022399Y022479D03*
X022399Y021692D03*
X023899Y021711D03*
X023899Y022459D03*
X026399Y022459D03*
X026399Y021711D03*
X027899Y021711D03*
X027899Y022459D03*
X029899Y022479D03*
X029899Y021692D03*
X031399Y021711D03*
X031399Y022459D03*
X015899Y017459D03*
X015899Y016711D03*
X030399Y009209D03*
X030399Y008461D03*
D13*
X024784Y008585D03*
X024784Y008085D03*
X024784Y007585D03*
X024784Y007085D03*
X024784Y006585D03*
X024784Y006085D03*
X024784Y005585D03*
X021014Y005585D03*
X021014Y006085D03*
X021014Y006585D03*
X021014Y007085D03*
X021014Y007585D03*
X021014Y008085D03*
X021014Y008585D03*
X021014Y009085D03*
X021014Y009585D03*
X024784Y009585D03*
X024784Y009085D03*
D14*
X026876Y007085D03*
X026876Y006585D03*
X026876Y006085D03*
X026876Y005585D03*
X028923Y005585D03*
X028923Y006085D03*
X028923Y006585D03*
X028923Y007085D03*
D15*
X026399Y008935D03*
X026399Y012735D03*
X008399Y014235D03*
X008399Y010435D03*
D16*
X006649Y010511D03*
X006649Y011259D03*
X006649Y012411D03*
X006649Y013159D03*
X026149Y017711D03*
X026149Y018459D03*
X028399Y012159D03*
X028399Y011411D03*
X028399Y010259D03*
X028399Y009511D03*
D17*
X028525Y008335D03*
X029273Y008335D03*
X023773Y010585D03*
X023025Y010585D03*
D18*
X015649Y004585D03*
X017649Y004585D03*
X017649Y006085D03*
X015649Y006085D03*
X017399Y016335D03*
X019399Y016335D03*
X019399Y017835D03*
X017399Y017835D03*
D19*
X027149Y017062D03*
X027649Y017062D03*
X028149Y017062D03*
X028649Y017062D03*
X028649Y019109D03*
X028149Y019109D03*
X027649Y019109D03*
X027149Y019109D03*
D20*
X030149Y019326D03*
X033399Y021595D03*
X033399Y024076D03*
X030149Y016845D03*
D21*
X030699Y012185D03*
X031299Y012185D03*
X031199Y005585D03*
X030599Y005585D03*
D22*
X033149Y005285D03*
X033149Y005885D03*
D23*
X031447Y010985D03*
X029951Y010985D03*
X028647Y020335D03*
X027151Y020335D03*
D24*
X025819Y019835D03*
X024480Y019835D03*
M02*
