%
M48
M72
T01C0.0236
T02C0.0320
T03C0.0360
T04C0.0400
T05C0.0472
T06C0.1300
%
T01
X17274Y9335
X17399Y11085
X20399Y11585
X20399Y12835
X25899Y15585
X24399Y18085
X15899Y19085
X15899Y19835
X14649Y23085
X10649Y19835
X7899Y17835
X7399Y16085
X18899Y7085
X25399Y5585
X25899Y7085
X29649Y12085
T02
X13899Y11585
X13899Y10585
X13899Y9585
X13899Y8585
X13899Y7585
X13899Y6585
X13899Y5585
X10899Y5585
X10899Y6585
X10899Y7585
X10899Y8585
X10899Y9585
X10899Y10585
X10899Y11585
X10899Y12585
X10899Y13585
X10899Y14585
X10899Y15585
X10899Y16585
X10899Y17585
X10899Y18585
X13899Y18585
X13899Y17585
X13899Y16585
X13899Y15585
X13899Y14585
X13899Y13585
X13899Y12585
T03
X4399Y13585
X3399Y13585
X3399Y14585
X4399Y14585
X4399Y15585
X3399Y15585
X3399Y16585
X4399Y16585
X4399Y17585
X3399Y17585
X3399Y18585
X4399Y18585
X4399Y19585
X3399Y19585
X3399Y20585
X4399Y20585
T04
X3899Y3585
X3899Y4585
X3899Y5585
X3899Y6585
X3899Y7585
X3899Y8585
X3899Y9585
X3899Y10585
X8399Y8585
X8399Y7585
X8399Y6585
X8399Y5585
X8399Y4585
X8399Y3585
X16899Y15085
X17899Y15085
X18899Y15085
X19899Y15085
X28649Y14085
X29649Y14085
X30649Y14085
X31649Y14085
X33399Y14085
X34399Y13545
X33399Y13005
X34399Y12465
X33399Y11925
X34399Y14625
X33399Y15165
X34399Y15705
X33399Y16245
X16899Y21585
X15899Y21585
X14899Y21585
X13899Y21585
X12899Y21585
X11899Y21585
T05
X9899Y21585
X8899Y21585
X7899Y21585
X6899Y21585
X18899Y24085
X19899Y24085
X20899Y24085
X21899Y24085
X22899Y24085
X23899Y24085
X26399Y24085
X27399Y24085
X28399Y24085
X29399Y24085
X30399Y24085
X31399Y24085
T06
X36663Y23723
X33899Y19015
X33899Y9155
X36663Y2660
X10482Y2660
X10482Y23723
M30
