G75*
G70*
%OFA0B0*%
%FSLAX24Y24*%
%IPPOS*%
%LPD*%
%AMOC8*
5,1,8,0,0,1.08239X$1,22.5*
%
%ADD10C,0.0040*%
%ADD11C,0.0030*%
%ADD12C,0.0060*%
%ADD13R,0.0100X0.0200*%
%ADD14R,0.0050X0.0150*%
%ADD15R,0.0100X0.0100*%
%ADD16C,0.0050*%
%ADD17R,0.0118X0.0059*%
%ADD18R,0.0118X0.0118*%
%ADD19C,0.0001*%
%ADD20C,0.0020*%
%ADD21C,0.0080*%
%ADD22C,0.0070*%
%ADD23C,0.0177*%
%ADD24C,0.0100*%
%ADD25R,0.0950X0.0100*%
%ADD26R,0.0650X0.0400*%
%ADD27R,0.0300X0.7300*%
%ADD28R,0.0200X1.2200*%
%ADD29R,0.2850X0.0320*%
%ADD30R,0.1850X0.0320*%
%ADD31C,0.0000*%
D10*
X020919Y003682D02*
X020996Y003605D01*
X021150Y003605D01*
X021226Y003682D01*
X021380Y003605D02*
X021380Y003912D01*
X021533Y004066D01*
X021687Y003912D01*
X021687Y003605D01*
X021840Y003605D02*
X021840Y004066D01*
X022147Y003605D01*
X022147Y004066D01*
X022300Y003836D02*
X022607Y003836D01*
X022761Y003912D02*
X022991Y003912D01*
X023068Y003836D01*
X023068Y003682D01*
X022991Y003605D01*
X022761Y003605D01*
X022761Y004066D01*
X023221Y003912D02*
X023221Y003682D01*
X023298Y003605D01*
X023528Y003605D01*
X023528Y003912D01*
X023681Y003836D02*
X023758Y003912D01*
X023988Y003912D01*
X023912Y003759D02*
X023758Y003759D01*
X023681Y003836D01*
X023681Y003605D02*
X023912Y003605D01*
X023988Y003682D01*
X023912Y003759D01*
X024602Y004066D02*
X024909Y004066D01*
X024756Y004066D02*
X024756Y003605D01*
X025063Y003605D02*
X025063Y004066D01*
X025139Y003912D02*
X025293Y003912D01*
X025369Y003836D01*
X025369Y003605D01*
X025523Y003605D02*
X025523Y003912D01*
X025523Y003759D02*
X025676Y003912D01*
X025753Y003912D01*
X025907Y003836D02*
X025907Y003682D01*
X025983Y003605D01*
X026137Y003605D01*
X026213Y003682D01*
X026213Y003836D01*
X026137Y003912D01*
X025983Y003912D01*
X025907Y003836D01*
X026367Y003912D02*
X026520Y003912D01*
X026444Y003989D02*
X026444Y003682D01*
X026520Y003605D01*
X026750Y003682D02*
X026827Y003605D01*
X026750Y003682D02*
X026750Y003989D01*
X026674Y003912D02*
X026827Y003912D01*
X026981Y004066D02*
X027057Y004066D01*
X027057Y003605D01*
X026981Y003605D02*
X027134Y003605D01*
X027288Y003682D02*
X027288Y003836D01*
X027364Y003912D01*
X027518Y003912D01*
X027594Y003836D01*
X027594Y003759D01*
X027288Y003759D01*
X027288Y003682D02*
X027364Y003605D01*
X027518Y003605D01*
X028208Y003605D02*
X028208Y004066D01*
X028362Y003912D01*
X028515Y004066D01*
X028515Y003605D01*
X028669Y003682D02*
X028669Y003836D01*
X028745Y003912D01*
X028899Y003912D01*
X028976Y003836D01*
X028976Y003682D01*
X028899Y003605D01*
X028745Y003605D01*
X028669Y003682D01*
X029129Y003912D02*
X029282Y003912D01*
X029206Y003989D02*
X029206Y003682D01*
X029282Y003605D01*
X029436Y003682D02*
X029513Y003605D01*
X029666Y003605D01*
X029743Y003682D01*
X029743Y003836D01*
X029666Y003912D01*
X029513Y003912D01*
X029436Y003836D01*
X029436Y003682D01*
X029896Y003605D02*
X029896Y003912D01*
X029896Y003759D02*
X030050Y003912D01*
X030126Y003912D01*
X030740Y003989D02*
X030740Y003682D01*
X030817Y003605D01*
X030970Y003605D01*
X031047Y003682D01*
X031201Y003682D02*
X031201Y003836D01*
X031277Y003912D01*
X031431Y003912D01*
X031507Y003836D01*
X031507Y003682D01*
X031431Y003605D01*
X031277Y003605D01*
X031201Y003682D01*
X031661Y003605D02*
X031661Y003912D01*
X031891Y003912D01*
X031968Y003836D01*
X031968Y003605D01*
X032198Y003682D02*
X032275Y003605D01*
X032198Y003682D02*
X032198Y003989D01*
X032121Y003912D02*
X032275Y003912D01*
X032428Y003912D02*
X032428Y003605D01*
X032428Y003759D02*
X032582Y003912D01*
X032658Y003912D01*
X032812Y003836D02*
X032812Y003682D01*
X032888Y003605D01*
X033042Y003605D01*
X033119Y003682D01*
X033119Y003836D01*
X033042Y003912D01*
X032888Y003912D01*
X032812Y003836D01*
X033272Y004066D02*
X033349Y004066D01*
X033349Y003605D01*
X033272Y003605D02*
X033426Y003605D01*
X033579Y003605D02*
X033732Y003605D01*
X033656Y003605D02*
X033656Y004066D01*
X033579Y004066D01*
X033886Y003836D02*
X033963Y003912D01*
X034116Y003912D01*
X034193Y003836D01*
X034193Y003759D01*
X033886Y003759D01*
X033886Y003682D02*
X033886Y003836D01*
X033886Y003682D02*
X033963Y003605D01*
X034116Y003605D01*
X034346Y003605D02*
X034346Y003912D01*
X034346Y003759D02*
X034500Y003912D01*
X034576Y003912D01*
X031777Y001912D02*
X031547Y001912D01*
X031470Y001836D01*
X031470Y001682D01*
X031547Y001605D01*
X031777Y001605D01*
X031777Y001529D02*
X031777Y001912D01*
X031317Y001912D02*
X031240Y001912D01*
X031087Y001759D01*
X031087Y001912D02*
X031087Y001605D01*
X030933Y001682D02*
X030933Y001836D01*
X030856Y001912D01*
X030703Y001912D01*
X030626Y001836D01*
X030626Y001682D01*
X030703Y001605D01*
X030856Y001605D01*
X030933Y001682D01*
X030473Y001682D02*
X030473Y001605D01*
X030396Y001605D01*
X030396Y001682D01*
X030473Y001682D01*
X030243Y001605D02*
X030166Y001682D01*
X030166Y001989D01*
X030089Y001912D02*
X030243Y001912D01*
X029936Y001836D02*
X029936Y001605D01*
X029706Y001605D01*
X029629Y001682D01*
X029706Y001759D01*
X029936Y001759D01*
X029936Y001836D02*
X029859Y001912D01*
X029706Y001912D01*
X029475Y001836D02*
X029399Y001912D01*
X029169Y001912D01*
X029169Y002066D02*
X029169Y001605D01*
X029399Y001605D01*
X029475Y001682D01*
X029475Y001836D01*
X029015Y001836D02*
X029015Y001605D01*
X028862Y001605D02*
X028862Y001836D01*
X028938Y001912D01*
X029015Y001836D01*
X028862Y001836D02*
X028785Y001912D01*
X028708Y001912D01*
X028708Y001605D01*
X028555Y001605D02*
X028555Y001912D01*
X028555Y001605D02*
X028325Y001605D01*
X028248Y001682D01*
X028248Y001912D01*
X028094Y001836D02*
X028094Y001605D01*
X028094Y001836D02*
X028018Y001912D01*
X027788Y001912D01*
X027788Y001605D01*
X027634Y001912D02*
X027557Y001912D01*
X027404Y001759D01*
X027404Y001912D02*
X027404Y001605D01*
X027250Y001605D02*
X027020Y001605D01*
X026944Y001682D01*
X027020Y001759D01*
X027250Y001759D01*
X027250Y001836D02*
X027250Y001605D01*
X027250Y001836D02*
X027174Y001912D01*
X027020Y001912D01*
X026790Y001836D02*
X026790Y001605D01*
X026790Y001836D02*
X026713Y001912D01*
X026483Y001912D01*
X026483Y001605D01*
X026330Y001605D02*
X026330Y001912D01*
X026330Y001605D02*
X026100Y001605D01*
X026023Y001682D01*
X026023Y001912D01*
X025793Y002066D02*
X025793Y001605D01*
X025869Y001605D02*
X025716Y001605D01*
X025562Y001605D02*
X025486Y001605D01*
X025486Y001682D01*
X025562Y001682D01*
X025562Y001605D01*
X025332Y001682D02*
X025332Y001912D01*
X025332Y001682D02*
X025256Y001605D01*
X025179Y001682D01*
X025102Y001605D01*
X025025Y001682D01*
X025025Y001912D01*
X024872Y001912D02*
X024872Y001682D01*
X024795Y001605D01*
X024719Y001682D01*
X024642Y001605D01*
X024565Y001682D01*
X024565Y001912D01*
X024412Y001912D02*
X024412Y001682D01*
X024335Y001605D01*
X024258Y001682D01*
X024181Y001605D01*
X024105Y001682D01*
X024105Y001912D01*
X023951Y002066D02*
X023644Y001605D01*
X023184Y001605D02*
X023491Y002066D01*
X023031Y001912D02*
X023031Y001836D01*
X022954Y001836D01*
X022954Y001912D01*
X023031Y001912D01*
X023031Y001682D02*
X023031Y001605D01*
X022954Y001605D01*
X022954Y001682D01*
X023031Y001682D01*
X022800Y001682D02*
X022724Y001605D01*
X022494Y001605D01*
X022494Y001452D02*
X022494Y001912D01*
X022724Y001912D01*
X022800Y001836D01*
X022800Y001682D01*
X022340Y001605D02*
X022263Y001682D01*
X022263Y001989D01*
X022187Y001912D02*
X022340Y001912D01*
X022033Y001912D02*
X021880Y001912D01*
X021956Y001989D02*
X021956Y001682D01*
X022033Y001605D01*
X021726Y001605D02*
X021726Y001836D01*
X021650Y001912D01*
X021496Y001912D01*
X021419Y001836D01*
X021419Y002066D02*
X021419Y001605D01*
X021419Y002605D02*
X021726Y002605D01*
X021880Y002682D02*
X021956Y002605D01*
X022187Y002605D01*
X022187Y002912D01*
X022340Y002759D02*
X022570Y002912D01*
X022724Y002836D02*
X022800Y002912D01*
X022954Y002912D01*
X023031Y002836D01*
X023031Y002759D01*
X022724Y002759D01*
X022724Y002682D02*
X022724Y002836D01*
X022724Y002682D02*
X022800Y002605D01*
X022954Y002605D01*
X022570Y002605D02*
X022340Y002759D01*
X022340Y002605D02*
X022340Y003066D01*
X021880Y002912D02*
X021880Y002682D01*
X021419Y002605D02*
X021419Y003066D01*
X020919Y003682D02*
X020919Y003989D01*
X020996Y004066D01*
X021150Y004066D01*
X021226Y003989D01*
X021380Y003836D02*
X021687Y003836D01*
X023644Y003066D02*
X023644Y002605D01*
X023798Y002759D01*
X023951Y002605D01*
X023951Y003066D01*
X024105Y002836D02*
X024181Y002912D01*
X024335Y002912D01*
X024412Y002836D01*
X024412Y002759D01*
X024105Y002759D01*
X024105Y002682D02*
X024105Y002836D01*
X024105Y002682D02*
X024181Y002605D01*
X024335Y002605D01*
X024565Y002605D02*
X024795Y002605D01*
X024872Y002682D01*
X024795Y002759D01*
X024642Y002759D01*
X024565Y002836D01*
X024642Y002912D01*
X024872Y002912D01*
X025025Y002912D02*
X025179Y002912D01*
X025102Y002989D02*
X025102Y002682D01*
X025179Y002605D01*
X025332Y002682D02*
X025409Y002605D01*
X025563Y002605D01*
X025639Y002682D01*
X025639Y002836D01*
X025563Y002912D01*
X025409Y002912D01*
X025332Y002836D01*
X025332Y002682D01*
X025793Y002605D02*
X025793Y002912D01*
X026023Y002912D01*
X026100Y002836D01*
X026100Y002605D01*
X026253Y002452D02*
X026406Y002605D01*
X026330Y002605D01*
X026330Y002682D01*
X026406Y002682D01*
X026406Y002605D01*
X027020Y002605D02*
X027327Y002912D01*
X027327Y002989D01*
X027250Y003066D01*
X027097Y003066D01*
X027020Y002989D01*
X027481Y002989D02*
X027481Y002682D01*
X027788Y002989D01*
X027788Y002682D01*
X027711Y002605D01*
X027557Y002605D01*
X027481Y002682D01*
X027327Y002605D02*
X027020Y002605D01*
X027481Y002989D02*
X027557Y003066D01*
X027711Y003066D01*
X027788Y002989D01*
X027941Y002912D02*
X028094Y003066D01*
X028094Y002605D01*
X027941Y002605D02*
X028248Y002605D01*
X028401Y002682D02*
X028478Y002605D01*
X028632Y002605D01*
X028708Y002682D01*
X028708Y002989D01*
X028401Y002682D01*
X028401Y002989D01*
X028478Y003066D01*
X028632Y003066D01*
X028708Y002989D01*
X030740Y003989D02*
X030817Y004066D01*
X030970Y004066D01*
X031047Y003989D01*
X031777Y001529D02*
X031700Y001452D01*
X031624Y001452D01*
X025793Y002066D02*
X025716Y002066D01*
X025063Y003836D02*
X025139Y003912D01*
X030286Y011399D02*
X030516Y011399D01*
X030593Y011476D01*
X030593Y011783D01*
X030516Y011859D01*
X030286Y011859D01*
X030286Y011399D01*
X030747Y011399D02*
X031054Y011706D01*
X031054Y011783D01*
X030977Y011859D01*
X030823Y011859D01*
X030747Y011783D01*
X030747Y011399D02*
X031054Y011399D01*
X027801Y014996D02*
X027614Y014996D01*
X027708Y014996D02*
X027708Y015276D01*
X027614Y015183D01*
X027506Y015276D02*
X027413Y015276D01*
X027460Y015276D02*
X027460Y015043D01*
X027413Y014996D01*
X027366Y014996D01*
X027319Y015043D01*
X027507Y022905D02*
X027814Y023212D01*
X027814Y023289D01*
X027737Y023366D01*
X027584Y023366D01*
X027507Y023289D01*
X027507Y022905D02*
X027814Y022905D01*
X026894Y022905D02*
X026817Y022982D01*
X026817Y023289D01*
X026740Y023212D02*
X026894Y023212D01*
X026587Y023136D02*
X026510Y023212D01*
X026356Y023212D01*
X026280Y023136D01*
X026280Y022982D01*
X026356Y022905D01*
X026510Y022905D01*
X026587Y022982D01*
X026587Y023136D01*
X026126Y023136D02*
X026126Y023289D01*
X026050Y023366D01*
X025819Y023366D01*
X025819Y022905D01*
X025819Y023059D02*
X026050Y023059D01*
X026126Y023136D01*
X020314Y022905D02*
X020007Y022905D01*
X020161Y022905D02*
X020161Y023366D01*
X020007Y023212D01*
X019394Y023212D02*
X019240Y023212D01*
X019317Y023289D02*
X019317Y022982D01*
X019394Y022905D01*
X019087Y022982D02*
X019087Y023136D01*
X019010Y023212D01*
X018856Y023212D01*
X018780Y023136D01*
X018780Y022982D01*
X018856Y022905D01*
X019010Y022905D01*
X019087Y022982D01*
X018626Y023136D02*
X018626Y023289D01*
X018550Y023366D01*
X018319Y023366D01*
X018319Y022905D01*
X018319Y023059D02*
X018550Y023059D01*
X018626Y023136D01*
D11*
X018564Y023091D02*
X018758Y022800D01*
X018859Y022945D02*
X019052Y022945D01*
X019004Y022800D02*
X019004Y023091D01*
X018859Y022945D01*
X018758Y023091D02*
X018564Y022800D01*
X019664Y022451D02*
X019664Y022354D01*
X019713Y022306D01*
X019761Y022306D01*
X019809Y022354D01*
X019809Y022499D01*
X019713Y022499D02*
X019664Y022451D01*
X019713Y022499D02*
X019906Y022499D01*
X019954Y022451D01*
X019954Y022354D01*
X019906Y022306D01*
X019954Y022205D02*
X019954Y022011D01*
X019954Y022108D02*
X019664Y022108D01*
X019761Y022011D01*
X019809Y021910D02*
X019858Y021862D01*
X019858Y021716D01*
X019954Y021716D02*
X019664Y021716D01*
X019664Y021862D01*
X019713Y021910D01*
X019809Y021910D01*
X019858Y021813D02*
X019954Y021910D01*
X020914Y021813D02*
X021204Y021813D01*
X021204Y021716D02*
X021204Y021910D01*
X021011Y021716D02*
X020914Y021813D01*
X021500Y021852D02*
X021548Y021900D01*
X021500Y021852D02*
X021500Y021755D01*
X021548Y021707D01*
X021742Y021707D01*
X021790Y021755D01*
X021790Y021852D01*
X021742Y021900D01*
X021790Y022001D02*
X021790Y022195D01*
X021790Y022098D02*
X021500Y022098D01*
X021596Y022001D01*
X021548Y022296D02*
X021500Y022344D01*
X021500Y022441D01*
X021548Y022489D01*
X021596Y022489D01*
X021645Y022441D01*
X021693Y022489D01*
X021742Y022489D01*
X021790Y022441D01*
X021790Y022344D01*
X021742Y022296D01*
X021645Y022393D02*
X021645Y022441D01*
X021204Y022499D02*
X020914Y022499D01*
X021011Y022402D01*
X020914Y022306D01*
X021204Y022306D01*
X021475Y021171D02*
X021620Y021171D01*
X021669Y021122D01*
X021669Y021025D01*
X021620Y020977D01*
X021475Y020977D01*
X021475Y020880D02*
X021475Y021171D01*
X021572Y020977D02*
X021669Y020880D01*
X021770Y020880D02*
X021770Y020929D01*
X021963Y021122D01*
X021963Y021171D01*
X021770Y021171D01*
X022341Y021172D02*
X022389Y021221D01*
X022486Y021221D01*
X022535Y021172D01*
X022535Y021124D01*
X022341Y020930D01*
X022535Y020930D01*
X022636Y020930D02*
X022829Y021124D01*
X022829Y021172D01*
X022781Y021221D01*
X022684Y021221D01*
X022636Y021172D01*
X022636Y020930D02*
X022829Y020930D01*
X022930Y020979D02*
X023124Y021172D01*
X023124Y020979D01*
X023076Y020930D01*
X022979Y020930D01*
X022930Y020979D01*
X022930Y021172D01*
X022979Y021221D01*
X023076Y021221D01*
X023124Y021172D01*
X023520Y021221D02*
X023520Y020930D01*
X023520Y021027D02*
X023665Y021027D01*
X023713Y021075D01*
X023713Y021172D01*
X023665Y021221D01*
X023520Y021221D01*
X023616Y021027D02*
X023713Y020930D01*
X024360Y020699D02*
X024554Y020699D01*
X024655Y020602D02*
X024655Y020554D01*
X024655Y020602D02*
X024849Y020796D01*
X024849Y020844D01*
X024655Y020844D01*
X024506Y020844D02*
X024360Y020699D01*
X024506Y020554D02*
X024506Y020844D01*
X024463Y021377D02*
X024414Y021425D01*
X024414Y021522D01*
X024463Y021571D01*
X024511Y021571D01*
X024704Y021377D01*
X024704Y021571D01*
X024704Y021672D02*
X024511Y021865D01*
X024463Y021865D01*
X024414Y021817D01*
X024414Y021720D01*
X024463Y021672D01*
X024704Y021672D02*
X024704Y021865D01*
X024656Y021966D02*
X024463Y021966D01*
X024414Y022015D01*
X024414Y022112D01*
X024463Y022160D01*
X024656Y021966D01*
X024704Y022015D01*
X024704Y022112D01*
X024656Y022160D01*
X024463Y022160D01*
X024414Y022556D02*
X024414Y022701D01*
X024463Y022749D01*
X024559Y022749D01*
X024608Y022701D01*
X024608Y022556D01*
X024704Y022556D02*
X024414Y022556D01*
X024608Y022652D02*
X024704Y022749D01*
X025594Y022779D02*
X025594Y022924D01*
X025643Y022972D01*
X025739Y022972D01*
X025788Y022924D01*
X025788Y022779D01*
X025884Y022779D02*
X025594Y022779D01*
X025788Y022876D02*
X025884Y022972D01*
X025504Y023550D02*
X025407Y023550D01*
X025359Y023599D01*
X025258Y023550D02*
X025064Y023841D01*
X025258Y023841D02*
X025064Y023550D01*
X025359Y023792D02*
X025407Y023841D01*
X025504Y023841D01*
X025552Y023792D01*
X025552Y023744D01*
X025504Y023695D01*
X025552Y023647D01*
X025552Y023599D01*
X025504Y023550D01*
X025504Y023695D02*
X025456Y023695D01*
X027164Y022451D02*
X027213Y022499D01*
X027261Y022499D01*
X027309Y022451D01*
X027309Y022354D01*
X027261Y022306D01*
X027213Y022306D01*
X027164Y022354D01*
X027164Y022451D01*
X027309Y022451D02*
X027358Y022499D01*
X027406Y022499D01*
X027454Y022451D01*
X027454Y022354D01*
X027406Y022306D01*
X027358Y022306D01*
X027309Y022354D01*
X027454Y022205D02*
X027454Y022011D01*
X027454Y022108D02*
X027164Y022108D01*
X027261Y022011D01*
X027309Y021910D02*
X027358Y021862D01*
X027358Y021716D01*
X027454Y021716D02*
X027164Y021716D01*
X027164Y021862D01*
X027213Y021910D01*
X027309Y021910D01*
X027358Y021813D02*
X027454Y021910D01*
X028414Y022056D02*
X028511Y022152D01*
X028414Y022249D01*
X028704Y022249D01*
X028704Y022056D02*
X028414Y022056D01*
X028704Y021660D02*
X028704Y021466D01*
X028704Y021563D02*
X028414Y021563D01*
X028511Y021466D01*
X029000Y021755D02*
X029048Y021707D01*
X029242Y021707D01*
X029290Y021755D01*
X029290Y021852D01*
X029242Y021900D01*
X029290Y022001D02*
X029290Y022195D01*
X029290Y022098D02*
X029000Y022098D01*
X029096Y022001D01*
X029048Y021900D02*
X029000Y021852D01*
X029000Y021755D01*
X029048Y022296D02*
X029000Y022344D01*
X029000Y022441D01*
X029048Y022489D01*
X029096Y022489D01*
X029290Y022296D01*
X029290Y022489D01*
X030342Y022591D02*
X030342Y022784D01*
X030487Y022687D02*
X030487Y022591D01*
X030487Y022489D02*
X030632Y022489D01*
X030632Y022591D02*
X030342Y022591D01*
X030487Y022489D02*
X030439Y022441D01*
X030439Y022296D01*
X030632Y022296D01*
X030632Y021900D02*
X030632Y021707D01*
X030632Y021803D02*
X030342Y021803D01*
X030439Y021707D01*
X031914Y021716D02*
X031914Y021862D01*
X031963Y021910D01*
X032059Y021910D01*
X032108Y021862D01*
X032108Y021716D01*
X032204Y021716D02*
X031914Y021716D01*
X032108Y021813D02*
X032204Y021910D01*
X032204Y022011D02*
X032011Y022205D01*
X031963Y022205D01*
X031914Y022156D01*
X031914Y022059D01*
X031963Y022011D01*
X032204Y022011D02*
X032204Y022205D01*
X032156Y022306D02*
X031963Y022499D01*
X032156Y022499D01*
X032204Y022451D01*
X032204Y022354D01*
X032156Y022306D01*
X031963Y022306D01*
X031914Y022354D01*
X031914Y022451D01*
X031963Y022499D01*
X034594Y022495D02*
X034594Y022399D01*
X034643Y022350D01*
X034594Y022495D02*
X034643Y022544D01*
X034691Y022544D01*
X034884Y022350D01*
X034884Y022544D01*
X034884Y022645D02*
X034691Y022838D01*
X034643Y022838D01*
X034594Y022790D01*
X034594Y022693D01*
X034643Y022645D01*
X034884Y022645D02*
X034884Y022838D01*
X034836Y023234D02*
X034691Y023234D01*
X034836Y023234D02*
X034884Y023283D01*
X034884Y023428D01*
X034691Y023428D01*
X034739Y023529D02*
X034739Y023626D01*
X034594Y023722D02*
X034594Y023529D01*
X034884Y023529D01*
X034836Y024118D02*
X034884Y024167D01*
X034884Y024263D01*
X034836Y024312D01*
X034788Y024312D01*
X034739Y024263D01*
X034739Y024215D01*
X034739Y024263D02*
X034691Y024312D01*
X034643Y024312D01*
X034594Y024263D01*
X034594Y024167D01*
X034643Y024118D01*
X034594Y024413D02*
X034739Y024413D01*
X034691Y024510D01*
X034691Y024558D01*
X034739Y024606D01*
X034836Y024606D01*
X034884Y024558D01*
X034884Y024461D01*
X034836Y024413D01*
X034594Y024413D02*
X034594Y024606D01*
X034594Y025002D02*
X034788Y025002D01*
X034884Y025099D01*
X034788Y025196D01*
X034594Y025196D01*
X034576Y021716D02*
X034638Y021716D01*
X034699Y021654D01*
X034761Y021716D01*
X034823Y021716D01*
X034884Y021654D01*
X034884Y021530D01*
X034823Y021469D01*
X034823Y021347D02*
X034884Y021286D01*
X034884Y021162D01*
X034823Y021100D01*
X034576Y021100D01*
X034514Y021162D01*
X034514Y021286D01*
X034576Y021347D01*
X034576Y021469D02*
X034514Y021530D01*
X034514Y021654D01*
X034576Y021716D01*
X034699Y021654D02*
X034699Y021592D01*
X031384Y019074D02*
X031094Y019074D01*
X031094Y019267D01*
X031239Y019170D02*
X031239Y019074D01*
X031191Y018972D02*
X031384Y018972D01*
X031384Y018827D01*
X031336Y018779D01*
X031191Y018779D01*
X031143Y018383D02*
X031094Y018335D01*
X031094Y018238D01*
X031143Y018190D01*
X031336Y018190D01*
X031143Y018383D01*
X031336Y018383D01*
X031384Y018335D01*
X031384Y018238D01*
X031336Y018190D01*
X031336Y018088D02*
X031384Y018040D01*
X031384Y017943D01*
X031336Y017895D01*
X031143Y018088D01*
X031336Y018088D01*
X031336Y017895D02*
X031143Y017895D01*
X031094Y017943D01*
X031094Y018040D01*
X031143Y018088D01*
X031384Y017794D02*
X031384Y017600D01*
X031384Y017697D02*
X031094Y017697D01*
X031191Y017600D01*
X031309Y016749D02*
X031309Y016556D01*
X031164Y016701D01*
X031454Y016701D01*
X031406Y016455D02*
X031454Y016406D01*
X031454Y016309D01*
X031406Y016261D01*
X031213Y016261D01*
X031164Y016309D01*
X031164Y016406D01*
X031213Y016455D01*
X031072Y015881D02*
X031072Y015591D01*
X030975Y015591D02*
X031169Y015591D01*
X031270Y015736D02*
X031463Y015736D01*
X031564Y015639D02*
X031758Y015833D01*
X031758Y015639D01*
X031710Y015591D01*
X031613Y015591D01*
X031564Y015639D01*
X031564Y015833D01*
X031613Y015881D01*
X031710Y015881D01*
X031758Y015833D01*
X031859Y015736D02*
X032053Y015736D01*
X032004Y015591D02*
X032004Y015881D01*
X031859Y015736D01*
X031072Y015881D02*
X030975Y015784D01*
X030874Y015736D02*
X030680Y015736D01*
X030826Y015881D01*
X030826Y015591D01*
X030579Y015639D02*
X030579Y015833D01*
X030386Y015639D01*
X030434Y015591D01*
X030531Y015591D01*
X030579Y015639D01*
X030386Y015639D02*
X030386Y015833D01*
X030434Y015881D01*
X030531Y015881D01*
X030579Y015833D01*
X030285Y015833D02*
X030285Y015784D01*
X030091Y015591D01*
X030285Y015591D01*
X030285Y015833D02*
X030236Y015881D01*
X030140Y015881D01*
X030091Y015833D01*
X029990Y015736D02*
X029797Y015736D01*
X029695Y015833D02*
X029502Y015639D01*
X029502Y015591D01*
X029401Y015591D02*
X029207Y015591D01*
X029401Y015784D01*
X029401Y015833D01*
X029352Y015881D01*
X029256Y015881D01*
X029207Y015833D01*
X029106Y015736D02*
X028913Y015736D01*
X028811Y015784D02*
X028811Y015833D01*
X028763Y015881D01*
X028666Y015881D01*
X028618Y015833D01*
X028517Y015833D02*
X028468Y015881D01*
X028372Y015881D01*
X028323Y015833D01*
X028517Y015833D02*
X028517Y015784D01*
X028323Y015591D01*
X028517Y015591D01*
X028618Y015591D02*
X028811Y015784D01*
X028811Y015591D02*
X028618Y015591D01*
X029502Y015881D02*
X029695Y015881D01*
X029695Y015833D01*
X026384Y016649D02*
X026336Y016600D01*
X026143Y016600D01*
X026094Y016649D01*
X026094Y016745D01*
X026143Y016794D01*
X026143Y016895D02*
X026094Y016943D01*
X026094Y017040D01*
X026143Y017088D01*
X026191Y017088D01*
X026384Y016895D01*
X026384Y017088D01*
X026336Y016794D02*
X026384Y016745D01*
X026384Y016649D01*
X025454Y017127D02*
X025454Y017321D01*
X025454Y017224D02*
X025164Y017224D01*
X025261Y017127D01*
X025213Y017422D02*
X025164Y017470D01*
X025164Y017567D01*
X025213Y017615D01*
X025406Y017422D01*
X025454Y017470D01*
X025454Y017567D01*
X025406Y017615D01*
X025213Y017615D01*
X025213Y017422D02*
X025406Y017422D01*
X025454Y018011D02*
X025261Y018011D01*
X025261Y018156D01*
X025309Y018205D01*
X025454Y018205D01*
X025454Y018306D02*
X025164Y018306D01*
X025164Y018499D01*
X025309Y018402D02*
X025309Y018306D01*
X023464Y018374D02*
X023319Y018277D01*
X023464Y018180D01*
X023319Y018180D02*
X023319Y018471D01*
X022923Y018422D02*
X022875Y018471D01*
X022778Y018471D01*
X022730Y018422D01*
X022923Y018422D02*
X022923Y018374D01*
X022730Y018180D01*
X022923Y018180D01*
X022631Y018180D02*
X022582Y018180D01*
X022582Y018229D01*
X022631Y018229D01*
X022631Y018180D01*
X022481Y018180D02*
X022288Y018180D01*
X022481Y018374D01*
X022481Y018422D01*
X022433Y018471D01*
X022336Y018471D01*
X022288Y018422D01*
X021713Y018275D02*
X021520Y018275D01*
X021665Y018421D01*
X021665Y018130D01*
X021419Y018130D02*
X021322Y018227D01*
X021370Y018227D02*
X021225Y018227D01*
X021225Y018130D02*
X021225Y018421D01*
X021370Y018421D01*
X021419Y018372D01*
X021419Y018275D01*
X021370Y018227D01*
X021861Y017650D02*
X021958Y017505D01*
X022054Y017650D01*
X022054Y017505D02*
X021764Y017505D01*
X021813Y017109D02*
X022006Y016916D01*
X022054Y016964D01*
X022054Y017061D01*
X022006Y017109D01*
X021813Y017109D01*
X021764Y017061D01*
X021764Y016964D01*
X021813Y016916D01*
X022006Y016916D01*
X022054Y016814D02*
X022054Y016621D01*
X022054Y016718D02*
X021764Y016718D01*
X021861Y016621D01*
X021863Y016149D02*
X021814Y016101D01*
X021814Y016004D01*
X021863Y015956D01*
X021911Y015956D01*
X021959Y016004D01*
X021959Y016149D01*
X021863Y016149D02*
X022056Y016149D01*
X022104Y016101D01*
X022104Y016004D01*
X022056Y015956D01*
X022104Y015855D02*
X022008Y015758D01*
X022008Y015806D02*
X022008Y015661D01*
X022104Y015661D02*
X021814Y015661D01*
X021814Y015806D01*
X021863Y015855D01*
X021959Y015855D01*
X022008Y015806D01*
X022002Y014991D02*
X022002Y014942D01*
X021809Y014749D01*
X021809Y014700D01*
X021659Y014700D02*
X021659Y014991D01*
X021514Y014845D01*
X021708Y014845D01*
X021809Y014991D02*
X022002Y014991D01*
X022398Y014991D02*
X022398Y014700D01*
X022398Y014797D02*
X022543Y014894D01*
X022398Y014797D02*
X022543Y014700D01*
X022975Y013921D02*
X023120Y013921D01*
X023169Y013872D01*
X023169Y013775D01*
X023120Y013727D01*
X022975Y013727D01*
X022975Y013630D02*
X022975Y013921D01*
X023072Y013727D02*
X023169Y013630D01*
X023270Y013679D02*
X023318Y013630D01*
X023415Y013630D01*
X023463Y013679D01*
X023463Y013775D01*
X023415Y013824D01*
X023366Y013824D01*
X023270Y013775D01*
X023270Y013921D01*
X023463Y013921D01*
X024014Y014700D02*
X024208Y014700D01*
X024111Y014700D02*
X024111Y014991D01*
X024014Y014894D01*
X024309Y014942D02*
X024357Y014991D01*
X024454Y014991D01*
X024502Y014942D01*
X024502Y014894D01*
X024309Y014700D01*
X024502Y014700D01*
X024604Y014749D02*
X024797Y014942D01*
X024797Y014749D01*
X024749Y014700D01*
X024652Y014700D01*
X024604Y014749D01*
X024604Y014942D01*
X024652Y014991D01*
X024749Y014991D01*
X024797Y014942D01*
X025193Y014991D02*
X025193Y014700D01*
X025193Y014797D02*
X025338Y014700D01*
X025193Y014797D02*
X025338Y014894D01*
X024034Y015450D02*
X024034Y015644D01*
X024034Y015547D02*
X023744Y015547D01*
X023841Y015450D01*
X023793Y015745D02*
X023744Y015793D01*
X023744Y015890D01*
X023793Y015938D01*
X023986Y015745D01*
X024034Y015793D01*
X024034Y015890D01*
X023986Y015938D01*
X023793Y015938D01*
X023793Y015745D02*
X023986Y015745D01*
X023938Y016334D02*
X023841Y016479D01*
X023938Y016334D02*
X024034Y016479D01*
X024034Y016334D02*
X023744Y016334D01*
X023502Y016549D02*
X023454Y016500D01*
X023357Y016500D01*
X023309Y016549D01*
X023309Y016597D01*
X023357Y016645D01*
X023454Y016645D01*
X023502Y016597D01*
X023502Y016549D01*
X023454Y016645D02*
X023502Y016694D01*
X023502Y016742D01*
X023454Y016791D01*
X023357Y016791D01*
X023309Y016742D01*
X023309Y016694D01*
X023357Y016645D01*
X023208Y016645D02*
X023159Y016597D01*
X023014Y016597D01*
X023014Y016500D02*
X023014Y016791D01*
X023159Y016791D01*
X023208Y016742D01*
X023208Y016645D01*
X023111Y016597D02*
X023208Y016500D01*
X020184Y016545D02*
X020184Y016738D01*
X020136Y016840D02*
X020184Y016888D01*
X020184Y016985D01*
X020136Y017033D01*
X020088Y017033D01*
X020039Y016985D01*
X020039Y016888D01*
X019991Y016840D01*
X019943Y016840D01*
X019894Y016888D01*
X019894Y016985D01*
X019943Y017033D01*
X019894Y017134D02*
X020184Y017134D01*
X020184Y017328D01*
X020039Y017231D02*
X020039Y017134D01*
X019894Y017134D02*
X019894Y017328D01*
X019894Y017429D02*
X019894Y017622D01*
X019894Y017526D02*
X020184Y017526D01*
X019894Y016738D02*
X019894Y016545D01*
X020184Y016545D01*
X020184Y016444D02*
X020088Y016347D01*
X020088Y016395D02*
X020088Y016250D01*
X020184Y016250D02*
X019894Y016250D01*
X019894Y016395D01*
X019943Y016444D01*
X020039Y016444D01*
X020088Y016395D01*
X020039Y016545D02*
X020039Y016642D01*
X019718Y018530D02*
X019815Y018627D01*
X019815Y018724D01*
X019718Y018821D01*
X019617Y018772D02*
X019568Y018821D01*
X019472Y018821D01*
X019423Y018772D01*
X019423Y018579D01*
X019472Y018530D01*
X019568Y018530D01*
X019617Y018579D01*
X019617Y018675D01*
X019520Y018675D01*
X019324Y018530D02*
X019227Y018627D01*
X019227Y018724D01*
X019324Y018821D01*
X019325Y019030D02*
X019470Y019030D01*
X019519Y019079D01*
X019519Y019272D01*
X019470Y019321D01*
X019325Y019321D01*
X019325Y019030D01*
X019224Y019030D02*
X019030Y019030D01*
X019030Y019321D01*
X019224Y019321D01*
X019127Y019175D02*
X019030Y019175D01*
X018929Y019030D02*
X018736Y019030D01*
X018736Y019321D01*
X018734Y019780D02*
X018831Y019877D01*
X018831Y020071D01*
X018638Y020071D02*
X018638Y019877D01*
X018734Y019780D01*
X018536Y019829D02*
X018488Y019780D01*
X018391Y019780D01*
X018343Y019829D01*
X018343Y019925D02*
X018440Y019974D01*
X018488Y019974D01*
X018536Y019925D01*
X018536Y019829D01*
X018343Y019925D02*
X018343Y020071D01*
X018536Y020071D01*
X018736Y020280D02*
X018929Y020280D01*
X019030Y020280D02*
X019224Y020280D01*
X019325Y020280D02*
X019325Y020571D01*
X019470Y020571D01*
X019519Y020522D01*
X019519Y020329D01*
X019470Y020280D01*
X019325Y020280D01*
X019324Y020071D02*
X019227Y019974D01*
X019227Y019877D01*
X019324Y019780D01*
X019423Y019829D02*
X019472Y019780D01*
X019568Y019780D01*
X019617Y019829D01*
X019617Y019925D01*
X019520Y019925D01*
X019423Y019829D02*
X019423Y020022D01*
X019472Y020071D01*
X019568Y020071D01*
X019617Y020022D01*
X019718Y020071D02*
X019815Y019974D01*
X019815Y019877D01*
X019718Y019780D01*
X019765Y019321D02*
X019813Y019272D01*
X019813Y019224D01*
X019765Y019175D01*
X019813Y019127D01*
X019813Y019079D01*
X019765Y019030D01*
X019668Y019030D01*
X019620Y019079D01*
X019716Y019175D02*
X019765Y019175D01*
X019765Y019321D02*
X019668Y019321D01*
X019620Y019272D01*
X018831Y018821D02*
X018831Y018627D01*
X018734Y018530D01*
X018638Y018627D01*
X018638Y018821D01*
X018488Y018821D02*
X018343Y018675D01*
X018536Y018675D01*
X018488Y018530D02*
X018488Y018821D01*
X018242Y018772D02*
X018242Y018724D01*
X018048Y018530D01*
X018242Y018530D01*
X018242Y018772D02*
X018193Y018821D01*
X018097Y018821D01*
X018048Y018772D01*
X017706Y018726D02*
X017706Y018920D01*
X017706Y018823D02*
X017416Y018823D01*
X017513Y018726D01*
X017259Y018743D02*
X017259Y018937D01*
X017210Y018985D01*
X017114Y018985D01*
X017065Y018937D01*
X017065Y018888D01*
X017114Y018840D01*
X017259Y018840D01*
X017259Y018743D02*
X017210Y018695D01*
X017114Y018695D01*
X017065Y018743D01*
X016964Y018743D02*
X016916Y018695D01*
X016819Y018695D01*
X016771Y018743D01*
X016771Y018937D01*
X016819Y018985D01*
X016916Y018985D01*
X016964Y018937D01*
X017416Y019069D02*
X017416Y019166D01*
X017464Y019214D01*
X017658Y019021D01*
X017706Y019069D01*
X017706Y019166D01*
X017658Y019214D01*
X017464Y019214D01*
X017464Y019315D02*
X017416Y019364D01*
X017416Y019461D01*
X017464Y019509D01*
X017658Y019315D01*
X017706Y019364D01*
X017706Y019461D01*
X017658Y019509D01*
X017464Y019509D01*
X017464Y019315D02*
X017658Y019315D01*
X017658Y019021D02*
X017464Y019021D01*
X017416Y019069D01*
X017513Y019905D02*
X017513Y020050D01*
X017561Y020098D01*
X017706Y020098D01*
X017706Y020199D02*
X017416Y020199D01*
X017416Y020393D01*
X017561Y020296D02*
X017561Y020199D01*
X017513Y019905D02*
X017706Y019905D01*
X018736Y020280D02*
X018736Y020571D01*
X019030Y020571D02*
X019030Y020280D01*
X019030Y020425D02*
X019127Y020425D01*
X019224Y020571D02*
X019030Y020571D01*
X019620Y020425D02*
X019813Y020425D01*
X019765Y020280D02*
X019765Y020571D01*
X019620Y020425D01*
X022916Y021662D02*
X023206Y021662D01*
X023206Y021565D02*
X023206Y021759D01*
X023013Y021565D02*
X022916Y021662D01*
X023013Y022155D02*
X023013Y022300D01*
X023061Y022348D01*
X023206Y022348D01*
X023206Y022449D02*
X022916Y022449D01*
X022916Y022643D01*
X023061Y022546D02*
X023061Y022449D01*
X023013Y022155D02*
X023206Y022155D01*
X025244Y020862D02*
X025244Y020572D01*
X025438Y020572D01*
X025438Y020554D02*
X025438Y020747D01*
X025539Y020765D02*
X025636Y020862D01*
X025636Y020572D01*
X025732Y020572D02*
X025539Y020572D01*
X025539Y020554D02*
X025539Y020844D01*
X025539Y020699D02*
X025732Y020699D01*
X025732Y020844D02*
X025732Y020554D01*
X025438Y020554D02*
X025293Y020554D01*
X025244Y020602D01*
X025244Y020747D01*
X025643Y021600D02*
X025594Y021649D01*
X025594Y021745D01*
X025643Y021794D01*
X025691Y021794D01*
X025884Y021600D01*
X025884Y021794D01*
X025884Y021895D02*
X025691Y022088D01*
X025643Y022088D01*
X025594Y022040D01*
X025594Y021943D01*
X025643Y021895D01*
X025884Y021895D02*
X025884Y022088D01*
X025836Y022190D02*
X025643Y022383D01*
X025836Y022383D01*
X025884Y022335D01*
X025884Y022238D01*
X025836Y022190D01*
X025643Y022190D01*
X025594Y022238D01*
X025594Y022335D01*
X025643Y022383D01*
X029231Y020534D02*
X029231Y020244D01*
X029376Y020244D01*
X029425Y020292D01*
X029425Y020486D01*
X029376Y020534D01*
X029231Y020534D01*
X029526Y020438D02*
X029623Y020534D01*
X029623Y020244D01*
X029719Y020244D02*
X029526Y020244D01*
X020963Y013921D02*
X020866Y013872D01*
X020770Y013775D01*
X020915Y013775D01*
X020963Y013727D01*
X020963Y013679D01*
X020915Y013630D01*
X020818Y013630D01*
X020770Y013679D01*
X020770Y013775D01*
X020669Y013775D02*
X020620Y013727D01*
X020475Y013727D01*
X020475Y013630D02*
X020475Y013921D01*
X020620Y013921D01*
X020669Y013872D01*
X020669Y013775D01*
X020572Y013727D02*
X020669Y013630D01*
X019813Y013022D02*
X019620Y012829D01*
X019668Y012780D01*
X019765Y012780D01*
X019813Y012829D01*
X019813Y013022D01*
X019765Y013071D01*
X019668Y013071D01*
X019620Y013022D01*
X019620Y012829D01*
X019519Y012780D02*
X019325Y012780D01*
X019422Y012780D02*
X019422Y013071D01*
X019325Y012974D01*
X019224Y013022D02*
X019224Y012925D01*
X019176Y012877D01*
X019030Y012877D01*
X019030Y012780D02*
X019030Y013071D01*
X019176Y013071D01*
X019224Y013022D01*
X019127Y012877D02*
X019224Y012780D01*
X018813Y012780D02*
X018620Y012780D01*
X018716Y012780D02*
X018716Y013071D01*
X018620Y012974D01*
X018519Y012780D02*
X018325Y012780D01*
X018422Y012780D02*
X018422Y013071D01*
X018325Y012974D01*
X018224Y013022D02*
X018224Y012925D01*
X018176Y012877D01*
X018030Y012877D01*
X018030Y012780D02*
X018030Y013071D01*
X018176Y013071D01*
X018224Y013022D01*
X018127Y012877D02*
X018224Y012780D01*
X017704Y012806D02*
X017414Y012806D01*
X017414Y012951D01*
X017463Y012999D01*
X017559Y012999D01*
X017608Y012951D01*
X017608Y012806D01*
X017608Y012902D02*
X017704Y012999D01*
X017656Y012410D02*
X017463Y012410D01*
X017656Y012216D01*
X017704Y012265D01*
X017704Y012362D01*
X017656Y012410D01*
X017463Y012410D02*
X017414Y012362D01*
X017414Y012265D01*
X017463Y012216D01*
X017656Y012216D01*
X017704Y012115D02*
X017704Y011922D01*
X017511Y012115D01*
X017463Y012115D01*
X017414Y012067D01*
X017414Y011970D01*
X017463Y011922D01*
X017463Y011821D02*
X017414Y011772D01*
X017414Y011675D01*
X017463Y011627D01*
X017463Y011821D02*
X017511Y011821D01*
X017704Y011627D01*
X017704Y011821D01*
X016687Y011143D02*
X016494Y011143D01*
X016494Y010852D01*
X016393Y010852D02*
X016393Y010997D01*
X016344Y011046D01*
X016199Y011046D01*
X016199Y010852D01*
X016494Y010997D02*
X016591Y010997D01*
X015803Y010901D02*
X015755Y010852D01*
X015658Y010852D01*
X015610Y010901D01*
X015803Y011094D01*
X015803Y010901D01*
X015610Y010901D02*
X015610Y011094D01*
X015658Y011143D01*
X015755Y011143D01*
X015803Y011094D01*
X015509Y011094D02*
X015315Y010901D01*
X015364Y010852D01*
X015460Y010852D01*
X015509Y010901D01*
X015509Y011094D01*
X015460Y011143D01*
X015364Y011143D01*
X015315Y011094D01*
X015315Y010901D01*
X015214Y010852D02*
X015021Y010852D01*
X015117Y010852D02*
X015117Y011143D01*
X015021Y011046D01*
X015500Y009941D02*
X015645Y009796D01*
X015645Y009989D01*
X015790Y009941D02*
X015500Y009941D01*
X015500Y009598D02*
X015790Y009598D01*
X015790Y009501D02*
X015790Y009695D01*
X015596Y009501D02*
X015500Y009598D01*
X015548Y009400D02*
X015500Y009352D01*
X015500Y009255D01*
X015548Y009207D01*
X015742Y009207D01*
X015790Y009255D01*
X015790Y009352D01*
X015742Y009400D01*
X017092Y009441D02*
X017141Y009489D01*
X017334Y009296D01*
X017382Y009344D01*
X017382Y009441D01*
X017334Y009489D01*
X017141Y009489D01*
X017092Y009441D02*
X017092Y009344D01*
X017141Y009296D01*
X017334Y009296D01*
X017334Y009195D02*
X017141Y009195D01*
X017334Y009001D01*
X017382Y009050D01*
X017382Y009146D01*
X017334Y009195D01*
X017141Y009195D02*
X017092Y009146D01*
X017092Y009050D01*
X017141Y009001D01*
X017334Y009001D01*
X017382Y008900D02*
X017382Y008707D01*
X017382Y008803D02*
X017092Y008803D01*
X017189Y008707D01*
X018414Y008391D02*
X018414Y008100D01*
X018608Y008100D01*
X018709Y008100D02*
X018902Y008100D01*
X019004Y008100D02*
X019149Y008100D01*
X019197Y008149D01*
X019197Y008342D01*
X019149Y008391D01*
X019004Y008391D01*
X019004Y008100D01*
X018806Y008245D02*
X018709Y008245D01*
X018709Y008100D02*
X018709Y008391D01*
X018902Y008391D01*
X019298Y008245D02*
X019298Y008149D01*
X019347Y008100D01*
X019443Y008100D01*
X019492Y008149D01*
X019492Y008197D01*
X019443Y008245D01*
X019298Y008245D01*
X019395Y008342D01*
X019492Y008391D01*
X017382Y009885D02*
X017189Y009885D01*
X017189Y010030D01*
X017237Y010079D01*
X017382Y010079D01*
X017382Y010180D02*
X017092Y010180D01*
X017092Y010373D01*
X017237Y010277D02*
X017237Y010180D01*
X018414Y010350D02*
X018414Y010641D01*
X018414Y010350D02*
X018608Y010350D01*
X018709Y010350D02*
X018902Y010350D01*
X019004Y010350D02*
X019149Y010350D01*
X019197Y010399D01*
X019197Y010592D01*
X019149Y010641D01*
X019004Y010641D01*
X019004Y010350D01*
X018806Y010495D02*
X018709Y010495D01*
X018709Y010350D02*
X018709Y010641D01*
X018902Y010641D01*
X019298Y010641D02*
X019298Y010495D01*
X019395Y010544D01*
X019443Y010544D01*
X019492Y010495D01*
X019492Y010399D01*
X019443Y010350D01*
X019347Y010350D01*
X019298Y010399D01*
X019298Y010641D02*
X019492Y010641D01*
X019844Y010649D02*
X019893Y010600D01*
X019844Y010649D02*
X019844Y010745D01*
X019893Y010794D01*
X019941Y010794D01*
X020134Y010600D01*
X020134Y010794D01*
X020134Y010895D02*
X019941Y011088D01*
X019893Y011088D01*
X019844Y011040D01*
X019844Y010943D01*
X019893Y010895D01*
X020134Y010895D02*
X020134Y011088D01*
X020086Y011190D02*
X019893Y011383D01*
X020086Y011383D01*
X020134Y011335D01*
X020134Y011238D01*
X020086Y011190D01*
X019893Y011190D01*
X019844Y011238D01*
X019844Y011335D01*
X019893Y011383D01*
X019844Y011779D02*
X019844Y011924D01*
X019893Y011972D01*
X019989Y011972D01*
X020038Y011924D01*
X020038Y011779D01*
X020134Y011779D02*
X019844Y011779D01*
X020038Y011876D02*
X020134Y011972D01*
X021030Y012280D02*
X021030Y012571D01*
X021176Y012571D01*
X021224Y012522D01*
X021224Y012425D01*
X021176Y012377D01*
X021030Y012377D01*
X021127Y012377D02*
X021224Y012280D01*
X021325Y012280D02*
X021519Y012280D01*
X021422Y012280D02*
X021422Y012571D01*
X021325Y012474D01*
X021620Y012522D02*
X021668Y012571D01*
X021765Y012571D01*
X021813Y012522D01*
X021813Y012474D01*
X021765Y012425D01*
X021813Y012377D01*
X021813Y012329D01*
X021765Y012280D01*
X021668Y012280D01*
X021620Y012329D01*
X021716Y012425D02*
X021765Y012425D01*
X022285Y012474D02*
X022382Y012571D01*
X022382Y012280D01*
X022478Y012280D02*
X022285Y012280D01*
X022580Y012329D02*
X022773Y012522D01*
X022773Y012329D01*
X022725Y012280D01*
X022628Y012280D01*
X022580Y012329D01*
X022580Y012522D01*
X022628Y012571D01*
X022725Y012571D01*
X022773Y012522D01*
X023169Y012571D02*
X023169Y012280D01*
X023169Y012377D02*
X023314Y012474D01*
X023169Y012377D02*
X023314Y012280D01*
X023354Y011891D02*
X023257Y011891D01*
X023209Y011842D01*
X023209Y011794D01*
X023257Y011745D01*
X023354Y011745D01*
X023402Y011697D01*
X023402Y011649D01*
X023354Y011600D01*
X023257Y011600D01*
X023209Y011649D01*
X023209Y011697D01*
X023257Y011745D01*
X023354Y011745D02*
X023402Y011794D01*
X023402Y011842D01*
X023354Y011891D01*
X023108Y011842D02*
X023059Y011891D01*
X022963Y011891D01*
X022914Y011842D01*
X022914Y011649D01*
X022963Y011600D01*
X023059Y011600D01*
X023108Y011649D01*
X023011Y011391D02*
X023011Y011100D01*
X022914Y011100D02*
X023108Y011100D01*
X023209Y011149D02*
X023402Y011342D01*
X023402Y011149D01*
X023354Y011100D01*
X023257Y011100D01*
X023209Y011149D01*
X023209Y011342D01*
X023257Y011391D01*
X023354Y011391D01*
X023402Y011342D01*
X023504Y011342D02*
X023552Y011391D01*
X023649Y011391D01*
X023697Y011342D01*
X023504Y011149D01*
X023552Y011100D01*
X023649Y011100D01*
X023697Y011149D01*
X023697Y011342D01*
X023504Y011342D02*
X023504Y011149D01*
X023011Y011391D02*
X022914Y011294D01*
X024093Y011294D02*
X024238Y011294D01*
X024286Y011245D01*
X024286Y011100D01*
X024388Y011100D02*
X024388Y011391D01*
X024581Y011391D01*
X024484Y011245D02*
X024388Y011245D01*
X024093Y011294D02*
X024093Y011100D01*
X025014Y011175D02*
X025014Y011272D01*
X025063Y011321D01*
X025111Y011321D01*
X025159Y011272D01*
X025159Y011175D01*
X025111Y011127D01*
X025063Y011127D01*
X025014Y011175D01*
X025159Y011175D02*
X025208Y011127D01*
X025256Y011127D01*
X025304Y011175D01*
X025304Y011272D01*
X025256Y011321D01*
X025208Y011321D01*
X025159Y011272D01*
X025014Y011716D02*
X025111Y011813D01*
X025014Y011910D01*
X025304Y011910D01*
X025304Y012011D02*
X025014Y012011D01*
X025159Y012011D02*
X025159Y012205D01*
X025111Y012306D02*
X025111Y012499D01*
X025304Y012306D01*
X025304Y012499D01*
X025304Y012205D02*
X025014Y012205D01*
X025014Y011716D02*
X025304Y011716D01*
X025284Y010588D02*
X025284Y010395D01*
X025284Y010492D02*
X024994Y010492D01*
X025091Y010395D01*
X025043Y010294D02*
X025236Y010294D01*
X025284Y010245D01*
X025284Y010149D01*
X025236Y010100D01*
X025043Y010100D01*
X024994Y010149D01*
X024994Y010245D01*
X025043Y010294D01*
X025188Y010197D02*
X025284Y010294D01*
X027914Y009044D02*
X028011Y009141D01*
X028011Y008850D01*
X027914Y008850D02*
X028108Y008850D01*
X028209Y008899D02*
X028402Y009092D01*
X028402Y008899D01*
X028354Y008850D01*
X028257Y008850D01*
X028209Y008899D01*
X028209Y009092D01*
X028257Y009141D01*
X028354Y009141D01*
X028402Y009092D01*
X028504Y009092D02*
X028552Y009141D01*
X028649Y009141D01*
X028697Y009092D01*
X028504Y008899D01*
X028552Y008850D01*
X028649Y008850D01*
X028697Y008899D01*
X028697Y009092D01*
X028504Y009092D02*
X028504Y008899D01*
X029093Y008850D02*
X029093Y009044D01*
X029238Y009044D01*
X029286Y008995D01*
X029286Y008850D01*
X029388Y008850D02*
X029388Y009141D01*
X029581Y009141D01*
X029484Y008995D02*
X029388Y008995D01*
X029204Y010177D02*
X029011Y010371D01*
X028963Y010371D01*
X028914Y010322D01*
X028914Y010225D01*
X028963Y010177D01*
X029204Y010177D02*
X029204Y010371D01*
X029204Y010472D02*
X029011Y010665D01*
X028963Y010665D01*
X028914Y010617D01*
X028914Y010520D01*
X028963Y010472D01*
X029204Y010472D02*
X029204Y010665D01*
X029204Y011061D02*
X029204Y011206D01*
X029156Y011255D01*
X029059Y011255D01*
X029011Y011206D01*
X029011Y011061D01*
X029301Y011061D01*
X029204Y011356D02*
X028914Y011356D01*
X028914Y011549D01*
X029059Y011452D02*
X029059Y011356D01*
X031964Y011765D02*
X032013Y011716D01*
X032061Y011716D01*
X032109Y011765D01*
X032109Y011862D01*
X032158Y011910D01*
X032206Y011910D01*
X032254Y011862D01*
X032254Y011765D01*
X032206Y011716D01*
X031964Y011765D02*
X031964Y011862D01*
X032013Y011910D01*
X031964Y012108D02*
X031964Y012205D01*
X031964Y012156D02*
X032206Y012156D01*
X032254Y012108D01*
X032254Y012059D01*
X032206Y012011D01*
X032206Y012306D02*
X032254Y012354D01*
X032254Y012451D01*
X032206Y012499D01*
X032158Y012499D01*
X032109Y012451D01*
X032109Y012402D01*
X032109Y012451D02*
X032061Y012499D01*
X032013Y012499D01*
X031964Y012451D01*
X031964Y012354D01*
X032013Y012306D01*
X031156Y008999D02*
X031108Y008999D01*
X031059Y008951D01*
X031059Y008854D01*
X031011Y008806D01*
X030963Y008806D01*
X030914Y008854D01*
X030914Y008951D01*
X030963Y008999D01*
X031156Y008999D02*
X031204Y008951D01*
X031204Y008854D01*
X031156Y008806D01*
X031204Y008705D02*
X031108Y008608D01*
X031108Y008656D02*
X031108Y008511D01*
X031204Y008511D02*
X030914Y008511D01*
X030914Y008656D01*
X030963Y008705D01*
X031059Y008705D01*
X031108Y008656D01*
X030899Y007391D02*
X030947Y007342D01*
X030754Y007149D01*
X030802Y007100D01*
X030899Y007100D01*
X030947Y007149D01*
X030947Y007342D01*
X030899Y007391D02*
X030802Y007391D01*
X030754Y007342D01*
X030754Y007149D01*
X030652Y007100D02*
X030459Y007100D01*
X030652Y007294D01*
X030652Y007342D01*
X030604Y007391D01*
X030507Y007391D01*
X030459Y007342D01*
X030261Y007391D02*
X030261Y007100D01*
X030164Y007100D02*
X030358Y007100D01*
X030164Y007294D02*
X030261Y007391D01*
X031343Y007391D02*
X031343Y007100D01*
X031343Y007197D02*
X031488Y007197D01*
X031536Y007245D01*
X031536Y007342D01*
X031488Y007391D01*
X031343Y007391D01*
X031440Y007197D02*
X031536Y007100D01*
X031914Y006951D02*
X032059Y006806D01*
X032059Y006999D01*
X032204Y006951D02*
X031914Y006951D01*
X031914Y006608D02*
X032204Y006608D01*
X032204Y006511D02*
X032204Y006705D01*
X032011Y006511D02*
X031914Y006608D01*
X031963Y006410D02*
X031914Y006362D01*
X031914Y006216D01*
X032204Y006216D01*
X032108Y006216D02*
X032108Y006362D01*
X032059Y006410D01*
X031963Y006410D01*
X032108Y006313D02*
X032204Y006410D01*
X033864Y005851D02*
X033864Y005754D01*
X033913Y005706D01*
X033864Y005605D02*
X033864Y005508D01*
X033864Y005556D02*
X034106Y005556D01*
X034154Y005508D01*
X034154Y005459D01*
X034106Y005411D01*
X034106Y005310D02*
X034154Y005262D01*
X034154Y005165D01*
X034106Y005116D01*
X034009Y005165D02*
X034009Y005262D01*
X034058Y005310D01*
X034106Y005310D01*
X034009Y005165D02*
X033961Y005116D01*
X033913Y005116D01*
X033864Y005165D01*
X033864Y005262D01*
X033913Y005310D01*
X034154Y005706D02*
X033961Y005899D01*
X033913Y005899D01*
X033864Y005851D01*
X034154Y005899D02*
X034154Y005706D01*
X031366Y004871D02*
X031366Y004580D01*
X031270Y004580D02*
X031463Y004580D01*
X031270Y004774D02*
X031366Y004871D01*
X031169Y004871D02*
X031072Y004871D01*
X031120Y004871D02*
X031120Y004629D01*
X031072Y004580D01*
X031023Y004580D01*
X030975Y004629D01*
X030874Y004629D02*
X030826Y004580D01*
X030729Y004580D01*
X030680Y004629D01*
X030729Y004725D02*
X030680Y004774D01*
X030680Y004822D01*
X030729Y004871D01*
X030826Y004871D01*
X030874Y004822D01*
X030826Y004725D02*
X030874Y004677D01*
X030874Y004629D01*
X030826Y004725D02*
X030729Y004725D01*
X029626Y004550D02*
X029432Y004550D01*
X029529Y004550D02*
X029529Y004841D01*
X029432Y004744D01*
X029331Y004695D02*
X029331Y004599D01*
X029283Y004550D01*
X029186Y004550D01*
X029138Y004599D01*
X029138Y004695D02*
X029234Y004744D01*
X029283Y004744D01*
X029331Y004695D01*
X029331Y004841D02*
X029138Y004841D01*
X029138Y004695D01*
X029036Y004695D02*
X029036Y004599D01*
X028988Y004550D01*
X028891Y004550D01*
X028843Y004599D01*
X028843Y004695D02*
X028940Y004744D01*
X028988Y004744D01*
X029036Y004695D01*
X029036Y004841D02*
X028843Y004841D01*
X028843Y004695D01*
X028742Y004744D02*
X028742Y004792D01*
X028693Y004841D01*
X028597Y004841D01*
X028548Y004792D01*
X028447Y004792D02*
X028447Y004695D01*
X028399Y004647D01*
X028254Y004647D01*
X028254Y004550D02*
X028254Y004841D01*
X028399Y004841D01*
X028447Y004792D01*
X028548Y004550D02*
X028742Y004744D01*
X028742Y004550D02*
X028548Y004550D01*
X028152Y004599D02*
X028104Y004550D01*
X028007Y004550D01*
X027959Y004599D01*
X027959Y004792D01*
X028007Y004841D01*
X028104Y004841D01*
X028152Y004792D01*
X027858Y004841D02*
X027858Y004550D01*
X027664Y004550D02*
X027664Y004841D01*
X027761Y004744D01*
X027858Y004841D01*
X024813Y004686D02*
X024620Y004686D01*
X024620Y004540D01*
X024716Y004589D01*
X024765Y004589D01*
X024813Y004540D01*
X024813Y004444D01*
X024765Y004395D01*
X024668Y004395D01*
X024620Y004444D01*
X024519Y004395D02*
X024325Y004395D01*
X024422Y004395D02*
X024422Y004686D01*
X024325Y004589D01*
X024224Y004540D02*
X024224Y004444D01*
X024176Y004395D01*
X024079Y004395D01*
X024030Y004444D01*
X024030Y004540D02*
X024127Y004589D01*
X024176Y004589D01*
X024224Y004540D01*
X024224Y004686D02*
X024030Y004686D01*
X024030Y004540D01*
X023929Y004589D02*
X023929Y004637D01*
X023881Y004686D01*
X023784Y004686D01*
X023736Y004637D01*
X023635Y004637D02*
X023635Y004540D01*
X023586Y004492D01*
X023441Y004492D01*
X023441Y004395D02*
X023441Y004686D01*
X023586Y004686D01*
X023635Y004637D01*
X023736Y004395D02*
X023929Y004589D01*
X023929Y004395D02*
X023736Y004395D01*
X023340Y004444D02*
X023292Y004395D01*
X023195Y004395D01*
X023146Y004444D01*
X023146Y004637D01*
X023195Y004686D01*
X023292Y004686D01*
X023340Y004637D01*
X023045Y004686D02*
X023045Y004395D01*
X022852Y004395D02*
X022852Y004686D01*
X022949Y004589D01*
X023045Y004686D01*
X022313Y004637D02*
X022265Y004686D01*
X022168Y004686D01*
X022120Y004637D01*
X022019Y004637D02*
X021970Y004686D01*
X021873Y004686D01*
X021825Y004637D01*
X021825Y004444D01*
X021873Y004395D01*
X021970Y004395D01*
X022019Y004444D01*
X022120Y004395D02*
X022313Y004589D01*
X022313Y004637D01*
X022313Y004395D02*
X022120Y004395D01*
X021725Y004395D02*
X021629Y004395D01*
X021677Y004395D02*
X021677Y004686D01*
X021629Y004686D02*
X021725Y004686D01*
X019943Y004294D02*
X019798Y004197D01*
X019943Y004100D01*
X019798Y004100D02*
X019798Y004391D01*
X019402Y004342D02*
X019402Y004149D01*
X019354Y004100D01*
X019257Y004100D01*
X019209Y004149D01*
X019402Y004342D01*
X019354Y004391D01*
X019257Y004391D01*
X019209Y004342D01*
X019209Y004149D01*
X019108Y004100D02*
X018914Y004100D01*
X019011Y004100D02*
X019011Y004391D01*
X018914Y004294D01*
X017913Y003871D02*
X017720Y003871D01*
X017816Y003871D02*
X017816Y003580D01*
X017619Y003580D02*
X017425Y003580D01*
X017425Y003871D01*
X017619Y003871D01*
X017522Y003725D02*
X017425Y003725D01*
X017324Y003677D02*
X017276Y003725D01*
X017179Y003725D01*
X017130Y003774D01*
X017130Y003822D01*
X017179Y003871D01*
X017276Y003871D01*
X017324Y003822D01*
X017324Y003677D02*
X017324Y003629D01*
X017276Y003580D01*
X017179Y003580D01*
X017130Y003629D01*
X017029Y003580D02*
X016836Y003580D01*
X016836Y003871D01*
X017029Y003871D01*
X016932Y003725D02*
X016836Y003725D01*
X016735Y003725D02*
X016686Y003677D01*
X016541Y003677D01*
X016541Y003580D02*
X016541Y003871D01*
X016686Y003871D01*
X016735Y003822D01*
X016735Y003725D01*
X016638Y003677D02*
X016735Y003580D01*
X016145Y003580D02*
X016145Y003871D01*
X015952Y003871D02*
X015952Y003580D01*
X015851Y003580D02*
X015851Y003774D01*
X015754Y003871D01*
X015657Y003774D01*
X015657Y003580D01*
X015556Y003629D02*
X015508Y003580D01*
X015411Y003580D01*
X015363Y003629D01*
X015363Y003822D01*
X015411Y003871D01*
X015508Y003871D01*
X015556Y003822D01*
X015657Y003725D02*
X015851Y003725D01*
X015952Y003871D02*
X016145Y003580D01*
X018914Y005600D02*
X018914Y005891D01*
X019059Y005891D01*
X019108Y005842D01*
X019108Y005745D01*
X019059Y005697D01*
X018914Y005697D01*
X019011Y005697D02*
X019108Y005600D01*
X019209Y005600D02*
X019402Y005600D01*
X019306Y005600D02*
X019306Y005891D01*
X019209Y005794D01*
X019504Y005842D02*
X019552Y005891D01*
X019649Y005891D01*
X019697Y005842D01*
X019697Y005794D01*
X019504Y005600D01*
X019697Y005600D01*
X016163Y006580D02*
X015970Y006580D01*
X016066Y006580D02*
X016066Y006871D01*
X015970Y006774D01*
X015869Y006822D02*
X015820Y006871D01*
X015723Y006871D01*
X015675Y006822D01*
X015675Y006774D01*
X015723Y006725D01*
X015820Y006725D01*
X015869Y006677D01*
X015869Y006629D01*
X015820Y006580D01*
X015723Y006580D01*
X015675Y006629D01*
X009674Y007795D02*
X009674Y007843D01*
X009626Y007892D01*
X009384Y007892D01*
X009384Y007940D02*
X009384Y007843D01*
X009384Y008041D02*
X009384Y008186D01*
X009433Y008235D01*
X009529Y008235D01*
X009578Y008186D01*
X009578Y008041D01*
X009674Y008041D02*
X009384Y008041D01*
X009529Y008336D02*
X009529Y008529D01*
X009674Y008481D02*
X009384Y008481D01*
X009529Y008336D01*
X009674Y007795D02*
X009626Y007746D01*
X007554Y007776D02*
X007554Y007582D01*
X007554Y007679D02*
X007264Y007679D01*
X007361Y007582D01*
X007409Y007877D02*
X007409Y008022D01*
X007458Y008071D01*
X007506Y008071D01*
X007554Y008022D01*
X007554Y007925D01*
X007506Y007877D01*
X007409Y007877D01*
X007313Y007974D01*
X007264Y008071D01*
X007264Y008466D02*
X007361Y008563D01*
X007264Y008660D01*
X007554Y008660D01*
X007554Y008761D02*
X007264Y008761D01*
X007409Y008761D02*
X007409Y008955D01*
X007361Y009056D02*
X007361Y009249D01*
X007554Y009056D01*
X007554Y009249D01*
X007554Y008955D02*
X007264Y008955D01*
X007264Y008466D02*
X007554Y008466D01*
X005954Y009565D02*
X005954Y009662D01*
X005906Y009710D01*
X005954Y009811D02*
X005954Y010005D01*
X005954Y009908D02*
X005664Y009908D01*
X005761Y009811D01*
X005713Y009710D02*
X005664Y009662D01*
X005664Y009565D01*
X005713Y009516D01*
X005906Y009516D01*
X005954Y009565D01*
X005954Y010106D02*
X005954Y010299D01*
X005954Y010202D02*
X005664Y010202D01*
X005761Y010106D01*
X005713Y010927D02*
X005664Y010975D01*
X005664Y011072D01*
X005713Y011121D01*
X005761Y011121D01*
X005954Y010927D01*
X005954Y011121D01*
X005954Y011222D02*
X005761Y011415D01*
X005713Y011415D01*
X005664Y011367D01*
X005664Y011270D01*
X005713Y011222D01*
X005954Y011222D02*
X005954Y011415D01*
X005954Y011811D02*
X005954Y011956D01*
X005906Y012005D01*
X005809Y012005D01*
X005761Y011956D01*
X005761Y011811D01*
X006051Y011811D01*
X005954Y012106D02*
X005664Y012106D01*
X005664Y012299D01*
X005809Y012202D02*
X005809Y012106D01*
X006143Y013800D02*
X006094Y013849D01*
X006094Y013945D01*
X006143Y013994D01*
X006191Y014095D02*
X006094Y014192D01*
X006384Y014192D01*
X006384Y014288D02*
X006384Y014095D01*
X006336Y013994D02*
X006384Y013945D01*
X006384Y013849D01*
X006336Y013800D01*
X006143Y013800D01*
X006844Y013849D02*
X006893Y013800D01*
X006844Y013849D02*
X006844Y013945D01*
X006893Y013994D01*
X006941Y013994D01*
X007134Y013800D01*
X007134Y013994D01*
X007134Y014095D02*
X006941Y014288D01*
X006893Y014288D01*
X006844Y014240D01*
X006844Y014143D01*
X006893Y014095D01*
X007134Y014095D02*
X007134Y014288D01*
X007134Y014684D02*
X007134Y014829D01*
X007086Y014878D01*
X006989Y014878D01*
X006941Y014829D01*
X006941Y014684D01*
X007231Y014684D01*
X007134Y014979D02*
X006844Y014979D01*
X006844Y015172D01*
X006989Y015076D02*
X006989Y014979D01*
X006384Y014535D02*
X006384Y014438D01*
X006336Y014390D01*
X006143Y014583D01*
X006336Y014583D01*
X006384Y014535D01*
X006336Y014390D02*
X006143Y014390D01*
X006094Y014438D01*
X006094Y014535D01*
X006143Y014583D01*
X007764Y015718D02*
X008054Y015718D01*
X008054Y015814D02*
X008054Y015621D01*
X007861Y015621D02*
X007764Y015718D01*
X007813Y015916D02*
X007764Y015964D01*
X007764Y016061D01*
X007813Y016109D01*
X008006Y015916D01*
X008054Y015964D01*
X008054Y016061D01*
X008006Y016109D01*
X007813Y016109D01*
X007813Y015916D02*
X008006Y015916D01*
X008054Y016505D02*
X007764Y016505D01*
X007861Y016650D02*
X007958Y016505D01*
X008054Y016650D01*
X007136Y016442D02*
X007136Y016345D01*
X007088Y016297D01*
X006943Y016297D01*
X006943Y016200D02*
X006943Y016491D01*
X007088Y016491D01*
X007136Y016442D01*
X007040Y016297D02*
X007136Y016200D01*
X006547Y016249D02*
X006499Y016200D01*
X006402Y016200D01*
X006354Y016249D01*
X006547Y016442D01*
X006547Y016249D01*
X006547Y016442D02*
X006499Y016491D01*
X006402Y016491D01*
X006354Y016442D01*
X006354Y016249D01*
X006252Y016200D02*
X006059Y016200D01*
X006252Y016394D01*
X006252Y016442D01*
X006204Y016491D01*
X006107Y016491D01*
X006059Y016442D01*
X005958Y016442D02*
X005909Y016491D01*
X005813Y016491D01*
X005764Y016442D01*
X005958Y016442D02*
X005958Y016394D01*
X005764Y016200D01*
X005958Y016200D01*
X005984Y016950D02*
X005694Y016950D01*
X005694Y017095D01*
X005743Y017144D01*
X005839Y017144D01*
X005888Y017095D01*
X005888Y016950D01*
X005888Y017047D02*
X005984Y017144D01*
X005936Y017245D02*
X005984Y017293D01*
X005984Y017390D01*
X005936Y017438D01*
X005888Y017438D01*
X005839Y017390D01*
X005839Y017342D01*
X005839Y017390D02*
X005791Y017438D01*
X005743Y017438D01*
X005694Y017390D01*
X005694Y017293D01*
X005743Y017245D01*
X006264Y017700D02*
X006458Y017894D01*
X006458Y017942D01*
X006409Y017991D01*
X006313Y017991D01*
X006264Y017942D01*
X006264Y017700D02*
X006458Y017700D01*
X006559Y017700D02*
X006752Y017894D01*
X006752Y017942D01*
X006704Y017991D01*
X006607Y017991D01*
X006559Y017942D01*
X006559Y017700D02*
X006752Y017700D01*
X006854Y017749D02*
X007047Y017942D01*
X007047Y017749D01*
X006999Y017700D01*
X006902Y017700D01*
X006854Y017749D01*
X006854Y017942D01*
X006902Y017991D01*
X006999Y017991D01*
X007047Y017942D01*
X007443Y017991D02*
X007443Y017700D01*
X007443Y017797D02*
X007588Y017797D01*
X007636Y017845D01*
X007636Y017942D01*
X007588Y017991D01*
X007443Y017991D01*
X007540Y017797D02*
X007636Y017700D01*
X007914Y017697D02*
X008059Y017697D01*
X008108Y017745D01*
X008108Y017842D01*
X008059Y017891D01*
X007914Y017891D01*
X007914Y017600D01*
X008011Y017697D02*
X008108Y017600D01*
X008209Y017600D02*
X008402Y017794D01*
X008402Y017842D01*
X008354Y017891D01*
X008257Y017891D01*
X008209Y017842D01*
X008209Y017600D02*
X008402Y017600D01*
X008504Y017649D02*
X008697Y017842D01*
X008697Y017649D01*
X008649Y017600D01*
X008552Y017600D01*
X008504Y017649D01*
X008504Y017842D01*
X008552Y017891D01*
X008649Y017891D01*
X008697Y017842D01*
X008798Y017842D02*
X008847Y017891D01*
X008943Y017891D01*
X008992Y017842D01*
X008992Y017794D01*
X008798Y017600D01*
X008992Y017600D01*
X009093Y017649D02*
X009286Y017842D01*
X009286Y017649D01*
X009238Y017600D01*
X009141Y017600D01*
X009093Y017649D01*
X009093Y017842D01*
X009141Y017891D01*
X009238Y017891D01*
X009286Y017842D01*
X009682Y017891D02*
X009682Y017745D01*
X009779Y017794D01*
X009827Y017794D01*
X009876Y017745D01*
X009876Y017649D01*
X009827Y017600D01*
X009731Y017600D01*
X009682Y017649D01*
X009682Y017891D02*
X009876Y017891D01*
X009977Y017891D02*
X009977Y017697D01*
X010074Y017600D01*
X010170Y017697D01*
X010170Y017891D01*
X010222Y019100D02*
X010222Y019294D01*
X010222Y019197D02*
X010319Y019294D01*
X010368Y019294D01*
X010468Y019245D02*
X010516Y019294D01*
X010613Y019294D01*
X010661Y019245D01*
X010661Y019149D01*
X010613Y019100D01*
X010516Y019100D01*
X010468Y019149D01*
X010468Y019245D01*
X010763Y019197D02*
X010859Y019294D01*
X010908Y019294D01*
X010763Y019294D02*
X010763Y019100D01*
X010122Y019294D02*
X010074Y019294D01*
X009977Y019197D01*
X009977Y019100D02*
X009977Y019294D01*
X009876Y019391D02*
X009682Y019391D01*
X009682Y019100D01*
X009876Y019100D01*
X009779Y019245D02*
X009682Y019245D01*
X009286Y019342D02*
X009286Y019149D01*
X009238Y019100D01*
X009141Y019100D01*
X009093Y019149D01*
X009286Y019342D01*
X009238Y019391D01*
X009141Y019391D01*
X009093Y019342D01*
X009093Y019149D01*
X008992Y019100D02*
X008798Y019100D01*
X008992Y019294D01*
X008992Y019342D01*
X008943Y019391D01*
X008847Y019391D01*
X008798Y019342D01*
X008697Y019342D02*
X008504Y019149D01*
X008552Y019100D01*
X008649Y019100D01*
X008697Y019149D01*
X008697Y019342D01*
X008649Y019391D01*
X008552Y019391D01*
X008504Y019342D01*
X008504Y019149D01*
X008402Y019100D02*
X008209Y019100D01*
X008402Y019294D01*
X008402Y019342D01*
X008354Y019391D01*
X008257Y019391D01*
X008209Y019342D01*
X008108Y019342D02*
X008108Y019245D01*
X008059Y019197D01*
X007914Y019197D01*
X007914Y019100D02*
X007914Y019391D01*
X008059Y019391D01*
X008108Y019342D01*
X008011Y019197D02*
X008108Y019100D01*
X008065Y020195D02*
X008259Y020195D01*
X008162Y020195D02*
X008162Y020485D01*
X008065Y020388D01*
X007964Y020437D02*
X007916Y020485D01*
X007819Y020485D01*
X007771Y020437D01*
X007771Y020243D01*
X007819Y020195D01*
X007916Y020195D01*
X007964Y020243D01*
X008621Y020202D02*
X008814Y020202D01*
X008717Y020202D02*
X008717Y020493D01*
X008621Y020396D01*
X008915Y020444D02*
X008964Y020493D01*
X009060Y020493D01*
X009109Y020444D01*
X008915Y020251D01*
X008964Y020202D01*
X009060Y020202D01*
X009109Y020251D01*
X009109Y020444D01*
X009210Y020444D02*
X009258Y020493D01*
X009355Y020493D01*
X009403Y020444D01*
X009210Y020251D01*
X009258Y020202D01*
X009355Y020202D01*
X009403Y020251D01*
X009403Y020444D01*
X009210Y020444D02*
X009210Y020251D01*
X008915Y020251D02*
X008915Y020444D01*
X009799Y020396D02*
X009799Y020202D01*
X009993Y020202D02*
X009993Y020347D01*
X009944Y020396D01*
X009799Y020396D01*
X010094Y020347D02*
X010191Y020347D01*
X010094Y020202D02*
X010094Y020493D01*
X010287Y020493D01*
X011414Y019951D02*
X011511Y019951D01*
X011463Y019951D02*
X011463Y019660D01*
X011511Y019660D02*
X011414Y019660D01*
X011611Y019709D02*
X011611Y019902D01*
X011659Y019951D01*
X011756Y019951D01*
X011804Y019902D01*
X011905Y019805D02*
X012099Y019805D01*
X012051Y019660D02*
X012051Y019951D01*
X011905Y019805D01*
X011804Y019709D02*
X011756Y019660D01*
X011659Y019660D01*
X011611Y019709D01*
X012480Y020479D02*
X012529Y020430D01*
X012577Y020430D01*
X012626Y020479D01*
X012626Y020721D01*
X012674Y020721D02*
X012577Y020721D01*
X012775Y020721D02*
X012775Y020430D01*
X012775Y020527D02*
X012920Y020527D01*
X012969Y020575D01*
X012969Y020672D01*
X012920Y020721D01*
X012775Y020721D01*
X013070Y020672D02*
X013118Y020721D01*
X013215Y020721D01*
X013263Y020672D01*
X013263Y020624D01*
X013070Y020430D01*
X013263Y020430D01*
X013023Y022600D02*
X013084Y022662D01*
X013084Y022786D01*
X013023Y022847D01*
X012899Y022847D01*
X012899Y022724D01*
X012776Y022847D02*
X012714Y022786D01*
X012714Y022662D01*
X012776Y022600D01*
X013023Y022600D01*
X013084Y022969D02*
X012714Y022969D01*
X013084Y023216D01*
X012714Y023216D01*
X012714Y023337D02*
X012714Y023522D01*
X012776Y023584D01*
X013023Y023584D01*
X013084Y023522D01*
X013084Y023337D01*
X012714Y023337D01*
X012084Y023337D02*
X012084Y023522D01*
X012023Y023584D01*
X011776Y023584D01*
X011714Y023522D01*
X011714Y023337D01*
X012084Y023337D01*
X012084Y023216D02*
X011714Y023216D01*
X011714Y022969D02*
X012084Y023216D01*
X012084Y022969D02*
X011714Y022969D01*
X011776Y022847D02*
X011714Y022786D01*
X011714Y022662D01*
X011776Y022600D01*
X012023Y022600D01*
X012084Y022662D01*
X012084Y022786D01*
X012023Y022847D01*
X011899Y022847D01*
X011899Y022724D01*
X013714Y022969D02*
X013899Y022969D01*
X013838Y023092D01*
X013838Y023154D01*
X013899Y023216D01*
X014023Y023216D01*
X014084Y023154D01*
X014084Y023030D01*
X014023Y022969D01*
X013899Y022847D02*
X013899Y022600D01*
X013776Y022724D02*
X014023Y022724D01*
X013714Y022969D02*
X013714Y023216D01*
X013714Y023337D02*
X013961Y023337D01*
X014084Y023460D01*
X013961Y023584D01*
X013714Y023584D01*
X015280Y024780D02*
X015280Y025071D01*
X015426Y025071D01*
X015474Y025022D01*
X015474Y024925D01*
X015426Y024877D01*
X015280Y024877D01*
X015377Y024877D02*
X015474Y024780D01*
X015575Y024780D02*
X015769Y024780D01*
X015672Y024780D02*
X015672Y025071D01*
X015575Y024974D01*
X015870Y025071D02*
X016063Y025071D01*
X016063Y025022D01*
X015870Y024829D01*
X015870Y024780D01*
X016441Y024780D02*
X016635Y024974D01*
X016635Y025022D01*
X016586Y025071D01*
X016489Y025071D01*
X016441Y025022D01*
X016441Y024780D02*
X016635Y024780D01*
X016736Y024780D02*
X016929Y024974D01*
X016929Y025022D01*
X016881Y025071D01*
X016784Y025071D01*
X016736Y025022D01*
X016736Y024780D02*
X016929Y024780D01*
X017030Y024829D02*
X017079Y024780D01*
X017176Y024780D01*
X017224Y024829D01*
X017224Y025022D01*
X017030Y024829D01*
X017030Y025022D01*
X017079Y025071D01*
X017176Y025071D01*
X017224Y025022D01*
X017620Y025071D02*
X017620Y024780D01*
X017620Y024877D02*
X017765Y024877D01*
X017813Y024925D01*
X017813Y025022D01*
X017765Y025071D01*
X017620Y025071D01*
X017716Y024877D02*
X017813Y024780D01*
X009133Y022795D02*
X009133Y022650D01*
X009133Y022795D02*
X009084Y022844D01*
X008988Y022844D01*
X008939Y022795D01*
X008838Y022844D02*
X008693Y022844D01*
X008645Y022795D01*
X008645Y022699D01*
X008693Y022650D01*
X008838Y022650D01*
X008939Y022650D02*
X008939Y022941D01*
X008545Y022844D02*
X008448Y022844D01*
X008497Y022892D02*
X008497Y022699D01*
X008545Y022650D01*
X008349Y022650D02*
X008252Y022650D01*
X008300Y022650D02*
X008300Y022844D01*
X008252Y022844D01*
X008151Y022844D02*
X008151Y022699D01*
X008102Y022650D01*
X008054Y022699D01*
X008006Y022650D01*
X007957Y022699D01*
X007957Y022844D01*
X007856Y022892D02*
X007808Y022941D01*
X007711Y022941D01*
X007663Y022892D01*
X007663Y022844D01*
X007711Y022795D01*
X007808Y022795D01*
X007856Y022747D01*
X007856Y022699D01*
X007808Y022650D01*
X007711Y022650D01*
X007663Y022699D01*
X007268Y022650D02*
X007220Y022699D01*
X007220Y022892D01*
X007268Y022844D02*
X007171Y022844D01*
X007023Y022844D02*
X007023Y022650D01*
X006975Y022650D02*
X007072Y022650D01*
X006874Y022650D02*
X006874Y022795D01*
X006826Y022844D01*
X006777Y022795D01*
X006777Y022650D01*
X006680Y022650D02*
X006680Y022844D01*
X006729Y022844D01*
X006777Y022795D01*
X006975Y022844D02*
X007023Y022844D01*
X007023Y022941D02*
X007023Y022989D01*
X006652Y023250D02*
X006459Y023250D01*
X006556Y023250D02*
X006556Y023541D01*
X006459Y023444D01*
X006358Y023541D02*
X006164Y023250D01*
X006358Y023250D02*
X006164Y023541D01*
X006532Y022989D02*
X006532Y022941D01*
X006532Y022844D02*
X006532Y022650D01*
X006484Y022650D02*
X006581Y022650D01*
X006383Y022650D02*
X006189Y022650D01*
X006189Y022941D01*
X006484Y022844D02*
X006532Y022844D01*
X004813Y022772D02*
X004620Y022579D01*
X004668Y022530D01*
X004765Y022530D01*
X004813Y022579D01*
X004813Y022772D01*
X004765Y022821D01*
X004668Y022821D01*
X004620Y022772D01*
X004620Y022579D01*
X004519Y022530D02*
X004325Y022530D01*
X004519Y022724D01*
X004519Y022772D01*
X004470Y022821D01*
X004373Y022821D01*
X004325Y022772D01*
X004224Y022772D02*
X004030Y022579D01*
X004079Y022530D01*
X004176Y022530D01*
X004224Y022579D01*
X004224Y022772D01*
X004176Y022821D01*
X004079Y022821D01*
X004030Y022772D01*
X004030Y022579D01*
X003929Y022530D02*
X003736Y022530D01*
X003929Y022724D01*
X003929Y022772D01*
X003881Y022821D01*
X003784Y022821D01*
X003736Y022772D01*
X003635Y022772D02*
X003635Y022675D01*
X003586Y022627D01*
X003441Y022627D01*
X003441Y022530D02*
X003441Y022821D01*
X003586Y022821D01*
X003635Y022772D01*
X003538Y022627D02*
X003635Y022530D01*
X003631Y023160D02*
X003679Y023209D01*
X003631Y023160D02*
X003534Y023160D01*
X003486Y023209D01*
X003486Y023402D01*
X003534Y023451D01*
X003631Y023451D01*
X003679Y023402D01*
X003780Y023402D02*
X003780Y023209D01*
X003829Y023160D01*
X003926Y023160D01*
X003974Y023209D01*
X003974Y023402D01*
X003926Y023451D01*
X003829Y023451D01*
X003780Y023402D01*
X004075Y023451D02*
X004269Y023160D01*
X004269Y023451D01*
X004370Y023354D02*
X004466Y023451D01*
X004466Y023160D01*
X004370Y023160D02*
X004563Y023160D01*
X004075Y023160D02*
X004075Y023451D01*
X008300Y022989D02*
X008300Y022941D01*
X005984Y018938D02*
X005984Y018745D01*
X005791Y018938D01*
X005743Y018938D01*
X005694Y018890D01*
X005694Y018793D01*
X005743Y018745D01*
X005743Y018644D02*
X005694Y018595D01*
X005694Y018450D01*
X005984Y018450D01*
X005888Y018450D02*
X005888Y018595D01*
X005839Y018644D01*
X005743Y018644D01*
X005888Y018547D02*
X005984Y018644D01*
X009225Y015421D02*
X009370Y015421D01*
X009419Y015372D01*
X009419Y015275D01*
X009370Y015227D01*
X009225Y015227D01*
X009225Y015130D02*
X009225Y015421D01*
X009322Y015227D02*
X009419Y015130D01*
X009520Y015130D02*
X009713Y015130D01*
X009616Y015130D02*
X009616Y015421D01*
X009520Y015324D01*
X009813Y014499D02*
X009764Y014451D01*
X009764Y014354D01*
X009813Y014306D01*
X009813Y014205D02*
X010006Y014205D01*
X010054Y014156D01*
X010054Y014059D01*
X010006Y014011D01*
X009813Y014011D01*
X009764Y014059D01*
X009764Y014156D01*
X009813Y014205D01*
X009958Y014108D02*
X010054Y014205D01*
X010054Y014306D02*
X009861Y014499D01*
X009813Y014499D01*
X010054Y014499D02*
X010054Y014306D01*
X012164Y014274D02*
X012213Y014225D01*
X012406Y014225D01*
X012454Y014274D01*
X012454Y014370D01*
X012406Y014419D01*
X012309Y014419D01*
X012309Y014322D01*
X012213Y014419D02*
X012164Y014370D01*
X012164Y014274D01*
X012164Y014124D02*
X012164Y013931D01*
X012454Y013931D01*
X012454Y014124D01*
X012309Y014027D02*
X012309Y013931D01*
X012164Y013829D02*
X012454Y013829D01*
X012454Y013636D02*
X012164Y013636D01*
X012261Y013733D01*
X012164Y013829D01*
X012164Y013535D02*
X012164Y013341D01*
X012164Y013438D02*
X012454Y013438D01*
X012454Y013240D02*
X012261Y013240D01*
X012164Y013143D01*
X012261Y013047D01*
X012454Y013047D01*
X012309Y013047D02*
X012309Y013240D01*
X012309Y014520D02*
X012309Y014713D01*
X012261Y014713D02*
X012454Y014713D01*
X012309Y014815D02*
X012164Y014960D01*
X012454Y014960D01*
X012309Y015008D02*
X012309Y014815D01*
X012261Y014713D02*
X012164Y014617D01*
X012261Y014520D01*
X012454Y014520D01*
X012406Y015109D02*
X012358Y015109D01*
X012309Y015158D01*
X012309Y015254D01*
X012358Y015303D01*
X012406Y015303D01*
X012454Y015254D01*
X012454Y015158D01*
X012406Y015109D01*
X012309Y015158D02*
X012261Y015109D01*
X012213Y015109D01*
X012164Y015158D01*
X012164Y015254D01*
X012213Y015303D01*
X012261Y015303D01*
X012309Y015254D01*
X012454Y015404D02*
X012164Y015597D01*
X012213Y015698D02*
X012261Y015698D01*
X012309Y015747D01*
X012309Y015844D01*
X012358Y015892D01*
X012406Y015892D01*
X012454Y015844D01*
X012454Y015747D01*
X012406Y015698D01*
X012358Y015698D01*
X012309Y015747D01*
X012309Y015844D02*
X012261Y015892D01*
X012213Y015892D01*
X012164Y015844D01*
X012164Y015747D01*
X012213Y015698D01*
X012213Y015993D02*
X012261Y015993D01*
X012309Y016041D01*
X012309Y016138D01*
X012358Y016187D01*
X012406Y016187D01*
X012454Y016138D01*
X012454Y016041D01*
X012406Y015993D01*
X012358Y015993D01*
X012309Y016041D01*
X012309Y016138D02*
X012261Y016187D01*
X012213Y016187D01*
X012164Y016138D01*
X012164Y016041D01*
X012213Y015993D01*
X012454Y016288D02*
X012164Y016481D01*
X012261Y016582D02*
X012164Y016679D01*
X012454Y016679D01*
X012454Y016582D02*
X012454Y016776D01*
X012406Y016877D02*
X012454Y016925D01*
X012454Y017022D01*
X012406Y017071D01*
X012358Y017071D01*
X012309Y017022D01*
X012309Y016877D01*
X012406Y016877D01*
X012309Y016877D02*
X012213Y016974D01*
X012164Y017071D01*
X012213Y017172D02*
X012261Y017172D01*
X012309Y017220D01*
X012309Y017317D01*
X012358Y017365D01*
X012406Y017365D01*
X012454Y017317D01*
X012454Y017220D01*
X012406Y017172D01*
X012358Y017172D01*
X012309Y017220D01*
X012309Y017317D02*
X012261Y017365D01*
X012213Y017365D01*
X012164Y017317D01*
X012164Y017220D01*
X012213Y017172D01*
X012309Y017466D02*
X012309Y017660D01*
X012358Y017761D02*
X012358Y017906D01*
X012309Y017954D01*
X012213Y017954D01*
X012164Y017906D01*
X012164Y017761D01*
X012454Y017761D01*
X012406Y018056D02*
X012164Y018056D01*
X012164Y018249D02*
X012406Y018249D01*
X012454Y018201D01*
X012454Y018104D01*
X012406Y018056D01*
X014914Y017355D02*
X015204Y017355D01*
X015108Y017355D02*
X015011Y017500D01*
X015108Y017355D02*
X015204Y017500D01*
X015156Y016959D02*
X014963Y016959D01*
X015156Y016766D01*
X015204Y016814D01*
X015204Y016911D01*
X015156Y016959D01*
X014963Y016959D02*
X014914Y016911D01*
X014914Y016814D01*
X014963Y016766D01*
X015156Y016766D01*
X015204Y016664D02*
X015204Y016471D01*
X015204Y016568D02*
X014914Y016568D01*
X015011Y016471D01*
X016414Y016716D02*
X016414Y016862D01*
X016463Y016910D01*
X016559Y016910D01*
X016608Y016862D01*
X016608Y016716D01*
X016704Y016716D02*
X016414Y016716D01*
X016608Y016813D02*
X016704Y016910D01*
X016704Y017011D02*
X016704Y017205D01*
X016704Y017108D02*
X016414Y017108D01*
X016511Y017011D01*
X016559Y017306D02*
X016511Y017402D01*
X016511Y017451D01*
X016559Y017499D01*
X016656Y017499D01*
X016704Y017451D01*
X016704Y017354D01*
X016656Y017306D01*
X016559Y017306D02*
X016414Y017306D01*
X016414Y017499D01*
X016981Y014111D02*
X017078Y014111D01*
X017029Y014111D02*
X017029Y013869D01*
X016981Y013820D01*
X016933Y013820D01*
X016884Y013869D01*
X017179Y013917D02*
X017324Y013917D01*
X017372Y013965D01*
X017372Y014062D01*
X017324Y014111D01*
X017179Y014111D01*
X017179Y013820D01*
X017474Y013869D02*
X017522Y013820D01*
X017619Y013820D01*
X017667Y013869D01*
X017667Y013917D01*
X017619Y013965D01*
X017570Y013965D01*
X017619Y013965D02*
X017667Y014014D01*
X017667Y014062D01*
X017619Y014111D01*
X017522Y014111D01*
X017474Y014062D01*
X016303Y012485D02*
X016110Y012485D01*
X016110Y012340D01*
X016207Y012388D01*
X016255Y012388D01*
X016303Y012340D01*
X016303Y012243D01*
X016255Y012195D01*
X016158Y012195D01*
X016110Y012243D01*
X016009Y012195D02*
X015815Y012195D01*
X015912Y012195D02*
X015912Y012485D01*
X015815Y012388D01*
X015714Y012437D02*
X015666Y012485D01*
X015569Y012485D01*
X015521Y012437D01*
X015521Y012243D01*
X015569Y012195D01*
X015666Y012195D01*
X015714Y012243D01*
X027414Y007691D02*
X027511Y007691D01*
X027463Y007691D02*
X027463Y007400D01*
X027511Y007400D02*
X027414Y007400D01*
X027611Y007449D02*
X027659Y007400D01*
X027756Y007400D01*
X027804Y007449D01*
X027905Y007449D02*
X027954Y007400D01*
X028051Y007400D01*
X028099Y007449D01*
X028099Y007497D01*
X028051Y007545D01*
X028002Y007545D01*
X028051Y007545D02*
X028099Y007594D01*
X028099Y007642D01*
X028051Y007691D01*
X027954Y007691D01*
X027905Y007642D01*
X027804Y007642D02*
X027756Y007691D01*
X027659Y007691D01*
X027611Y007642D01*
X027611Y007449D01*
X037575Y007571D02*
X037769Y007280D01*
X037870Y007280D02*
X038063Y007474D01*
X038063Y007522D01*
X038015Y007571D01*
X037918Y007571D01*
X037870Y007522D01*
X037769Y007571D02*
X037575Y007280D01*
X037870Y007280D02*
X038063Y007280D01*
X005114Y004453D02*
X005114Y004260D01*
X005114Y004356D02*
X004824Y004356D01*
X004921Y004260D01*
X004873Y004158D02*
X004969Y004158D01*
X005018Y004110D01*
X005018Y003965D01*
X005114Y003965D02*
X004824Y003965D01*
X004824Y004110D01*
X004873Y004158D01*
X004824Y003864D02*
X004824Y003767D01*
X004824Y003815D02*
X005066Y003815D01*
X005114Y003767D01*
X005114Y003719D01*
X005066Y003670D01*
D12*
X003649Y003085D02*
X003399Y003335D01*
X003399Y003835D01*
X003649Y004085D01*
X003399Y004335D01*
X003399Y004835D01*
X003649Y005085D01*
X004149Y005085D01*
X004399Y004835D01*
X004399Y004335D01*
X004149Y004085D01*
X004399Y003835D01*
X004399Y003335D01*
X004149Y003085D01*
X003649Y003085D01*
X003649Y004085D02*
X004149Y004085D01*
X004149Y005085D02*
X004399Y005335D01*
X004399Y005835D01*
X004149Y006085D01*
X004399Y006335D01*
X004399Y006835D01*
X004149Y007085D01*
X004399Y007335D01*
X004399Y007835D01*
X004149Y008085D01*
X003649Y008085D01*
X003399Y007835D01*
X003399Y007335D01*
X003649Y007085D01*
X004149Y007085D01*
X003649Y007085D02*
X003399Y006835D01*
X003399Y006335D01*
X003649Y006085D01*
X004149Y006085D01*
X003649Y006085D02*
X003399Y005835D01*
X003399Y005335D01*
X003649Y005085D01*
X003649Y008085D02*
X003399Y008335D01*
X003399Y008835D01*
X003649Y009085D01*
X003399Y009335D01*
X003399Y009835D01*
X003649Y010085D01*
X003399Y010335D01*
X003399Y010835D01*
X003649Y011085D01*
X004149Y011085D01*
X004399Y010835D01*
X004399Y010335D01*
X004149Y010085D01*
X004399Y009835D01*
X004399Y009335D01*
X004149Y009085D01*
X004399Y008835D01*
X004399Y008335D01*
X004149Y008085D01*
X004149Y009085D02*
X003649Y009085D01*
X003649Y010085D02*
X004149Y010085D01*
X004149Y012085D02*
X003649Y012085D01*
X003049Y012085D01*
X003049Y012435D01*
X002519Y012435D01*
X002519Y012085D01*
X003049Y012085D01*
X003649Y012085D02*
X003649Y012435D01*
X004149Y012435D01*
X004149Y012085D01*
X004749Y012085D01*
X005269Y012085D01*
X005269Y012435D01*
X005269Y013085D01*
X005269Y021085D01*
X005269Y021735D01*
X005269Y022075D01*
X004749Y022075D01*
X004149Y022075D01*
X003649Y022075D01*
X003049Y022075D01*
X002519Y022075D01*
X002519Y021735D01*
X002519Y021085D01*
X002519Y013085D01*
X002519Y012435D01*
X002519Y013085D02*
X000149Y013085D01*
X000449Y016085D01*
X000149Y017585D01*
X000899Y019585D01*
X000149Y021085D01*
X002519Y021085D01*
X002519Y021735D02*
X003049Y021735D01*
X003049Y022075D01*
X003649Y022075D02*
X003649Y021735D01*
X004149Y021735D01*
X004149Y022075D01*
X004749Y022075D02*
X004749Y021735D01*
X005269Y021735D01*
X005269Y021085D02*
X005539Y021085D01*
X005539Y013085D01*
X005269Y013085D01*
X005149Y013585D02*
X004819Y013415D01*
X004819Y013755D01*
X005149Y013585D01*
X005049Y013585D01*
X004619Y013026D02*
X004619Y012665D01*
X004619Y012845D02*
X004079Y012845D01*
X004259Y012665D01*
X004749Y012435D02*
X005269Y012435D01*
X004749Y012435D02*
X004749Y012085D01*
X007449Y010185D02*
X007449Y014485D01*
X007451Y014502D01*
X007455Y014519D01*
X007462Y014535D01*
X007472Y014549D01*
X007485Y014562D01*
X007499Y014572D01*
X007515Y014579D01*
X007532Y014583D01*
X007549Y014585D01*
X007949Y014585D01*
X008849Y014585D02*
X009249Y014585D01*
X009266Y014583D01*
X009283Y014579D01*
X009299Y014572D01*
X009313Y014562D01*
X009326Y014549D01*
X009336Y014535D01*
X009343Y014519D01*
X009347Y014502D01*
X009349Y014485D01*
X009349Y010185D01*
X009347Y010168D01*
X009343Y010151D01*
X009336Y010135D01*
X009326Y010121D01*
X009313Y010108D01*
X009299Y010098D01*
X009283Y010091D01*
X009266Y010087D01*
X009249Y010085D01*
X008849Y010085D01*
X007949Y010085D02*
X007549Y010085D01*
X007532Y010087D01*
X007515Y010091D01*
X007499Y010098D01*
X007485Y010108D01*
X007472Y010121D01*
X007462Y010135D01*
X007455Y010151D01*
X007451Y010168D01*
X007449Y010185D01*
X008149Y009085D02*
X007899Y008835D01*
X007899Y008335D01*
X008149Y008085D01*
X007899Y007835D01*
X007899Y007335D01*
X008149Y007085D01*
X008649Y007085D01*
X008899Y007335D01*
X008899Y007835D01*
X008649Y008085D01*
X008149Y008085D01*
X008649Y008085D02*
X008899Y008335D01*
X008899Y008835D01*
X008649Y009085D01*
X008149Y009085D01*
X008149Y007085D02*
X007899Y006835D01*
X007899Y006335D01*
X008149Y006085D01*
X007899Y005835D01*
X007899Y005335D01*
X008149Y005085D01*
X007899Y004835D01*
X007899Y004335D01*
X008149Y004085D01*
X007899Y003835D01*
X007899Y003335D01*
X008149Y003085D01*
X008649Y003085D01*
X008899Y003335D01*
X008899Y003835D01*
X008649Y004085D01*
X008149Y004085D01*
X008649Y004085D02*
X008899Y004335D01*
X008899Y004835D01*
X008649Y005085D01*
X008149Y005085D01*
X008649Y005085D02*
X008899Y005335D01*
X008899Y005835D01*
X008649Y006085D01*
X008149Y006085D01*
X008649Y006085D02*
X008899Y006335D01*
X008899Y006835D01*
X008649Y007085D01*
X011299Y004785D02*
X013499Y004785D01*
X013499Y019385D01*
X012649Y019385D01*
X012647Y019355D01*
X012642Y019325D01*
X012633Y019296D01*
X012620Y019269D01*
X012605Y019243D01*
X012586Y019219D01*
X012565Y019198D01*
X012541Y019179D01*
X012515Y019164D01*
X012488Y019151D01*
X012459Y019142D01*
X012429Y019137D01*
X012399Y019135D01*
X012369Y019137D01*
X012339Y019142D01*
X012310Y019151D01*
X012283Y019164D01*
X012257Y019179D01*
X012233Y019198D01*
X012212Y019219D01*
X012193Y019243D01*
X012178Y019269D01*
X012165Y019296D01*
X012156Y019325D01*
X012151Y019355D01*
X012149Y019385D01*
X011299Y019385D01*
X011299Y004785D01*
X021454Y005355D02*
X024354Y005355D01*
X024354Y009805D01*
X021454Y009805D01*
X021454Y005355D01*
X023784Y005745D02*
X023786Y005774D01*
X023792Y005802D01*
X023801Y005829D01*
X023815Y005854D01*
X023831Y005878D01*
X023851Y005898D01*
X023873Y005917D01*
X023897Y005931D01*
X023924Y005943D01*
X023951Y005951D01*
X023980Y005955D01*
X024008Y005955D01*
X024037Y005951D01*
X024064Y005943D01*
X024091Y005931D01*
X024115Y005917D01*
X024137Y005898D01*
X024157Y005878D01*
X024173Y005854D01*
X024187Y005829D01*
X024196Y005802D01*
X024202Y005774D01*
X024204Y005745D01*
X024202Y005716D01*
X024196Y005688D01*
X024187Y005661D01*
X024173Y005636D01*
X024157Y005612D01*
X024137Y005592D01*
X024115Y005573D01*
X024091Y005559D01*
X024064Y005547D01*
X024037Y005539D01*
X024008Y005535D01*
X023980Y005535D01*
X023951Y005539D01*
X023924Y005547D01*
X023897Y005559D01*
X023873Y005573D01*
X023851Y005592D01*
X023831Y005612D01*
X023815Y005636D01*
X023801Y005661D01*
X023792Y005688D01*
X023786Y005716D01*
X023784Y005745D01*
X025549Y008585D02*
X025949Y008585D01*
X025549Y008585D02*
X025532Y008587D01*
X025515Y008591D01*
X025499Y008598D01*
X025485Y008608D01*
X025472Y008621D01*
X025462Y008635D01*
X025455Y008651D01*
X025451Y008668D01*
X025449Y008685D01*
X025449Y012985D01*
X025451Y013002D01*
X025455Y013019D01*
X025462Y013035D01*
X025472Y013049D01*
X025485Y013062D01*
X025499Y013072D01*
X025515Y013079D01*
X025532Y013083D01*
X025549Y013085D01*
X025949Y013085D01*
X026849Y013085D02*
X027249Y013085D01*
X027266Y013083D01*
X027283Y013079D01*
X027299Y013072D01*
X027313Y013062D01*
X027326Y013049D01*
X027336Y013035D01*
X027343Y013019D01*
X027347Y013002D01*
X027349Y012985D01*
X027349Y008685D01*
X027347Y008668D01*
X027343Y008651D01*
X027336Y008635D01*
X027326Y008621D01*
X027313Y008608D01*
X027299Y008598D01*
X027283Y008591D01*
X027266Y008587D01*
X027249Y008585D01*
X026849Y008585D01*
X026649Y010585D02*
X026399Y010585D01*
X026149Y010585D01*
X026149Y010735D02*
X026649Y010735D01*
X026649Y010935D01*
X026149Y010935D01*
X026149Y010735D01*
X026149Y011085D02*
X026399Y011085D01*
X026649Y011085D01*
X030349Y011885D02*
X030349Y012485D01*
X030351Y012502D01*
X030355Y012519D01*
X030362Y012535D01*
X030372Y012549D01*
X030385Y012562D01*
X030399Y012572D01*
X030415Y012579D01*
X030432Y012583D01*
X030449Y012585D01*
X031549Y012585D01*
X031566Y012583D01*
X031583Y012579D01*
X031599Y012572D01*
X031613Y012562D01*
X031626Y012549D01*
X031636Y012535D01*
X031643Y012519D01*
X031647Y012502D01*
X031649Y012485D01*
X031649Y011885D01*
X031647Y011868D01*
X031643Y011851D01*
X031636Y011835D01*
X031626Y011821D01*
X031613Y011808D01*
X031599Y011798D01*
X031583Y011791D01*
X031566Y011787D01*
X031549Y011785D01*
X030449Y011785D01*
X030432Y011787D01*
X030415Y011791D01*
X030399Y011798D01*
X030385Y011808D01*
X030372Y011821D01*
X030362Y011835D01*
X030355Y011851D01*
X030351Y011868D01*
X030349Y011885D01*
X032649Y010135D02*
X032849Y010335D01*
X036899Y010335D01*
X036899Y009985D01*
X036899Y007985D01*
X036849Y007985D01*
X032849Y007985D01*
X032649Y008185D01*
X032649Y010135D01*
X033249Y009155D02*
X033251Y009205D01*
X033257Y009255D01*
X033267Y009305D01*
X033280Y009353D01*
X033297Y009401D01*
X033318Y009447D01*
X033342Y009491D01*
X033370Y009533D01*
X033401Y009573D01*
X033435Y009610D01*
X033472Y009645D01*
X033511Y009676D01*
X033552Y009705D01*
X033596Y009730D01*
X033642Y009752D01*
X033689Y009770D01*
X033737Y009784D01*
X033786Y009795D01*
X033836Y009802D01*
X033886Y009805D01*
X033937Y009804D01*
X033987Y009799D01*
X034037Y009790D01*
X034085Y009778D01*
X034133Y009761D01*
X034179Y009741D01*
X034224Y009718D01*
X034267Y009691D01*
X034307Y009661D01*
X034345Y009628D01*
X034380Y009592D01*
X034413Y009553D01*
X034442Y009512D01*
X034468Y009469D01*
X034491Y009424D01*
X034510Y009377D01*
X034525Y009329D01*
X034537Y009280D01*
X034545Y009230D01*
X034549Y009180D01*
X034549Y009130D01*
X034545Y009080D01*
X034537Y009030D01*
X034525Y008981D01*
X034510Y008933D01*
X034491Y008886D01*
X034468Y008841D01*
X034442Y008798D01*
X034413Y008757D01*
X034380Y008718D01*
X034345Y008682D01*
X034307Y008649D01*
X034267Y008619D01*
X034224Y008592D01*
X034179Y008569D01*
X034133Y008549D01*
X034085Y008532D01*
X034037Y008520D01*
X033987Y008511D01*
X033937Y008506D01*
X033886Y008505D01*
X033836Y008508D01*
X033786Y008515D01*
X033737Y008526D01*
X033689Y008540D01*
X033642Y008558D01*
X033596Y008580D01*
X033552Y008605D01*
X033511Y008634D01*
X033472Y008665D01*
X033435Y008700D01*
X033401Y008737D01*
X033370Y008777D01*
X033342Y008819D01*
X033318Y008863D01*
X033297Y008909D01*
X033280Y008957D01*
X033267Y009005D01*
X033257Y009055D01*
X033251Y009105D01*
X033249Y009155D01*
X036599Y010435D02*
X036899Y010435D01*
X036899Y010335D01*
X036899Y010435D02*
X036899Y017735D01*
X036599Y017735D01*
X036599Y010435D01*
X036899Y010285D02*
X036901Y010255D01*
X036906Y010225D01*
X036915Y010196D01*
X036928Y010169D01*
X036943Y010143D01*
X036962Y010119D01*
X036983Y010098D01*
X037007Y010079D01*
X037033Y010064D01*
X037060Y010051D01*
X037089Y010042D01*
X037119Y010037D01*
X037149Y010035D01*
X038099Y010035D01*
X038099Y009985D01*
X038299Y009985D01*
X038299Y008985D01*
X038299Y007985D01*
X038099Y007985D01*
X038099Y008985D01*
X037999Y008985D01*
X037999Y009985D01*
X038099Y009985D01*
X038099Y010035D02*
X038099Y018135D01*
X037149Y018135D01*
X037119Y018133D01*
X037089Y018128D01*
X037060Y018119D01*
X037033Y018106D01*
X037007Y018091D01*
X036983Y018072D01*
X036962Y018051D01*
X036943Y018027D01*
X036928Y018001D01*
X036915Y017974D01*
X036906Y017945D01*
X036901Y017915D01*
X036899Y017885D01*
X036899Y017835D02*
X032849Y017835D01*
X032649Y018035D01*
X032649Y019935D01*
X032899Y020185D01*
X036849Y020185D01*
X036849Y018185D01*
X036899Y018185D01*
X036899Y017835D01*
X036899Y017735D01*
X036899Y018185D02*
X036899Y020185D01*
X036849Y020185D01*
X036899Y020185D02*
X038099Y020185D01*
X038299Y020185D01*
X038299Y019185D01*
X038099Y019185D01*
X037999Y019185D01*
X037999Y018185D01*
X038099Y018185D01*
X038099Y018135D01*
X038099Y018185D02*
X038299Y018185D01*
X038299Y009985D01*
X038499Y010385D02*
X038501Y010415D01*
X038506Y010445D01*
X038515Y010474D01*
X038528Y010501D01*
X038543Y010527D01*
X038562Y010551D01*
X038583Y010572D01*
X038607Y010591D01*
X038633Y010606D01*
X038660Y010619D01*
X038689Y010628D01*
X038719Y010633D01*
X038749Y010635D01*
X040599Y010635D01*
X040599Y010785D02*
X038499Y010785D01*
X038499Y007985D01*
X038299Y007985D01*
X038099Y007985D02*
X036899Y007985D01*
X036849Y007985D02*
X036849Y009985D01*
X036899Y009985D01*
X038099Y008985D02*
X038299Y008985D01*
X038499Y010785D02*
X038499Y017385D01*
X038499Y020185D01*
X038299Y020185D01*
X038099Y020185D02*
X038099Y019185D01*
X038299Y019185D02*
X038299Y018185D01*
X038499Y017785D02*
X038501Y017755D01*
X038506Y017725D01*
X038515Y017696D01*
X038528Y017669D01*
X038543Y017643D01*
X038562Y017619D01*
X038583Y017598D01*
X038607Y017579D01*
X038633Y017564D01*
X038660Y017551D01*
X038689Y017542D01*
X038719Y017537D01*
X038749Y017535D01*
X040599Y017535D01*
X040599Y017385D02*
X038499Y017385D01*
X038699Y017235D02*
X040799Y017235D01*
X040799Y010935D01*
X040799Y010835D01*
X040799Y010935D02*
X038699Y010935D01*
X039399Y012085D02*
X040299Y012085D01*
X040299Y012235D01*
X039549Y012235D01*
X039549Y012835D01*
X040299Y012835D01*
X040299Y012985D01*
X039399Y012985D01*
X039399Y012085D01*
X040799Y010835D02*
X040797Y010809D01*
X040792Y010783D01*
X040784Y010758D01*
X040772Y010735D01*
X040758Y010713D01*
X040740Y010694D01*
X040721Y010676D01*
X040699Y010662D01*
X040676Y010650D01*
X040651Y010642D01*
X040625Y010637D01*
X040599Y010635D01*
X040299Y013635D02*
X039399Y013635D01*
X039399Y014535D01*
X040299Y014535D01*
X040299Y014385D01*
X039549Y014385D01*
X039549Y013785D01*
X040299Y013785D01*
X040299Y013635D01*
X040299Y015185D02*
X039399Y015185D01*
X039399Y016085D01*
X040299Y016085D01*
X040299Y015935D01*
X039549Y015935D01*
X039549Y015335D01*
X040299Y015335D01*
X040299Y015185D01*
X040799Y017235D02*
X040799Y017335D01*
X040797Y017361D01*
X040792Y017387D01*
X040784Y017412D01*
X040772Y017435D01*
X040758Y017457D01*
X040740Y017476D01*
X040721Y017494D01*
X040699Y017508D01*
X040676Y017520D01*
X040651Y017528D01*
X040625Y017533D01*
X040599Y017535D01*
X033249Y019015D02*
X033251Y019065D01*
X033257Y019115D01*
X033267Y019165D01*
X033280Y019213D01*
X033297Y019261D01*
X033318Y019307D01*
X033342Y019351D01*
X033370Y019393D01*
X033401Y019433D01*
X033435Y019470D01*
X033472Y019505D01*
X033511Y019536D01*
X033552Y019565D01*
X033596Y019590D01*
X033642Y019612D01*
X033689Y019630D01*
X033737Y019644D01*
X033786Y019655D01*
X033836Y019662D01*
X033886Y019665D01*
X033937Y019664D01*
X033987Y019659D01*
X034037Y019650D01*
X034085Y019638D01*
X034133Y019621D01*
X034179Y019601D01*
X034224Y019578D01*
X034267Y019551D01*
X034307Y019521D01*
X034345Y019488D01*
X034380Y019452D01*
X034413Y019413D01*
X034442Y019372D01*
X034468Y019329D01*
X034491Y019284D01*
X034510Y019237D01*
X034525Y019189D01*
X034537Y019140D01*
X034545Y019090D01*
X034549Y019040D01*
X034549Y018990D01*
X034545Y018940D01*
X034537Y018890D01*
X034525Y018841D01*
X034510Y018793D01*
X034491Y018746D01*
X034468Y018701D01*
X034442Y018658D01*
X034413Y018617D01*
X034380Y018578D01*
X034345Y018542D01*
X034307Y018509D01*
X034267Y018479D01*
X034224Y018452D01*
X034179Y018429D01*
X034133Y018409D01*
X034085Y018392D01*
X034037Y018380D01*
X033987Y018371D01*
X033937Y018366D01*
X033886Y018365D01*
X033836Y018368D01*
X033786Y018375D01*
X033737Y018386D01*
X033689Y018400D01*
X033642Y018418D01*
X033596Y018440D01*
X033552Y018465D01*
X033511Y018494D01*
X033472Y018525D01*
X033435Y018560D01*
X033401Y018597D01*
X033370Y018637D01*
X033342Y018679D01*
X033318Y018723D01*
X033297Y018769D01*
X033280Y018817D01*
X033267Y018865D01*
X033257Y018915D01*
X033251Y018965D01*
X033249Y019015D01*
X031907Y024518D02*
X025891Y024518D01*
X024407Y024518D02*
X018391Y024518D01*
X017149Y022085D02*
X016649Y022085D01*
X016399Y021835D01*
X016399Y021335D01*
X016649Y021085D01*
X017149Y021085D01*
X017399Y021335D01*
X017399Y021835D01*
X017149Y022085D01*
X016399Y021835D02*
X016149Y022085D01*
X015649Y022085D01*
X015399Y021835D01*
X015399Y021335D01*
X015649Y021085D01*
X016149Y021085D01*
X016399Y021335D01*
X015399Y021335D02*
X015149Y021085D01*
X014649Y021085D01*
X014399Y021335D01*
X014149Y021085D01*
X013649Y021085D01*
X013399Y021335D01*
X013149Y021085D01*
X012649Y021085D01*
X012399Y021335D01*
X012149Y021085D01*
X011649Y021085D01*
X011399Y021335D01*
X011399Y021835D01*
X011649Y022085D01*
X012149Y022085D01*
X012399Y021835D01*
X012649Y022085D01*
X013149Y022085D01*
X013399Y021835D01*
X013399Y021335D01*
X013399Y021835D02*
X013649Y022085D01*
X014149Y022085D01*
X014399Y021835D01*
X014649Y022085D01*
X015149Y022085D01*
X015399Y021835D01*
X014399Y021835D02*
X014399Y021335D01*
X012399Y021335D02*
X012399Y021835D01*
X010407Y022018D02*
X006391Y022018D01*
X016399Y015335D02*
X016649Y015585D01*
X017149Y015585D01*
X017399Y015335D01*
X017649Y015585D01*
X018149Y015585D01*
X018399Y015335D01*
X018399Y014835D01*
X018149Y014585D01*
X017649Y014585D01*
X017399Y014835D01*
X017149Y014585D01*
X016649Y014585D01*
X016399Y014835D01*
X016399Y015335D01*
X017399Y015335D02*
X017399Y014835D01*
X018399Y014835D02*
X018649Y014585D01*
X019149Y014585D01*
X019399Y014835D01*
X019649Y014585D01*
X020149Y014585D01*
X020399Y014835D01*
X020399Y015335D01*
X020149Y015585D01*
X019649Y015585D01*
X019399Y015335D01*
X019399Y014835D01*
X019399Y015335D02*
X019149Y015585D01*
X018649Y015585D01*
X018399Y015335D01*
X008649Y012585D02*
X008399Y012585D01*
X008149Y012585D01*
X008149Y012435D02*
X008149Y012235D01*
X008649Y012235D01*
X008649Y012435D01*
X008149Y012435D01*
X008149Y012085D02*
X008399Y012085D01*
X008649Y012085D01*
X030249Y005885D02*
X030249Y005285D01*
X030251Y005268D01*
X030255Y005251D01*
X030262Y005235D01*
X030272Y005221D01*
X030285Y005208D01*
X030299Y005198D01*
X030315Y005191D01*
X030332Y005187D01*
X030349Y005185D01*
X031449Y005185D01*
X031466Y005187D01*
X031483Y005191D01*
X031499Y005198D01*
X031513Y005208D01*
X031526Y005221D01*
X031536Y005235D01*
X031543Y005251D01*
X031547Y005268D01*
X031549Y005285D01*
X031549Y005885D01*
X031547Y005902D01*
X031543Y005919D01*
X031536Y005935D01*
X031526Y005949D01*
X031513Y005962D01*
X031499Y005972D01*
X031483Y005979D01*
X031466Y005983D01*
X031449Y005985D01*
X030349Y005985D01*
X030332Y005983D01*
X030315Y005979D01*
X030299Y005972D01*
X030285Y005962D01*
X030272Y005949D01*
X030262Y005935D01*
X030255Y005919D01*
X030251Y005902D01*
X030249Y005885D01*
X032749Y006135D02*
X032749Y005035D01*
X032751Y005018D01*
X032755Y005001D01*
X032762Y004985D01*
X032772Y004971D01*
X032785Y004958D01*
X032799Y004948D01*
X032815Y004941D01*
X032832Y004937D01*
X032849Y004935D01*
X033449Y004935D01*
X033466Y004937D01*
X033483Y004941D01*
X033499Y004948D01*
X033513Y004958D01*
X033526Y004971D01*
X033536Y004985D01*
X033543Y005001D01*
X033547Y005018D01*
X033549Y005035D01*
X033549Y006135D01*
X033547Y006152D01*
X033543Y006169D01*
X033536Y006185D01*
X033526Y006199D01*
X033513Y006212D01*
X033499Y006222D01*
X033483Y006229D01*
X033466Y006233D01*
X033449Y006235D01*
X032849Y006235D01*
X032832Y006233D01*
X032815Y006229D01*
X032799Y006222D01*
X032785Y006212D01*
X032772Y006199D01*
X032762Y006185D01*
X032755Y006169D01*
X032751Y006152D01*
X032749Y006135D01*
D13*
X004939Y013585D03*
D14*
X004864Y013510D03*
X004864Y013660D03*
D15*
X005019Y013585D03*
D16*
X002274Y013661D02*
X002124Y013510D01*
X002124Y013586D02*
X002124Y013360D01*
X002274Y013360D02*
X001824Y013360D01*
X001824Y013586D01*
X001899Y013661D01*
X002049Y013661D01*
X002124Y013586D01*
X002049Y013821D02*
X002049Y014121D01*
X001899Y014281D02*
X002199Y014281D01*
X002274Y014356D01*
X002274Y014506D01*
X002199Y014581D01*
X002199Y014741D02*
X002124Y014816D01*
X002124Y015042D01*
X002049Y015042D02*
X002274Y015042D01*
X002274Y014816D01*
X002199Y014741D01*
X001974Y014816D02*
X001974Y014967D01*
X002049Y015042D01*
X001974Y015202D02*
X001974Y015427D01*
X002049Y015502D01*
X002199Y015502D01*
X002274Y015427D01*
X002274Y015202D01*
X001824Y015202D01*
X001824Y015662D02*
X001824Y015737D01*
X002274Y015737D01*
X002274Y015662D02*
X002274Y015812D01*
X002199Y015969D02*
X002049Y015969D01*
X001974Y016044D01*
X001974Y016194D01*
X002049Y016269D01*
X002124Y016269D01*
X002124Y015969D01*
X002199Y015969D02*
X002274Y016044D01*
X002274Y016194D01*
X002274Y016890D02*
X002274Y017190D01*
X002274Y017040D02*
X001824Y017040D01*
X001974Y016890D01*
X002049Y017350D02*
X002049Y017575D01*
X002124Y017650D01*
X002199Y017650D01*
X002274Y017575D01*
X002274Y017425D01*
X002199Y017350D01*
X002049Y017350D01*
X001899Y017500D01*
X001824Y017650D01*
X001824Y017810D02*
X001824Y018036D01*
X001899Y018111D01*
X002049Y018111D01*
X002124Y018036D01*
X002124Y017810D01*
X002274Y017810D02*
X001824Y017810D01*
X001899Y014581D02*
X001824Y014506D01*
X001824Y014356D01*
X001899Y014281D01*
X031199Y015235D02*
X032149Y015235D01*
X033174Y016960D02*
X033399Y016960D01*
X033324Y017110D01*
X033324Y017186D01*
X033399Y017261D01*
X033549Y017261D01*
X033624Y017186D01*
X033624Y017035D01*
X033549Y016960D01*
X033174Y016960D02*
X033174Y017261D01*
X034174Y017186D02*
X034174Y017035D01*
X034249Y016960D01*
X034324Y016960D01*
X034399Y017035D01*
X034399Y017261D01*
X034549Y017261D02*
X034249Y017261D01*
X034174Y017186D01*
X034549Y017261D02*
X034624Y017186D01*
X034624Y017035D01*
X034549Y016960D01*
X031649Y013085D02*
X031649Y012935D01*
X031549Y012935D01*
X033624Y011411D02*
X033624Y011110D01*
X033624Y011260D02*
X033174Y011260D01*
X033324Y011110D01*
X034224Y011411D02*
X034299Y011260D01*
X034449Y011110D01*
X034449Y011336D01*
X034524Y011411D01*
X034599Y011411D01*
X034674Y011336D01*
X034674Y011185D01*
X034599Y011110D01*
X034449Y011110D01*
X037274Y011110D02*
X037424Y011260D01*
X037274Y011411D01*
X037724Y011411D01*
X037649Y011571D02*
X037724Y011646D01*
X037724Y011796D01*
X037649Y011871D01*
X037349Y011871D01*
X037649Y011571D01*
X037349Y011571D01*
X037274Y011646D01*
X037274Y011796D01*
X037349Y011871D01*
X037349Y012031D02*
X037424Y012031D01*
X037499Y012106D01*
X037499Y012331D01*
X037349Y012331D02*
X037274Y012256D01*
X037274Y012106D01*
X037349Y012031D01*
X037649Y012031D02*
X037724Y012106D01*
X037724Y012256D01*
X037649Y012331D01*
X037349Y012331D01*
X037274Y011110D02*
X037724Y011110D01*
X036389Y008711D02*
X036164Y008486D01*
X036464Y008486D01*
X036389Y008711D02*
X036389Y008260D01*
X036004Y008335D02*
X036004Y008486D01*
X035929Y008561D01*
X035854Y008561D01*
X035704Y008486D01*
X035704Y008711D01*
X036004Y008711D01*
X035237Y008636D02*
X035161Y008711D01*
X035011Y008711D01*
X034936Y008636D01*
X035237Y008636D02*
X035237Y008561D01*
X034936Y008260D01*
X035237Y008260D01*
X035397Y008110D02*
X035547Y008260D01*
X035472Y008260D01*
X035472Y008335D01*
X035547Y008335D01*
X035547Y008260D01*
X035704Y008335D02*
X035779Y008260D01*
X035929Y008260D01*
X036004Y008335D01*
D17*
X020840Y018849D03*
X020840Y019322D03*
X020840Y020099D03*
X020840Y020572D03*
X008840Y018822D03*
X008840Y018349D03*
X008958Y017322D03*
X008958Y016849D03*
X019208Y010072D03*
X019208Y009599D03*
X019208Y009072D03*
X019208Y008599D03*
D18*
X019208Y008835D03*
X019208Y009835D03*
X008958Y017085D03*
X008840Y018585D03*
X020840Y019085D03*
X020840Y020335D03*
D19*
X008908Y013685D02*
X008889Y013685D01*
X008890Y013685D02*
X008889Y013722D01*
X008884Y013759D01*
X008878Y013795D01*
X008868Y013830D01*
X008856Y013865D01*
X008841Y013899D01*
X008858Y013906D01*
X008858Y013907D01*
X008874Y013872D01*
X008886Y013836D01*
X008896Y013799D01*
X008903Y013762D01*
X008908Y013724D01*
X008909Y013685D01*
X008908Y013685D01*
X008907Y013724D01*
X008902Y013761D01*
X008895Y013799D01*
X008885Y013836D01*
X008873Y013872D01*
X008857Y013906D01*
X008856Y013906D01*
X008872Y013871D01*
X008884Y013835D01*
X008894Y013799D01*
X008901Y013761D01*
X008906Y013723D01*
X008907Y013685D01*
X008906Y013685D01*
X008905Y013723D01*
X008900Y013761D01*
X008893Y013798D01*
X008883Y013835D01*
X008871Y013871D01*
X008856Y013906D01*
X008855Y013905D01*
X008870Y013870D01*
X008882Y013835D01*
X008892Y013798D01*
X008899Y013761D01*
X008904Y013723D01*
X008905Y013685D01*
X008904Y013685D01*
X008903Y013723D01*
X008898Y013761D01*
X008891Y013798D01*
X008881Y013834D01*
X008869Y013870D01*
X008854Y013905D01*
X008853Y013904D01*
X008868Y013870D01*
X008880Y013834D01*
X008890Y013798D01*
X008897Y013761D01*
X008902Y013723D01*
X008903Y013685D01*
X008902Y013685D01*
X008901Y013723D01*
X008896Y013761D01*
X008889Y013797D01*
X008879Y013834D01*
X008867Y013869D01*
X008852Y013904D01*
X008851Y013903D01*
X008866Y013869D01*
X008879Y013834D01*
X008888Y013797D01*
X008895Y013760D01*
X008900Y013723D01*
X008901Y013685D01*
X008900Y013685D01*
X008899Y013723D01*
X008894Y013760D01*
X008887Y013797D01*
X008878Y013833D01*
X008865Y013869D01*
X008850Y013903D01*
X008849Y013903D01*
X008864Y013868D01*
X008877Y013833D01*
X008886Y013797D01*
X008893Y013760D01*
X008898Y013723D01*
X008899Y013685D01*
X008898Y013685D01*
X008897Y013723D01*
X008892Y013760D01*
X008885Y013797D01*
X008876Y013833D01*
X008863Y013868D01*
X008848Y013902D01*
X008847Y013902D01*
X008862Y013867D01*
X008875Y013832D01*
X008884Y013796D01*
X008891Y013760D01*
X008896Y013723D01*
X008897Y013685D01*
X008896Y013685D01*
X008895Y013723D01*
X008890Y013760D01*
X008883Y013796D01*
X008874Y013832D01*
X008861Y013867D01*
X008847Y013901D01*
X008846Y013901D01*
X008860Y013867D01*
X008873Y013832D01*
X008882Y013796D01*
X008889Y013759D01*
X008894Y013723D01*
X008895Y013685D01*
X008894Y013685D01*
X008893Y013723D01*
X008888Y013759D01*
X008881Y013796D01*
X008872Y013831D01*
X008860Y013866D01*
X008845Y013900D01*
X008844Y013900D01*
X008859Y013866D01*
X008871Y013831D01*
X008880Y013795D01*
X008887Y013759D01*
X008892Y013722D01*
X008893Y013685D01*
X008892Y013685D01*
X008891Y013722D01*
X008886Y013759D01*
X008880Y013795D01*
X008870Y013831D01*
X008858Y013866D01*
X008843Y013899D01*
X008842Y013899D01*
X008857Y013865D01*
X008869Y013831D01*
X008879Y013795D01*
X008885Y013759D01*
X008890Y013722D01*
X008891Y013685D01*
X007940Y013906D02*
X007957Y013898D01*
X007957Y013899D02*
X007942Y013865D01*
X007930Y013830D01*
X007920Y013795D01*
X007914Y013759D01*
X007909Y013722D01*
X007908Y013685D01*
X007890Y013685D01*
X007889Y013685D01*
X007890Y013724D01*
X007895Y013762D01*
X007902Y013799D01*
X007912Y013836D01*
X007924Y013872D01*
X007940Y013907D01*
X007941Y013906D01*
X007925Y013872D01*
X007913Y013836D01*
X007903Y013799D01*
X007896Y013761D01*
X007891Y013724D01*
X007890Y013685D01*
X007891Y013685D01*
X007892Y013723D01*
X007897Y013761D01*
X007904Y013799D01*
X007914Y013835D01*
X007926Y013871D01*
X007942Y013906D01*
X007927Y013871D01*
X007915Y013835D01*
X007905Y013798D01*
X007898Y013761D01*
X007893Y013723D01*
X007892Y013685D01*
X007893Y013685D01*
X007894Y013723D01*
X007899Y013761D01*
X007906Y013798D01*
X007916Y013835D01*
X007928Y013870D01*
X007943Y013905D01*
X007944Y013905D01*
X007929Y013870D01*
X007917Y013834D01*
X007907Y013798D01*
X007900Y013761D01*
X007895Y013723D01*
X007894Y013685D01*
X007895Y013685D01*
X007896Y013723D01*
X007901Y013761D01*
X007908Y013798D01*
X007918Y013834D01*
X007930Y013870D01*
X007945Y013904D01*
X007946Y013904D01*
X007931Y013869D01*
X007919Y013834D01*
X007909Y013797D01*
X007902Y013761D01*
X007897Y013723D01*
X007896Y013685D01*
X007897Y013685D01*
X007898Y013723D01*
X007903Y013760D01*
X007910Y013797D01*
X007919Y013834D01*
X007932Y013869D01*
X007947Y013903D01*
X007948Y013903D01*
X007933Y013869D01*
X007920Y013833D01*
X007911Y013797D01*
X007904Y013760D01*
X007899Y013723D01*
X007898Y013685D01*
X007899Y013685D01*
X007900Y013723D01*
X007905Y013760D01*
X007912Y013797D01*
X007921Y013833D01*
X007934Y013868D01*
X007949Y013903D01*
X007950Y013902D01*
X007935Y013868D01*
X007922Y013833D01*
X007913Y013797D01*
X007906Y013760D01*
X007901Y013723D01*
X007900Y013685D01*
X007901Y013685D01*
X007902Y013723D01*
X007907Y013760D01*
X007914Y013796D01*
X007923Y013832D01*
X007936Y013867D01*
X007951Y013902D01*
X007951Y013901D01*
X007937Y013867D01*
X007924Y013832D01*
X007915Y013796D01*
X007908Y013760D01*
X007903Y013723D01*
X007902Y013685D01*
X007903Y013685D01*
X007904Y013723D01*
X007909Y013759D01*
X007916Y013796D01*
X007925Y013832D01*
X007938Y013867D01*
X007952Y013901D01*
X007953Y013900D01*
X007938Y013866D01*
X007926Y013831D01*
X007917Y013796D01*
X007910Y013759D01*
X007905Y013723D01*
X007904Y013685D01*
X007905Y013685D01*
X007906Y013722D01*
X007911Y013759D01*
X007918Y013795D01*
X007927Y013831D01*
X007939Y013866D01*
X007954Y013900D01*
X007955Y013899D01*
X007940Y013866D01*
X007928Y013831D01*
X007918Y013795D01*
X007912Y013759D01*
X007907Y013722D01*
X007906Y013685D01*
X007907Y013685D01*
X007908Y013722D01*
X007913Y013759D01*
X007919Y013795D01*
X007929Y013831D01*
X007941Y013865D01*
X007956Y013899D01*
X007943Y014354D02*
X007954Y014338D01*
X007954Y014339D02*
X007909Y014306D01*
X007867Y014271D01*
X007828Y014232D01*
X007791Y014192D01*
X007758Y014148D01*
X007727Y014103D01*
X007700Y014055D01*
X007676Y014006D01*
X007655Y013955D01*
X007638Y013902D01*
X007625Y013849D01*
X007616Y013795D01*
X007610Y013740D01*
X007608Y013685D01*
X007590Y013685D01*
X007589Y013685D01*
X007591Y013742D01*
X007597Y013798D01*
X007607Y013853D01*
X007620Y013908D01*
X007638Y013961D01*
X007658Y014013D01*
X007683Y014064D01*
X007711Y014113D01*
X007742Y014159D01*
X007777Y014204D01*
X007814Y014246D01*
X007855Y014285D01*
X007898Y014321D01*
X007943Y014354D01*
X007944Y014354D01*
X007898Y014320D01*
X007855Y014284D01*
X007815Y014245D01*
X007778Y014203D01*
X007743Y014159D01*
X007712Y014112D01*
X007684Y014063D01*
X007659Y014013D01*
X007638Y013961D01*
X007621Y013907D01*
X007608Y013853D01*
X007598Y013797D01*
X007592Y013742D01*
X007590Y013685D01*
X007591Y013685D01*
X007593Y013742D01*
X007599Y013797D01*
X007609Y013853D01*
X007622Y013907D01*
X007639Y013960D01*
X007660Y014012D01*
X007685Y014063D01*
X007713Y014112D01*
X007744Y014158D01*
X007778Y014202D01*
X007816Y014244D01*
X007856Y014283D01*
X007899Y014320D01*
X007944Y014353D01*
X007945Y014352D01*
X007899Y014319D01*
X007857Y014283D01*
X007817Y014244D01*
X007779Y014202D01*
X007745Y014158D01*
X007714Y014111D01*
X007686Y014062D01*
X007661Y014012D01*
X007640Y013960D01*
X007623Y013907D01*
X007610Y013852D01*
X007600Y013797D01*
X007594Y013741D01*
X007592Y013685D01*
X007593Y013685D01*
X007595Y013741D01*
X007601Y013797D01*
X007611Y013852D01*
X007624Y013906D01*
X007641Y013960D01*
X007662Y014012D01*
X007687Y014062D01*
X007714Y014110D01*
X007746Y014157D01*
X007780Y014201D01*
X007817Y014243D01*
X007857Y014282D01*
X007900Y014318D01*
X007945Y014351D01*
X007946Y014350D01*
X007901Y014317D01*
X007858Y014281D01*
X007818Y014242D01*
X007781Y014201D01*
X007746Y014156D01*
X007715Y014110D01*
X007687Y014062D01*
X007663Y014011D01*
X007642Y013959D01*
X007625Y013906D01*
X007612Y013852D01*
X007602Y013797D01*
X007596Y013741D01*
X007594Y013685D01*
X007595Y013685D01*
X007597Y013741D01*
X007603Y013797D01*
X007612Y013852D01*
X007626Y013906D01*
X007643Y013959D01*
X007664Y014011D01*
X007688Y014061D01*
X007716Y014109D01*
X007747Y014156D01*
X007781Y014200D01*
X007819Y014241D01*
X007859Y014280D01*
X007901Y014316D01*
X007946Y014349D01*
X007947Y014349D01*
X007902Y014316D01*
X007859Y014280D01*
X007819Y014241D01*
X007782Y014199D01*
X007748Y014155D01*
X007717Y014109D01*
X007689Y014061D01*
X007665Y014010D01*
X007644Y013959D01*
X007627Y013906D01*
X007613Y013852D01*
X007604Y013797D01*
X007598Y013741D01*
X007596Y013685D01*
X007597Y013685D01*
X007599Y013741D01*
X007605Y013797D01*
X007614Y013851D01*
X007628Y013905D01*
X007645Y013958D01*
X007666Y014010D01*
X007690Y014060D01*
X007718Y014108D01*
X007749Y014155D01*
X007783Y014199D01*
X007820Y014240D01*
X007860Y014279D01*
X007903Y014315D01*
X007947Y014348D01*
X007948Y014347D01*
X007903Y014314D01*
X007861Y014278D01*
X007821Y014239D01*
X007784Y014198D01*
X007750Y014154D01*
X007719Y014108D01*
X007691Y014060D01*
X007667Y014010D01*
X007646Y013958D01*
X007629Y013905D01*
X007615Y013851D01*
X007606Y013796D01*
X007600Y013741D01*
X007598Y013685D01*
X007599Y013685D01*
X007601Y013741D01*
X007607Y013796D01*
X007616Y013851D01*
X007630Y013905D01*
X007647Y013958D01*
X007668Y014009D01*
X007692Y014059D01*
X007720Y014107D01*
X007751Y014153D01*
X007785Y014197D01*
X007822Y014239D01*
X007861Y014277D01*
X007904Y014313D01*
X007949Y014346D01*
X007949Y014345D01*
X007904Y014313D01*
X007862Y014277D01*
X007822Y014238D01*
X007785Y014197D01*
X007751Y014153D01*
X007720Y014107D01*
X007693Y014059D01*
X007669Y014009D01*
X007648Y013957D01*
X007631Y013905D01*
X007617Y013851D01*
X007608Y013796D01*
X007602Y013741D01*
X007600Y013685D01*
X007601Y013685D01*
X007603Y013741D01*
X007609Y013796D01*
X007618Y013851D01*
X007632Y013904D01*
X007649Y013957D01*
X007669Y014008D01*
X007694Y014058D01*
X007721Y014106D01*
X007752Y014152D01*
X007786Y014196D01*
X007823Y014237D01*
X007863Y014276D01*
X007905Y014312D01*
X007950Y014345D01*
X007950Y014344D01*
X007906Y014311D01*
X007863Y014275D01*
X007824Y014237D01*
X007787Y014195D01*
X007753Y014152D01*
X007722Y014106D01*
X007695Y014058D01*
X007670Y014008D01*
X007650Y013957D01*
X007633Y013904D01*
X007619Y013850D01*
X007610Y013796D01*
X007604Y013741D01*
X007602Y013685D01*
X007603Y013685D01*
X007605Y013741D01*
X007611Y013796D01*
X007620Y013850D01*
X007634Y013904D01*
X007651Y013956D01*
X007671Y014008D01*
X007695Y014057D01*
X007723Y014105D01*
X007754Y014151D01*
X007788Y014195D01*
X007824Y014236D01*
X007864Y014274D01*
X007906Y014310D01*
X007951Y014343D01*
X007951Y014342D01*
X007907Y014309D01*
X007865Y014274D01*
X007825Y014235D01*
X007788Y014194D01*
X007755Y014151D01*
X007724Y014105D01*
X007696Y014057D01*
X007672Y014007D01*
X007652Y013956D01*
X007635Y013903D01*
X007621Y013850D01*
X007612Y013796D01*
X007606Y013741D01*
X007604Y013685D01*
X007605Y013685D01*
X007607Y013741D01*
X007613Y013795D01*
X007622Y013850D01*
X007636Y013903D01*
X007653Y013956D01*
X007673Y014007D01*
X007697Y014056D01*
X007725Y014104D01*
X007755Y014150D01*
X007789Y014193D01*
X007826Y014235D01*
X007865Y014273D01*
X007908Y014309D01*
X007952Y014341D01*
X007953Y014340D01*
X007908Y014308D01*
X007866Y014272D01*
X007827Y014234D01*
X007790Y014193D01*
X007756Y014149D01*
X007726Y014104D01*
X007698Y014056D01*
X007674Y014006D01*
X007653Y013955D01*
X007637Y013903D01*
X007623Y013849D01*
X007614Y013795D01*
X007608Y013741D01*
X007606Y013685D01*
X007607Y013685D01*
X007609Y013740D01*
X007615Y013795D01*
X007624Y013849D01*
X007637Y013903D01*
X007654Y013955D01*
X007675Y014006D01*
X007699Y014055D01*
X007726Y014103D01*
X007757Y014149D01*
X007791Y014192D01*
X007827Y014233D01*
X007867Y014272D01*
X007909Y014307D01*
X007953Y014340D01*
X009208Y013685D02*
X009189Y013685D01*
X009190Y013686D02*
X009188Y013740D01*
X009182Y013795D01*
X009173Y013849D01*
X009160Y013902D01*
X009143Y013955D01*
X009122Y014006D01*
X009098Y014055D01*
X009071Y014103D01*
X009040Y014148D01*
X009007Y014192D01*
X008970Y014233D01*
X008931Y014271D01*
X008889Y014306D01*
X008844Y014339D01*
X008855Y014354D01*
X008900Y014321D01*
X008943Y014285D01*
X008984Y014246D01*
X009021Y014204D01*
X009056Y014159D01*
X009087Y014113D01*
X009115Y014064D01*
X009139Y014013D01*
X009160Y013961D01*
X009178Y013908D01*
X009191Y013853D01*
X009201Y013798D01*
X009207Y013742D01*
X009209Y013686D01*
X009208Y013686D01*
X009206Y013742D01*
X009200Y013798D01*
X009190Y013853D01*
X009177Y013907D01*
X009160Y013961D01*
X009139Y014013D01*
X009114Y014063D01*
X009086Y014112D01*
X009055Y014159D01*
X009020Y014203D01*
X008983Y014245D01*
X008943Y014284D01*
X008900Y014320D01*
X008854Y014354D01*
X008854Y014353D01*
X008899Y014320D01*
X008942Y014283D01*
X008982Y014244D01*
X009020Y014202D01*
X009054Y014158D01*
X009085Y014112D01*
X009113Y014063D01*
X009138Y014012D01*
X009159Y013960D01*
X009176Y013907D01*
X009189Y013853D01*
X009199Y013797D01*
X009205Y013742D01*
X009207Y013686D01*
X009206Y013686D01*
X009204Y013742D01*
X009198Y013797D01*
X009188Y013852D01*
X009175Y013907D01*
X009158Y013960D01*
X009137Y014012D01*
X009112Y014062D01*
X009084Y014111D01*
X009053Y014158D01*
X009019Y014202D01*
X008981Y014244D01*
X008941Y014283D01*
X008899Y014319D01*
X008853Y014352D01*
X008853Y014351D01*
X008898Y014318D01*
X008941Y014282D01*
X008981Y014243D01*
X009018Y014201D01*
X009052Y014157D01*
X009084Y014111D01*
X009111Y014062D01*
X009136Y014012D01*
X009157Y013960D01*
X009174Y013907D01*
X009187Y013852D01*
X009197Y013797D01*
X009203Y013741D01*
X009205Y013686D01*
X009204Y013686D01*
X009202Y013741D01*
X009196Y013797D01*
X009186Y013852D01*
X009173Y013906D01*
X009156Y013959D01*
X009135Y014011D01*
X009111Y014062D01*
X009083Y014110D01*
X009052Y014156D01*
X009017Y014201D01*
X008980Y014242D01*
X008940Y014281D01*
X008897Y014317D01*
X008852Y014350D01*
X008852Y014349D01*
X008897Y014316D01*
X008939Y014280D01*
X008979Y014242D01*
X009016Y014200D01*
X009051Y014156D01*
X009082Y014109D01*
X009110Y014061D01*
X009134Y014011D01*
X009155Y013959D01*
X009172Y013906D01*
X009186Y013852D01*
X009195Y013797D01*
X009201Y013741D01*
X009203Y013686D01*
X009202Y013686D01*
X009200Y013741D01*
X009194Y013797D01*
X009185Y013852D01*
X009171Y013906D01*
X009154Y013959D01*
X009133Y014010D01*
X009109Y014061D01*
X009081Y014109D01*
X009050Y014155D01*
X009016Y014199D01*
X008979Y014241D01*
X008939Y014280D01*
X008896Y014316D01*
X008851Y014349D01*
X008851Y014348D01*
X008895Y014315D01*
X008938Y014279D01*
X008978Y014240D01*
X009015Y014199D01*
X009049Y014155D01*
X009080Y014108D01*
X009108Y014060D01*
X009132Y014010D01*
X009153Y013958D01*
X009170Y013905D01*
X009184Y013851D01*
X009193Y013797D01*
X009199Y013741D01*
X009201Y013686D01*
X009200Y013686D01*
X009198Y013741D01*
X009192Y013796D01*
X009183Y013851D01*
X009169Y013905D01*
X009152Y013958D01*
X009131Y014010D01*
X009107Y014060D01*
X009079Y014108D01*
X009048Y014154D01*
X009014Y014198D01*
X008977Y014239D01*
X008937Y014278D01*
X008895Y014314D01*
X008850Y014347D01*
X008849Y014346D01*
X008894Y014313D01*
X008937Y014277D01*
X008976Y014239D01*
X009013Y014197D01*
X009047Y014153D01*
X009078Y014107D01*
X009106Y014059D01*
X009130Y014009D01*
X009151Y013958D01*
X009168Y013905D01*
X009182Y013851D01*
X009191Y013796D01*
X009197Y013741D01*
X009199Y013686D01*
X009198Y013686D01*
X009196Y013741D01*
X009190Y013796D01*
X009181Y013851D01*
X009167Y013905D01*
X009150Y013957D01*
X009129Y014009D01*
X009105Y014059D01*
X009078Y014107D01*
X009047Y014153D01*
X009013Y014197D01*
X008976Y014238D01*
X008936Y014277D01*
X008894Y014313D01*
X008849Y014345D01*
X008848Y014345D01*
X008893Y014312D01*
X008935Y014276D01*
X008975Y014237D01*
X009012Y014196D01*
X009046Y014152D01*
X009077Y014106D01*
X009104Y014058D01*
X009129Y014008D01*
X009149Y013957D01*
X009166Y013904D01*
X009180Y013851D01*
X009189Y013796D01*
X009195Y013741D01*
X009197Y013686D01*
X009196Y013686D01*
X009194Y013741D01*
X009188Y013796D01*
X009179Y013850D01*
X009165Y013904D01*
X009148Y013957D01*
X009128Y014008D01*
X009103Y014058D01*
X009076Y014106D01*
X009045Y014152D01*
X009011Y014195D01*
X008974Y014237D01*
X008935Y014275D01*
X008892Y014311D01*
X008848Y014344D01*
X008847Y014343D01*
X008892Y014310D01*
X008934Y014274D01*
X008974Y014236D01*
X009010Y014195D01*
X009044Y014151D01*
X009075Y014105D01*
X009103Y014057D01*
X009127Y014008D01*
X009147Y013956D01*
X009164Y013904D01*
X009178Y013850D01*
X009187Y013796D01*
X009193Y013741D01*
X009195Y013686D01*
X009194Y013686D01*
X009192Y013741D01*
X009186Y013796D01*
X009177Y013850D01*
X009163Y013904D01*
X009146Y013956D01*
X009126Y014007D01*
X009102Y014057D01*
X009074Y014105D01*
X009043Y014151D01*
X009010Y014194D01*
X008973Y014235D01*
X008933Y014274D01*
X008891Y014309D01*
X008847Y014342D01*
X008846Y014341D01*
X008890Y014309D01*
X008933Y014273D01*
X008972Y014235D01*
X009009Y014193D01*
X009043Y014150D01*
X009073Y014104D01*
X009101Y014056D01*
X009125Y014007D01*
X009145Y013956D01*
X009162Y013903D01*
X009176Y013850D01*
X009185Y013795D01*
X009191Y013741D01*
X009193Y013686D01*
X009192Y013686D01*
X009190Y013741D01*
X009184Y013795D01*
X009175Y013850D01*
X009161Y013903D01*
X009145Y013955D01*
X009124Y014006D01*
X009100Y014056D01*
X009072Y014104D01*
X009042Y014149D01*
X009008Y014193D01*
X008971Y014234D01*
X008932Y014272D01*
X008890Y014308D01*
X008845Y014340D01*
X008889Y014307D01*
X008931Y014272D01*
X008971Y014233D01*
X009007Y014192D01*
X009041Y014149D01*
X009072Y014103D01*
X009099Y014055D01*
X009123Y014006D01*
X009144Y013955D01*
X009160Y013903D01*
X009174Y013849D01*
X009183Y013795D01*
X009189Y013740D01*
X009191Y013686D01*
X007590Y010985D02*
X007609Y010985D01*
X007608Y010984D02*
X007610Y010930D01*
X007616Y010875D01*
X007625Y010821D01*
X007638Y010768D01*
X007655Y010715D01*
X007676Y010664D01*
X007700Y010615D01*
X007727Y010567D01*
X007758Y010522D01*
X007792Y010478D01*
X007828Y010437D01*
X007867Y010399D01*
X007909Y010364D01*
X007954Y010331D01*
X007943Y010316D01*
X007898Y010349D01*
X007855Y010385D01*
X007814Y010424D01*
X007777Y010466D01*
X007742Y010511D01*
X007711Y010557D01*
X007683Y010606D01*
X007659Y010657D01*
X007638Y010709D01*
X007620Y010762D01*
X007607Y010817D01*
X007597Y010872D01*
X007591Y010928D01*
X007589Y010984D01*
X007590Y010984D01*
X007592Y010928D01*
X007598Y010872D01*
X007608Y010817D01*
X007621Y010763D01*
X007638Y010709D01*
X007659Y010657D01*
X007684Y010607D01*
X007712Y010558D01*
X007743Y010511D01*
X007778Y010467D01*
X007815Y010425D01*
X007855Y010386D01*
X007898Y010350D01*
X007944Y010316D01*
X007944Y010317D01*
X007899Y010350D01*
X007856Y010387D01*
X007816Y010426D01*
X007778Y010468D01*
X007744Y010512D01*
X007713Y010558D01*
X007685Y010607D01*
X007660Y010658D01*
X007639Y010710D01*
X007622Y010763D01*
X007609Y010817D01*
X007599Y010873D01*
X007593Y010928D01*
X007591Y010984D01*
X007592Y010984D01*
X007594Y010928D01*
X007600Y010873D01*
X007610Y010818D01*
X007623Y010763D01*
X007640Y010710D01*
X007661Y010658D01*
X007686Y010608D01*
X007714Y010559D01*
X007745Y010512D01*
X007779Y010468D01*
X007817Y010426D01*
X007857Y010387D01*
X007900Y010351D01*
X007945Y010318D01*
X007945Y010319D01*
X007900Y010352D01*
X007857Y010388D01*
X007817Y010427D01*
X007780Y010469D01*
X007746Y010513D01*
X007714Y010559D01*
X007687Y010608D01*
X007662Y010658D01*
X007641Y010710D01*
X007624Y010763D01*
X007611Y010818D01*
X007601Y010873D01*
X007595Y010929D01*
X007593Y010984D01*
X007594Y010984D01*
X007596Y010929D01*
X007602Y010873D01*
X007612Y010818D01*
X007625Y010764D01*
X007642Y010711D01*
X007663Y010659D01*
X007687Y010608D01*
X007715Y010560D01*
X007746Y010514D01*
X007781Y010469D01*
X007818Y010428D01*
X007858Y010389D01*
X007901Y010353D01*
X007946Y010320D01*
X007946Y010321D01*
X007901Y010354D01*
X007859Y010390D01*
X007819Y010428D01*
X007782Y010470D01*
X007747Y010514D01*
X007716Y010561D01*
X007688Y010609D01*
X007664Y010659D01*
X007643Y010711D01*
X007626Y010764D01*
X007612Y010818D01*
X007603Y010873D01*
X007597Y010929D01*
X007595Y010984D01*
X007596Y010984D01*
X007598Y010929D01*
X007604Y010873D01*
X007613Y010818D01*
X007627Y010764D01*
X007644Y010711D01*
X007665Y010660D01*
X007689Y010609D01*
X007717Y010561D01*
X007748Y010515D01*
X007782Y010471D01*
X007819Y010429D01*
X007859Y010390D01*
X007902Y010354D01*
X007947Y010321D01*
X007947Y010322D01*
X007903Y010355D01*
X007860Y010391D01*
X007820Y010430D01*
X007783Y010471D01*
X007749Y010515D01*
X007718Y010562D01*
X007690Y010610D01*
X007666Y010660D01*
X007645Y010712D01*
X007628Y010765D01*
X007614Y010819D01*
X007605Y010873D01*
X007599Y010929D01*
X007597Y010984D01*
X007598Y010984D01*
X007600Y010929D01*
X007606Y010874D01*
X007615Y010819D01*
X007629Y010765D01*
X007646Y010712D01*
X007667Y010660D01*
X007691Y010610D01*
X007719Y010562D01*
X007750Y010516D01*
X007784Y010472D01*
X007821Y010431D01*
X007861Y010392D01*
X007903Y010356D01*
X007948Y010323D01*
X007949Y010324D01*
X007904Y010357D01*
X007861Y010393D01*
X007822Y010431D01*
X007785Y010473D01*
X007751Y010517D01*
X007720Y010563D01*
X007692Y010611D01*
X007668Y010661D01*
X007647Y010712D01*
X007630Y010765D01*
X007616Y010819D01*
X007607Y010874D01*
X007601Y010929D01*
X007599Y010984D01*
X007600Y010984D01*
X007602Y010929D01*
X007608Y010874D01*
X007617Y010819D01*
X007631Y010765D01*
X007648Y010713D01*
X007669Y010661D01*
X007693Y010611D01*
X007720Y010563D01*
X007751Y010517D01*
X007785Y010473D01*
X007822Y010432D01*
X007862Y010393D01*
X007904Y010357D01*
X007949Y010325D01*
X007950Y010325D01*
X007905Y010358D01*
X007863Y010394D01*
X007823Y010433D01*
X007786Y010474D01*
X007752Y010518D01*
X007721Y010564D01*
X007694Y010612D01*
X007669Y010662D01*
X007649Y010713D01*
X007632Y010766D01*
X007618Y010819D01*
X007609Y010874D01*
X007603Y010929D01*
X007601Y010984D01*
X007602Y010984D01*
X007604Y010929D01*
X007610Y010874D01*
X007619Y010820D01*
X007633Y010766D01*
X007650Y010713D01*
X007670Y010662D01*
X007695Y010612D01*
X007722Y010564D01*
X007753Y010518D01*
X007787Y010475D01*
X007824Y010433D01*
X007863Y010395D01*
X007906Y010359D01*
X007950Y010326D01*
X007951Y010327D01*
X007906Y010360D01*
X007864Y010395D01*
X007825Y010434D01*
X007788Y010475D01*
X007754Y010519D01*
X007723Y010565D01*
X007695Y010613D01*
X007671Y010662D01*
X007651Y010714D01*
X007634Y010766D01*
X007620Y010820D01*
X007611Y010874D01*
X007605Y010929D01*
X007603Y010984D01*
X007604Y010984D01*
X007606Y010929D01*
X007612Y010874D01*
X007621Y010820D01*
X007635Y010766D01*
X007652Y010714D01*
X007672Y010663D01*
X007696Y010613D01*
X007724Y010565D01*
X007755Y010519D01*
X007788Y010476D01*
X007825Y010435D01*
X007865Y010396D01*
X007907Y010361D01*
X007951Y010328D01*
X007952Y010329D01*
X007908Y010361D01*
X007865Y010397D01*
X007826Y010435D01*
X007789Y010476D01*
X007755Y010520D01*
X007725Y010566D01*
X007697Y010614D01*
X007673Y010663D01*
X007653Y010714D01*
X007636Y010767D01*
X007622Y010820D01*
X007613Y010875D01*
X007607Y010929D01*
X007605Y010984D01*
X007606Y010984D01*
X007608Y010929D01*
X007614Y010875D01*
X007623Y010820D01*
X007637Y010767D01*
X007654Y010715D01*
X007674Y010664D01*
X007698Y010614D01*
X007726Y010566D01*
X007756Y010521D01*
X007790Y010477D01*
X007827Y010436D01*
X007866Y010398D01*
X007908Y010362D01*
X007953Y010330D01*
X007909Y010363D01*
X007867Y010398D01*
X007827Y010437D01*
X007791Y010478D01*
X007757Y010521D01*
X007726Y010567D01*
X007699Y010615D01*
X007675Y010664D01*
X007654Y010715D01*
X007638Y010767D01*
X007624Y010821D01*
X007615Y010875D01*
X007609Y010930D01*
X007607Y010984D01*
X008858Y010764D02*
X008841Y010772D01*
X008841Y010771D02*
X008856Y010805D01*
X008868Y010840D01*
X008878Y010875D01*
X008884Y010911D01*
X008889Y010948D01*
X008890Y010985D01*
X008908Y010985D01*
X008909Y010985D01*
X008908Y010946D01*
X008903Y010908D01*
X008896Y010871D01*
X008886Y010834D01*
X008874Y010798D01*
X008858Y010763D01*
X008857Y010764D01*
X008873Y010798D01*
X008885Y010834D01*
X008895Y010871D01*
X008902Y010909D01*
X008907Y010946D01*
X008908Y010985D01*
X008907Y010985D01*
X008906Y010947D01*
X008901Y010909D01*
X008894Y010871D01*
X008884Y010835D01*
X008872Y010799D01*
X008856Y010764D01*
X008871Y010799D01*
X008883Y010835D01*
X008893Y010872D01*
X008900Y010909D01*
X008905Y010947D01*
X008906Y010985D01*
X008905Y010985D01*
X008904Y010947D01*
X008899Y010909D01*
X008892Y010872D01*
X008882Y010835D01*
X008870Y010800D01*
X008855Y010765D01*
X008854Y010765D01*
X008869Y010800D01*
X008881Y010836D01*
X008891Y010872D01*
X008898Y010909D01*
X008903Y010947D01*
X008904Y010985D01*
X008903Y010985D01*
X008902Y010947D01*
X008897Y010909D01*
X008890Y010872D01*
X008880Y010836D01*
X008868Y010800D01*
X008853Y010766D01*
X008852Y010766D01*
X008867Y010801D01*
X008879Y010836D01*
X008889Y010873D01*
X008896Y010909D01*
X008901Y010947D01*
X008902Y010985D01*
X008901Y010985D01*
X008900Y010947D01*
X008895Y010910D01*
X008888Y010873D01*
X008879Y010836D01*
X008866Y010801D01*
X008851Y010767D01*
X008850Y010767D01*
X008865Y010801D01*
X008878Y010837D01*
X008887Y010873D01*
X008894Y010910D01*
X008899Y010947D01*
X008900Y010985D01*
X008899Y010985D01*
X008898Y010947D01*
X008893Y010910D01*
X008886Y010873D01*
X008877Y010837D01*
X008864Y010802D01*
X008849Y010767D01*
X008848Y010768D01*
X008863Y010802D01*
X008876Y010837D01*
X008885Y010873D01*
X008892Y010910D01*
X008897Y010947D01*
X008898Y010985D01*
X008897Y010985D01*
X008896Y010947D01*
X008891Y010910D01*
X008884Y010874D01*
X008875Y010838D01*
X008862Y010803D01*
X008847Y010768D01*
X008847Y010769D01*
X008861Y010803D01*
X008874Y010838D01*
X008883Y010874D01*
X008890Y010910D01*
X008895Y010947D01*
X008896Y010985D01*
X008895Y010985D01*
X008894Y010947D01*
X008889Y010911D01*
X008882Y010874D01*
X008873Y010838D01*
X008860Y010803D01*
X008846Y010769D01*
X008845Y010770D01*
X008860Y010804D01*
X008872Y010839D01*
X008881Y010874D01*
X008888Y010911D01*
X008893Y010947D01*
X008894Y010985D01*
X008893Y010985D01*
X008892Y010948D01*
X008887Y010911D01*
X008880Y010875D01*
X008871Y010839D01*
X008859Y010804D01*
X008844Y010770D01*
X008843Y010771D01*
X008858Y010804D01*
X008870Y010839D01*
X008880Y010875D01*
X008886Y010911D01*
X008891Y010948D01*
X008892Y010985D01*
X008891Y010985D01*
X008890Y010948D01*
X008885Y010911D01*
X008879Y010875D01*
X008869Y010839D01*
X008857Y010805D01*
X008842Y010771D01*
X007890Y010985D02*
X007909Y010985D01*
X007908Y010985D02*
X007909Y010948D01*
X007914Y010911D01*
X007920Y010875D01*
X007930Y010840D01*
X007942Y010805D01*
X007957Y010771D01*
X007940Y010764D01*
X007940Y010763D01*
X007924Y010798D01*
X007912Y010834D01*
X007902Y010871D01*
X007895Y010908D01*
X007890Y010946D01*
X007889Y010985D01*
X007890Y010985D01*
X007891Y010946D01*
X007896Y010909D01*
X007903Y010871D01*
X007913Y010834D01*
X007925Y010798D01*
X007941Y010764D01*
X007942Y010764D01*
X007926Y010799D01*
X007914Y010835D01*
X007904Y010871D01*
X007897Y010909D01*
X007892Y010947D01*
X007891Y010985D01*
X007892Y010985D01*
X007893Y010947D01*
X007898Y010909D01*
X007905Y010872D01*
X007915Y010835D01*
X007927Y010799D01*
X007942Y010764D01*
X007943Y010765D01*
X007928Y010800D01*
X007916Y010835D01*
X007906Y010872D01*
X007899Y010909D01*
X007894Y010947D01*
X007893Y010985D01*
X007894Y010985D01*
X007895Y010947D01*
X007900Y010909D01*
X007907Y010872D01*
X007917Y010836D01*
X007929Y010800D01*
X007944Y010765D01*
X007945Y010766D01*
X007930Y010800D01*
X007918Y010836D01*
X007908Y010872D01*
X007901Y010909D01*
X007896Y010947D01*
X007895Y010985D01*
X007896Y010985D01*
X007897Y010947D01*
X007902Y010909D01*
X007909Y010873D01*
X007919Y010836D01*
X007931Y010801D01*
X007946Y010766D01*
X007947Y010767D01*
X007932Y010801D01*
X007919Y010836D01*
X007910Y010873D01*
X007903Y010910D01*
X007898Y010947D01*
X007897Y010985D01*
X007898Y010985D01*
X007899Y010947D01*
X007904Y010910D01*
X007911Y010873D01*
X007920Y010837D01*
X007933Y010801D01*
X007948Y010767D01*
X007949Y010767D01*
X007934Y010802D01*
X007921Y010837D01*
X007912Y010873D01*
X007905Y010910D01*
X007900Y010947D01*
X007899Y010985D01*
X007900Y010985D01*
X007901Y010947D01*
X007906Y010910D01*
X007913Y010873D01*
X007922Y010837D01*
X007935Y010802D01*
X007950Y010768D01*
X007951Y010768D01*
X007936Y010803D01*
X007923Y010838D01*
X007914Y010874D01*
X007907Y010910D01*
X007902Y010947D01*
X007901Y010985D01*
X007902Y010985D01*
X007903Y010947D01*
X007908Y010910D01*
X007915Y010874D01*
X007924Y010838D01*
X007937Y010803D01*
X007951Y010769D01*
X007952Y010769D01*
X007938Y010803D01*
X007925Y010838D01*
X007916Y010874D01*
X007909Y010911D01*
X007904Y010947D01*
X007903Y010985D01*
X007904Y010985D01*
X007905Y010947D01*
X007910Y010911D01*
X007917Y010874D01*
X007926Y010839D01*
X007938Y010804D01*
X007953Y010770D01*
X007954Y010770D01*
X007939Y010804D01*
X007927Y010839D01*
X007918Y010875D01*
X007911Y010911D01*
X007906Y010948D01*
X007905Y010985D01*
X007906Y010985D01*
X007907Y010948D01*
X007912Y010911D01*
X007918Y010875D01*
X007928Y010839D01*
X007940Y010804D01*
X007955Y010771D01*
X007956Y010771D01*
X007941Y010805D01*
X007929Y010839D01*
X007919Y010875D01*
X007913Y010911D01*
X007908Y010948D01*
X007907Y010985D01*
X008855Y010316D02*
X008844Y010332D01*
X008844Y010331D02*
X008889Y010364D01*
X008931Y010399D01*
X008970Y010438D01*
X009007Y010478D01*
X009040Y010522D01*
X009071Y010567D01*
X009098Y010615D01*
X009122Y010664D01*
X009143Y010715D01*
X009160Y010768D01*
X009173Y010821D01*
X009182Y010875D01*
X009188Y010930D01*
X009190Y010985D01*
X009208Y010985D01*
X009209Y010985D01*
X009207Y010928D01*
X009201Y010872D01*
X009191Y010817D01*
X009178Y010762D01*
X009160Y010709D01*
X009140Y010657D01*
X009115Y010606D01*
X009087Y010557D01*
X009056Y010511D01*
X009021Y010466D01*
X008984Y010424D01*
X008943Y010385D01*
X008900Y010349D01*
X008855Y010316D01*
X008854Y010316D01*
X008900Y010350D01*
X008943Y010386D01*
X008983Y010425D01*
X009020Y010467D01*
X009055Y010511D01*
X009086Y010558D01*
X009114Y010607D01*
X009139Y010657D01*
X009160Y010709D01*
X009177Y010763D01*
X009190Y010817D01*
X009200Y010873D01*
X009206Y010928D01*
X009208Y010985D01*
X009207Y010985D01*
X009205Y010928D01*
X009199Y010873D01*
X009189Y010817D01*
X009176Y010763D01*
X009159Y010710D01*
X009138Y010658D01*
X009113Y010607D01*
X009085Y010558D01*
X009054Y010512D01*
X009020Y010468D01*
X008982Y010426D01*
X008942Y010387D01*
X008899Y010350D01*
X008854Y010317D01*
X008853Y010318D01*
X008899Y010351D01*
X008941Y010387D01*
X008981Y010426D01*
X009019Y010468D01*
X009053Y010512D01*
X009084Y010559D01*
X009112Y010608D01*
X009137Y010658D01*
X009158Y010710D01*
X009175Y010763D01*
X009188Y010818D01*
X009198Y010873D01*
X009204Y010929D01*
X009206Y010985D01*
X009205Y010985D01*
X009203Y010929D01*
X009197Y010873D01*
X009187Y010818D01*
X009174Y010764D01*
X009157Y010710D01*
X009136Y010658D01*
X009111Y010608D01*
X009084Y010560D01*
X009052Y010513D01*
X009018Y010469D01*
X008981Y010427D01*
X008941Y010388D01*
X008898Y010352D01*
X008853Y010319D01*
X008852Y010320D01*
X008897Y010353D01*
X008940Y010389D01*
X008980Y010428D01*
X009017Y010469D01*
X009052Y010514D01*
X009083Y010560D01*
X009111Y010608D01*
X009135Y010659D01*
X009156Y010711D01*
X009173Y010764D01*
X009186Y010818D01*
X009196Y010873D01*
X009202Y010929D01*
X009204Y010985D01*
X009203Y010985D01*
X009201Y010929D01*
X009195Y010873D01*
X009186Y010818D01*
X009172Y010764D01*
X009155Y010711D01*
X009134Y010659D01*
X009110Y010609D01*
X009082Y010561D01*
X009051Y010514D01*
X009017Y010470D01*
X008979Y010429D01*
X008939Y010390D01*
X008897Y010354D01*
X008852Y010321D01*
X008851Y010321D01*
X008896Y010354D01*
X008939Y010390D01*
X008979Y010429D01*
X009016Y010471D01*
X009050Y010515D01*
X009081Y010561D01*
X009109Y010609D01*
X009133Y010660D01*
X009154Y010711D01*
X009171Y010764D01*
X009185Y010818D01*
X009194Y010873D01*
X009200Y010929D01*
X009202Y010985D01*
X009201Y010985D01*
X009199Y010929D01*
X009193Y010873D01*
X009184Y010819D01*
X009170Y010765D01*
X009153Y010712D01*
X009132Y010660D01*
X009108Y010610D01*
X009080Y010562D01*
X009049Y010515D01*
X009015Y010471D01*
X008978Y010430D01*
X008938Y010391D01*
X008895Y010355D01*
X008851Y010322D01*
X008850Y010323D01*
X008895Y010356D01*
X008937Y010392D01*
X008977Y010431D01*
X009014Y010472D01*
X009048Y010516D01*
X009079Y010562D01*
X009107Y010610D01*
X009131Y010660D01*
X009152Y010712D01*
X009169Y010765D01*
X009183Y010819D01*
X009192Y010874D01*
X009198Y010929D01*
X009200Y010985D01*
X009199Y010985D01*
X009197Y010929D01*
X009191Y010874D01*
X009182Y010819D01*
X009168Y010765D01*
X009151Y010712D01*
X009130Y010661D01*
X009106Y010611D01*
X009078Y010563D01*
X009047Y010517D01*
X009013Y010473D01*
X008976Y010431D01*
X008937Y010393D01*
X008894Y010357D01*
X008849Y010324D01*
X008849Y010325D01*
X008894Y010357D01*
X008936Y010393D01*
X008976Y010432D01*
X009013Y010473D01*
X009047Y010517D01*
X009078Y010563D01*
X009105Y010611D01*
X009129Y010661D01*
X009150Y010713D01*
X009167Y010765D01*
X009181Y010819D01*
X009190Y010874D01*
X009196Y010929D01*
X009198Y010985D01*
X009197Y010985D01*
X009195Y010929D01*
X009189Y010874D01*
X009180Y010819D01*
X009166Y010766D01*
X009149Y010713D01*
X009129Y010662D01*
X009104Y010612D01*
X009077Y010564D01*
X009046Y010518D01*
X009012Y010474D01*
X008975Y010433D01*
X008935Y010394D01*
X008893Y010358D01*
X008848Y010325D01*
X008848Y010326D01*
X008892Y010359D01*
X008935Y010395D01*
X008974Y010433D01*
X009011Y010475D01*
X009045Y010518D01*
X009076Y010564D01*
X009103Y010612D01*
X009128Y010662D01*
X009148Y010713D01*
X009165Y010766D01*
X009179Y010820D01*
X009188Y010874D01*
X009194Y010929D01*
X009196Y010985D01*
X009195Y010985D01*
X009193Y010929D01*
X009187Y010874D01*
X009178Y010820D01*
X009164Y010766D01*
X009147Y010714D01*
X009127Y010662D01*
X009103Y010613D01*
X009075Y010565D01*
X009044Y010519D01*
X009010Y010475D01*
X008974Y010434D01*
X008934Y010396D01*
X008892Y010360D01*
X008847Y010327D01*
X008847Y010328D01*
X008891Y010361D01*
X008933Y010396D01*
X008973Y010435D01*
X009010Y010476D01*
X009043Y010519D01*
X009074Y010565D01*
X009102Y010613D01*
X009126Y010663D01*
X009146Y010714D01*
X009163Y010767D01*
X009177Y010820D01*
X009186Y010874D01*
X009192Y010929D01*
X009194Y010985D01*
X009193Y010985D01*
X009191Y010929D01*
X009185Y010875D01*
X009176Y010820D01*
X009162Y010767D01*
X009145Y010714D01*
X009125Y010663D01*
X009101Y010614D01*
X009073Y010566D01*
X009043Y010520D01*
X009009Y010477D01*
X008972Y010435D01*
X008933Y010397D01*
X008890Y010361D01*
X008846Y010329D01*
X008845Y010330D01*
X008890Y010362D01*
X008932Y010398D01*
X008971Y010436D01*
X009008Y010477D01*
X009042Y010521D01*
X009072Y010566D01*
X009100Y010614D01*
X009124Y010664D01*
X009145Y010715D01*
X009161Y010767D01*
X009175Y010821D01*
X009184Y010875D01*
X009190Y010929D01*
X009192Y010985D01*
X009191Y010985D01*
X009189Y010930D01*
X009183Y010875D01*
X009174Y010821D01*
X009161Y010767D01*
X009144Y010715D01*
X009123Y010664D01*
X009099Y010615D01*
X009072Y010567D01*
X009041Y010521D01*
X009007Y010478D01*
X008971Y010437D01*
X008931Y010398D01*
X008889Y010363D01*
X008845Y010330D01*
X025590Y009485D02*
X025609Y009485D01*
X025608Y009484D02*
X025610Y009430D01*
X025616Y009375D01*
X025625Y009321D01*
X025638Y009268D01*
X025655Y009215D01*
X025676Y009164D01*
X025700Y009115D01*
X025727Y009067D01*
X025758Y009022D01*
X025792Y008978D01*
X025828Y008937D01*
X025867Y008899D01*
X025909Y008864D01*
X025954Y008831D01*
X025943Y008816D01*
X025898Y008849D01*
X025855Y008885D01*
X025814Y008924D01*
X025777Y008966D01*
X025742Y009011D01*
X025711Y009057D01*
X025683Y009106D01*
X025659Y009157D01*
X025638Y009209D01*
X025620Y009262D01*
X025607Y009317D01*
X025597Y009372D01*
X025591Y009428D01*
X025589Y009484D01*
X025590Y009484D01*
X025592Y009428D01*
X025598Y009372D01*
X025608Y009317D01*
X025621Y009263D01*
X025638Y009209D01*
X025659Y009157D01*
X025684Y009107D01*
X025712Y009058D01*
X025743Y009011D01*
X025778Y008967D01*
X025815Y008925D01*
X025855Y008886D01*
X025898Y008850D01*
X025944Y008816D01*
X025944Y008817D01*
X025899Y008850D01*
X025856Y008887D01*
X025816Y008926D01*
X025778Y008968D01*
X025744Y009012D01*
X025713Y009058D01*
X025685Y009107D01*
X025660Y009158D01*
X025639Y009210D01*
X025622Y009263D01*
X025609Y009317D01*
X025599Y009373D01*
X025593Y009428D01*
X025591Y009484D01*
X025592Y009484D01*
X025594Y009428D01*
X025600Y009373D01*
X025610Y009318D01*
X025623Y009263D01*
X025640Y009210D01*
X025661Y009158D01*
X025686Y009108D01*
X025714Y009059D01*
X025745Y009012D01*
X025779Y008968D01*
X025817Y008926D01*
X025857Y008887D01*
X025900Y008851D01*
X025945Y008818D01*
X025945Y008819D01*
X025900Y008852D01*
X025857Y008888D01*
X025817Y008927D01*
X025780Y008969D01*
X025746Y009013D01*
X025714Y009059D01*
X025687Y009108D01*
X025662Y009158D01*
X025641Y009210D01*
X025624Y009263D01*
X025611Y009318D01*
X025601Y009373D01*
X025595Y009429D01*
X025593Y009484D01*
X025594Y009484D01*
X025596Y009429D01*
X025602Y009373D01*
X025612Y009318D01*
X025625Y009264D01*
X025642Y009211D01*
X025663Y009159D01*
X025687Y009108D01*
X025715Y009060D01*
X025746Y009014D01*
X025781Y008969D01*
X025818Y008928D01*
X025858Y008889D01*
X025901Y008853D01*
X025946Y008820D01*
X025946Y008821D01*
X025901Y008854D01*
X025859Y008890D01*
X025819Y008928D01*
X025782Y008970D01*
X025747Y009014D01*
X025716Y009061D01*
X025688Y009109D01*
X025664Y009159D01*
X025643Y009211D01*
X025626Y009264D01*
X025612Y009318D01*
X025603Y009373D01*
X025597Y009429D01*
X025595Y009484D01*
X025596Y009484D01*
X025598Y009429D01*
X025604Y009373D01*
X025613Y009318D01*
X025627Y009264D01*
X025644Y009211D01*
X025665Y009160D01*
X025689Y009109D01*
X025717Y009061D01*
X025748Y009015D01*
X025782Y008971D01*
X025819Y008929D01*
X025859Y008890D01*
X025902Y008854D01*
X025947Y008821D01*
X025947Y008822D01*
X025903Y008855D01*
X025860Y008891D01*
X025820Y008930D01*
X025783Y008971D01*
X025749Y009015D01*
X025718Y009062D01*
X025690Y009110D01*
X025666Y009160D01*
X025645Y009212D01*
X025628Y009265D01*
X025614Y009319D01*
X025605Y009373D01*
X025599Y009429D01*
X025597Y009484D01*
X025598Y009484D01*
X025600Y009429D01*
X025606Y009374D01*
X025615Y009319D01*
X025629Y009265D01*
X025646Y009212D01*
X025667Y009160D01*
X025691Y009110D01*
X025719Y009062D01*
X025750Y009016D01*
X025784Y008972D01*
X025821Y008931D01*
X025861Y008892D01*
X025903Y008856D01*
X025948Y008823D01*
X025949Y008824D01*
X025904Y008857D01*
X025861Y008893D01*
X025822Y008931D01*
X025785Y008973D01*
X025751Y009017D01*
X025720Y009063D01*
X025692Y009111D01*
X025668Y009161D01*
X025647Y009212D01*
X025630Y009265D01*
X025616Y009319D01*
X025607Y009374D01*
X025601Y009429D01*
X025599Y009484D01*
X025600Y009484D01*
X025602Y009429D01*
X025608Y009374D01*
X025617Y009319D01*
X025631Y009265D01*
X025648Y009213D01*
X025669Y009161D01*
X025693Y009111D01*
X025720Y009063D01*
X025751Y009017D01*
X025785Y008973D01*
X025822Y008932D01*
X025862Y008893D01*
X025904Y008857D01*
X025949Y008825D01*
X025950Y008825D01*
X025905Y008858D01*
X025863Y008894D01*
X025823Y008933D01*
X025786Y008974D01*
X025752Y009018D01*
X025721Y009064D01*
X025694Y009112D01*
X025669Y009162D01*
X025649Y009213D01*
X025632Y009266D01*
X025618Y009319D01*
X025609Y009374D01*
X025603Y009429D01*
X025601Y009484D01*
X025602Y009484D01*
X025604Y009429D01*
X025610Y009374D01*
X025619Y009320D01*
X025633Y009266D01*
X025650Y009213D01*
X025670Y009162D01*
X025695Y009112D01*
X025722Y009064D01*
X025753Y009018D01*
X025787Y008975D01*
X025824Y008933D01*
X025863Y008895D01*
X025906Y008859D01*
X025950Y008826D01*
X025951Y008827D01*
X025906Y008860D01*
X025864Y008895D01*
X025825Y008934D01*
X025788Y008975D01*
X025754Y009019D01*
X025723Y009065D01*
X025695Y009113D01*
X025671Y009162D01*
X025651Y009214D01*
X025634Y009266D01*
X025620Y009320D01*
X025611Y009374D01*
X025605Y009429D01*
X025603Y009484D01*
X025604Y009484D01*
X025606Y009429D01*
X025612Y009374D01*
X025621Y009320D01*
X025635Y009266D01*
X025652Y009214D01*
X025672Y009163D01*
X025696Y009113D01*
X025724Y009065D01*
X025755Y009019D01*
X025788Y008976D01*
X025825Y008935D01*
X025865Y008896D01*
X025907Y008861D01*
X025951Y008828D01*
X025952Y008829D01*
X025908Y008861D01*
X025865Y008897D01*
X025826Y008935D01*
X025789Y008976D01*
X025755Y009020D01*
X025725Y009066D01*
X025697Y009114D01*
X025673Y009163D01*
X025653Y009214D01*
X025636Y009267D01*
X025622Y009320D01*
X025613Y009375D01*
X025607Y009429D01*
X025605Y009484D01*
X025606Y009484D01*
X025608Y009429D01*
X025614Y009375D01*
X025623Y009320D01*
X025637Y009267D01*
X025654Y009215D01*
X025674Y009164D01*
X025698Y009114D01*
X025726Y009066D01*
X025756Y009021D01*
X025790Y008977D01*
X025827Y008936D01*
X025866Y008898D01*
X025908Y008862D01*
X025953Y008830D01*
X025909Y008863D01*
X025867Y008898D01*
X025827Y008937D01*
X025791Y008978D01*
X025757Y009021D01*
X025726Y009067D01*
X025699Y009115D01*
X025675Y009164D01*
X025654Y009215D01*
X025638Y009267D01*
X025624Y009321D01*
X025615Y009375D01*
X025609Y009430D01*
X025607Y009484D01*
X026858Y009264D02*
X026841Y009272D01*
X026841Y009271D02*
X026856Y009305D01*
X026868Y009340D01*
X026878Y009375D01*
X026884Y009411D01*
X026889Y009448D01*
X026890Y009485D01*
X026908Y009485D01*
X026909Y009485D01*
X026908Y009446D01*
X026903Y009408D01*
X026896Y009371D01*
X026886Y009334D01*
X026874Y009298D01*
X026858Y009263D01*
X026857Y009264D01*
X026873Y009298D01*
X026885Y009334D01*
X026895Y009371D01*
X026902Y009409D01*
X026907Y009446D01*
X026908Y009485D01*
X026907Y009485D01*
X026906Y009447D01*
X026901Y009409D01*
X026894Y009371D01*
X026884Y009335D01*
X026872Y009299D01*
X026856Y009264D01*
X026871Y009299D01*
X026883Y009335D01*
X026893Y009372D01*
X026900Y009409D01*
X026905Y009447D01*
X026906Y009485D01*
X026905Y009485D01*
X026904Y009447D01*
X026899Y009409D01*
X026892Y009372D01*
X026882Y009335D01*
X026870Y009300D01*
X026855Y009265D01*
X026854Y009265D01*
X026869Y009300D01*
X026881Y009336D01*
X026891Y009372D01*
X026898Y009409D01*
X026903Y009447D01*
X026904Y009485D01*
X026903Y009485D01*
X026902Y009447D01*
X026897Y009409D01*
X026890Y009372D01*
X026880Y009336D01*
X026868Y009300D01*
X026853Y009266D01*
X026852Y009266D01*
X026867Y009301D01*
X026879Y009336D01*
X026889Y009373D01*
X026896Y009409D01*
X026901Y009447D01*
X026902Y009485D01*
X026901Y009485D01*
X026900Y009447D01*
X026895Y009410D01*
X026888Y009373D01*
X026879Y009336D01*
X026866Y009301D01*
X026851Y009267D01*
X026850Y009267D01*
X026865Y009301D01*
X026878Y009337D01*
X026887Y009373D01*
X026894Y009410D01*
X026899Y009447D01*
X026900Y009485D01*
X026899Y009485D01*
X026898Y009447D01*
X026893Y009410D01*
X026886Y009373D01*
X026877Y009337D01*
X026864Y009302D01*
X026849Y009267D01*
X026848Y009268D01*
X026863Y009302D01*
X026876Y009337D01*
X026885Y009373D01*
X026892Y009410D01*
X026897Y009447D01*
X026898Y009485D01*
X026897Y009485D01*
X026896Y009447D01*
X026891Y009410D01*
X026884Y009374D01*
X026875Y009338D01*
X026862Y009303D01*
X026847Y009268D01*
X026847Y009269D01*
X026861Y009303D01*
X026874Y009338D01*
X026883Y009374D01*
X026890Y009410D01*
X026895Y009447D01*
X026896Y009485D01*
X026895Y009485D01*
X026894Y009447D01*
X026889Y009411D01*
X026882Y009374D01*
X026873Y009338D01*
X026860Y009303D01*
X026846Y009269D01*
X026845Y009270D01*
X026860Y009304D01*
X026872Y009339D01*
X026881Y009374D01*
X026888Y009411D01*
X026893Y009447D01*
X026894Y009485D01*
X026893Y009485D01*
X026892Y009448D01*
X026887Y009411D01*
X026880Y009375D01*
X026871Y009339D01*
X026859Y009304D01*
X026844Y009270D01*
X026843Y009271D01*
X026858Y009304D01*
X026870Y009339D01*
X026880Y009375D01*
X026886Y009411D01*
X026891Y009448D01*
X026892Y009485D01*
X026891Y009485D01*
X026890Y009448D01*
X026885Y009411D01*
X026879Y009375D01*
X026869Y009339D01*
X026857Y009305D01*
X026842Y009271D01*
X025890Y009485D02*
X025909Y009485D01*
X025908Y009485D02*
X025909Y009448D01*
X025914Y009411D01*
X025920Y009375D01*
X025930Y009340D01*
X025942Y009305D01*
X025957Y009271D01*
X025940Y009264D01*
X025940Y009263D01*
X025924Y009298D01*
X025912Y009334D01*
X025902Y009371D01*
X025895Y009408D01*
X025890Y009446D01*
X025889Y009485D01*
X025890Y009485D01*
X025891Y009446D01*
X025896Y009409D01*
X025903Y009371D01*
X025913Y009334D01*
X025925Y009298D01*
X025941Y009264D01*
X025942Y009264D01*
X025926Y009299D01*
X025914Y009335D01*
X025904Y009371D01*
X025897Y009409D01*
X025892Y009447D01*
X025891Y009485D01*
X025892Y009485D01*
X025893Y009447D01*
X025898Y009409D01*
X025905Y009372D01*
X025915Y009335D01*
X025927Y009299D01*
X025942Y009264D01*
X025943Y009265D01*
X025928Y009300D01*
X025916Y009335D01*
X025906Y009372D01*
X025899Y009409D01*
X025894Y009447D01*
X025893Y009485D01*
X025894Y009485D01*
X025895Y009447D01*
X025900Y009409D01*
X025907Y009372D01*
X025917Y009336D01*
X025929Y009300D01*
X025944Y009265D01*
X025945Y009266D01*
X025930Y009300D01*
X025918Y009336D01*
X025908Y009372D01*
X025901Y009409D01*
X025896Y009447D01*
X025895Y009485D01*
X025896Y009485D01*
X025897Y009447D01*
X025902Y009409D01*
X025909Y009373D01*
X025919Y009336D01*
X025931Y009301D01*
X025946Y009266D01*
X025947Y009267D01*
X025932Y009301D01*
X025919Y009336D01*
X025910Y009373D01*
X025903Y009410D01*
X025898Y009447D01*
X025897Y009485D01*
X025898Y009485D01*
X025899Y009447D01*
X025904Y009410D01*
X025911Y009373D01*
X025920Y009337D01*
X025933Y009301D01*
X025948Y009267D01*
X025949Y009267D01*
X025934Y009302D01*
X025921Y009337D01*
X025912Y009373D01*
X025905Y009410D01*
X025900Y009447D01*
X025899Y009485D01*
X025900Y009485D01*
X025901Y009447D01*
X025906Y009410D01*
X025913Y009373D01*
X025922Y009337D01*
X025935Y009302D01*
X025950Y009268D01*
X025951Y009268D01*
X025936Y009303D01*
X025923Y009338D01*
X025914Y009374D01*
X025907Y009410D01*
X025902Y009447D01*
X025901Y009485D01*
X025902Y009485D01*
X025903Y009447D01*
X025908Y009410D01*
X025915Y009374D01*
X025924Y009338D01*
X025937Y009303D01*
X025951Y009269D01*
X025952Y009269D01*
X025938Y009303D01*
X025925Y009338D01*
X025916Y009374D01*
X025909Y009411D01*
X025904Y009447D01*
X025903Y009485D01*
X025904Y009485D01*
X025905Y009447D01*
X025910Y009411D01*
X025917Y009374D01*
X025926Y009339D01*
X025938Y009304D01*
X025953Y009270D01*
X025954Y009270D01*
X025939Y009304D01*
X025927Y009339D01*
X025918Y009375D01*
X025911Y009411D01*
X025906Y009448D01*
X025905Y009485D01*
X025906Y009485D01*
X025907Y009448D01*
X025912Y009411D01*
X025918Y009375D01*
X025928Y009339D01*
X025940Y009304D01*
X025955Y009271D01*
X025956Y009271D01*
X025941Y009305D01*
X025929Y009339D01*
X025919Y009375D01*
X025913Y009411D01*
X025908Y009448D01*
X025907Y009485D01*
X026855Y008816D02*
X026844Y008832D01*
X026844Y008831D02*
X026889Y008864D01*
X026931Y008899D01*
X026970Y008938D01*
X027007Y008978D01*
X027040Y009022D01*
X027071Y009067D01*
X027098Y009115D01*
X027122Y009164D01*
X027143Y009215D01*
X027160Y009268D01*
X027173Y009321D01*
X027182Y009375D01*
X027188Y009430D01*
X027190Y009485D01*
X027208Y009485D01*
X027209Y009485D01*
X027207Y009428D01*
X027201Y009372D01*
X027191Y009317D01*
X027178Y009262D01*
X027160Y009209D01*
X027140Y009157D01*
X027115Y009106D01*
X027087Y009057D01*
X027056Y009011D01*
X027021Y008966D01*
X026984Y008924D01*
X026943Y008885D01*
X026900Y008849D01*
X026855Y008816D01*
X026854Y008816D01*
X026900Y008850D01*
X026943Y008886D01*
X026983Y008925D01*
X027020Y008967D01*
X027055Y009011D01*
X027086Y009058D01*
X027114Y009107D01*
X027139Y009157D01*
X027160Y009209D01*
X027177Y009263D01*
X027190Y009317D01*
X027200Y009373D01*
X027206Y009428D01*
X027208Y009485D01*
X027207Y009485D01*
X027205Y009428D01*
X027199Y009373D01*
X027189Y009317D01*
X027176Y009263D01*
X027159Y009210D01*
X027138Y009158D01*
X027113Y009107D01*
X027085Y009058D01*
X027054Y009012D01*
X027020Y008968D01*
X026982Y008926D01*
X026942Y008887D01*
X026899Y008850D01*
X026854Y008817D01*
X026853Y008818D01*
X026899Y008851D01*
X026941Y008887D01*
X026981Y008926D01*
X027019Y008968D01*
X027053Y009012D01*
X027084Y009059D01*
X027112Y009108D01*
X027137Y009158D01*
X027158Y009210D01*
X027175Y009263D01*
X027188Y009318D01*
X027198Y009373D01*
X027204Y009429D01*
X027206Y009485D01*
X027205Y009485D01*
X027203Y009429D01*
X027197Y009373D01*
X027187Y009318D01*
X027174Y009264D01*
X027157Y009210D01*
X027136Y009158D01*
X027111Y009108D01*
X027084Y009060D01*
X027052Y009013D01*
X027018Y008969D01*
X026981Y008927D01*
X026941Y008888D01*
X026898Y008852D01*
X026853Y008819D01*
X026852Y008820D01*
X026897Y008853D01*
X026940Y008889D01*
X026980Y008928D01*
X027017Y008969D01*
X027052Y009014D01*
X027083Y009060D01*
X027111Y009108D01*
X027135Y009159D01*
X027156Y009211D01*
X027173Y009264D01*
X027186Y009318D01*
X027196Y009373D01*
X027202Y009429D01*
X027204Y009485D01*
X027203Y009485D01*
X027201Y009429D01*
X027195Y009373D01*
X027186Y009318D01*
X027172Y009264D01*
X027155Y009211D01*
X027134Y009159D01*
X027110Y009109D01*
X027082Y009061D01*
X027051Y009014D01*
X027017Y008970D01*
X026979Y008929D01*
X026939Y008890D01*
X026897Y008854D01*
X026852Y008821D01*
X026851Y008821D01*
X026896Y008854D01*
X026939Y008890D01*
X026979Y008929D01*
X027016Y008971D01*
X027050Y009015D01*
X027081Y009061D01*
X027109Y009109D01*
X027133Y009160D01*
X027154Y009211D01*
X027171Y009264D01*
X027185Y009318D01*
X027194Y009373D01*
X027200Y009429D01*
X027202Y009485D01*
X027201Y009485D01*
X027199Y009429D01*
X027193Y009373D01*
X027184Y009319D01*
X027170Y009265D01*
X027153Y009212D01*
X027132Y009160D01*
X027108Y009110D01*
X027080Y009062D01*
X027049Y009015D01*
X027015Y008971D01*
X026978Y008930D01*
X026938Y008891D01*
X026895Y008855D01*
X026851Y008822D01*
X026850Y008823D01*
X026895Y008856D01*
X026937Y008892D01*
X026977Y008931D01*
X027014Y008972D01*
X027048Y009016D01*
X027079Y009062D01*
X027107Y009110D01*
X027131Y009160D01*
X027152Y009212D01*
X027169Y009265D01*
X027183Y009319D01*
X027192Y009374D01*
X027198Y009429D01*
X027200Y009485D01*
X027199Y009485D01*
X027197Y009429D01*
X027191Y009374D01*
X027182Y009319D01*
X027168Y009265D01*
X027151Y009212D01*
X027130Y009161D01*
X027106Y009111D01*
X027078Y009063D01*
X027047Y009017D01*
X027013Y008973D01*
X026976Y008931D01*
X026937Y008893D01*
X026894Y008857D01*
X026849Y008824D01*
X026849Y008825D01*
X026894Y008857D01*
X026936Y008893D01*
X026976Y008932D01*
X027013Y008973D01*
X027047Y009017D01*
X027078Y009063D01*
X027105Y009111D01*
X027129Y009161D01*
X027150Y009213D01*
X027167Y009265D01*
X027181Y009319D01*
X027190Y009374D01*
X027196Y009429D01*
X027198Y009485D01*
X027197Y009485D01*
X027195Y009429D01*
X027189Y009374D01*
X027180Y009319D01*
X027166Y009266D01*
X027149Y009213D01*
X027129Y009162D01*
X027104Y009112D01*
X027077Y009064D01*
X027046Y009018D01*
X027012Y008974D01*
X026975Y008933D01*
X026935Y008894D01*
X026893Y008858D01*
X026848Y008825D01*
X026848Y008826D01*
X026892Y008859D01*
X026935Y008895D01*
X026974Y008933D01*
X027011Y008975D01*
X027045Y009018D01*
X027076Y009064D01*
X027103Y009112D01*
X027128Y009162D01*
X027148Y009213D01*
X027165Y009266D01*
X027179Y009320D01*
X027188Y009374D01*
X027194Y009429D01*
X027196Y009485D01*
X027195Y009485D01*
X027193Y009429D01*
X027187Y009374D01*
X027178Y009320D01*
X027164Y009266D01*
X027147Y009214D01*
X027127Y009162D01*
X027103Y009113D01*
X027075Y009065D01*
X027044Y009019D01*
X027010Y008975D01*
X026974Y008934D01*
X026934Y008896D01*
X026892Y008860D01*
X026847Y008827D01*
X026847Y008828D01*
X026891Y008861D01*
X026933Y008896D01*
X026973Y008935D01*
X027010Y008976D01*
X027043Y009019D01*
X027074Y009065D01*
X027102Y009113D01*
X027126Y009163D01*
X027146Y009214D01*
X027163Y009267D01*
X027177Y009320D01*
X027186Y009374D01*
X027192Y009429D01*
X027194Y009485D01*
X027193Y009485D01*
X027191Y009429D01*
X027185Y009375D01*
X027176Y009320D01*
X027162Y009267D01*
X027145Y009214D01*
X027125Y009163D01*
X027101Y009114D01*
X027073Y009066D01*
X027043Y009020D01*
X027009Y008977D01*
X026972Y008935D01*
X026933Y008897D01*
X026890Y008861D01*
X026846Y008829D01*
X026845Y008830D01*
X026890Y008862D01*
X026932Y008898D01*
X026971Y008936D01*
X027008Y008977D01*
X027042Y009021D01*
X027072Y009066D01*
X027100Y009114D01*
X027124Y009164D01*
X027145Y009215D01*
X027161Y009267D01*
X027175Y009321D01*
X027184Y009375D01*
X027190Y009429D01*
X027192Y009485D01*
X027191Y009485D01*
X027189Y009430D01*
X027183Y009375D01*
X027174Y009321D01*
X027161Y009267D01*
X027144Y009215D01*
X027123Y009164D01*
X027099Y009115D01*
X027072Y009067D01*
X027041Y009021D01*
X027007Y008978D01*
X026971Y008937D01*
X026931Y008898D01*
X026889Y008863D01*
X026845Y008830D01*
X027208Y012185D02*
X027189Y012185D01*
X027190Y012186D02*
X027188Y012240D01*
X027182Y012295D01*
X027173Y012349D01*
X027160Y012402D01*
X027143Y012455D01*
X027122Y012506D01*
X027098Y012555D01*
X027071Y012603D01*
X027040Y012648D01*
X027007Y012692D01*
X026970Y012733D01*
X026931Y012771D01*
X026889Y012806D01*
X026844Y012839D01*
X026855Y012854D01*
X026900Y012821D01*
X026943Y012785D01*
X026984Y012746D01*
X027021Y012704D01*
X027056Y012659D01*
X027087Y012613D01*
X027115Y012564D01*
X027139Y012513D01*
X027160Y012461D01*
X027178Y012408D01*
X027191Y012353D01*
X027201Y012298D01*
X027207Y012242D01*
X027209Y012186D01*
X027208Y012186D01*
X027206Y012242D01*
X027200Y012298D01*
X027190Y012353D01*
X027177Y012407D01*
X027160Y012461D01*
X027139Y012513D01*
X027114Y012563D01*
X027086Y012612D01*
X027055Y012659D01*
X027020Y012703D01*
X026983Y012745D01*
X026943Y012784D01*
X026900Y012820D01*
X026854Y012854D01*
X026854Y012853D01*
X026899Y012820D01*
X026942Y012783D01*
X026982Y012744D01*
X027020Y012702D01*
X027054Y012658D01*
X027085Y012612D01*
X027113Y012563D01*
X027138Y012512D01*
X027159Y012460D01*
X027176Y012407D01*
X027189Y012353D01*
X027199Y012297D01*
X027205Y012242D01*
X027207Y012186D01*
X027206Y012186D01*
X027204Y012242D01*
X027198Y012297D01*
X027188Y012352D01*
X027175Y012407D01*
X027158Y012460D01*
X027137Y012512D01*
X027112Y012562D01*
X027084Y012611D01*
X027053Y012658D01*
X027019Y012702D01*
X026981Y012744D01*
X026941Y012783D01*
X026899Y012819D01*
X026853Y012852D01*
X026853Y012851D01*
X026898Y012818D01*
X026941Y012782D01*
X026981Y012743D01*
X027018Y012701D01*
X027052Y012657D01*
X027084Y012611D01*
X027111Y012562D01*
X027136Y012512D01*
X027157Y012460D01*
X027174Y012407D01*
X027187Y012352D01*
X027197Y012297D01*
X027203Y012241D01*
X027205Y012186D01*
X027204Y012186D01*
X027202Y012241D01*
X027196Y012297D01*
X027186Y012352D01*
X027173Y012406D01*
X027156Y012459D01*
X027135Y012511D01*
X027111Y012562D01*
X027083Y012610D01*
X027052Y012656D01*
X027017Y012701D01*
X026980Y012742D01*
X026940Y012781D01*
X026897Y012817D01*
X026852Y012850D01*
X026852Y012849D01*
X026897Y012816D01*
X026939Y012780D01*
X026979Y012742D01*
X027016Y012700D01*
X027051Y012656D01*
X027082Y012609D01*
X027110Y012561D01*
X027134Y012511D01*
X027155Y012459D01*
X027172Y012406D01*
X027186Y012352D01*
X027195Y012297D01*
X027201Y012241D01*
X027203Y012186D01*
X027202Y012186D01*
X027200Y012241D01*
X027194Y012297D01*
X027185Y012352D01*
X027171Y012406D01*
X027154Y012459D01*
X027133Y012510D01*
X027109Y012561D01*
X027081Y012609D01*
X027050Y012655D01*
X027016Y012699D01*
X026979Y012741D01*
X026939Y012780D01*
X026896Y012816D01*
X026851Y012849D01*
X026851Y012848D01*
X026895Y012815D01*
X026938Y012779D01*
X026978Y012740D01*
X027015Y012699D01*
X027049Y012655D01*
X027080Y012608D01*
X027108Y012560D01*
X027132Y012510D01*
X027153Y012458D01*
X027170Y012405D01*
X027184Y012351D01*
X027193Y012297D01*
X027199Y012241D01*
X027201Y012186D01*
X027200Y012186D01*
X027198Y012241D01*
X027192Y012296D01*
X027183Y012351D01*
X027169Y012405D01*
X027152Y012458D01*
X027131Y012510D01*
X027107Y012560D01*
X027079Y012608D01*
X027048Y012654D01*
X027014Y012698D01*
X026977Y012739D01*
X026937Y012778D01*
X026895Y012814D01*
X026850Y012847D01*
X026849Y012846D01*
X026894Y012813D01*
X026937Y012777D01*
X026976Y012739D01*
X027013Y012697D01*
X027047Y012653D01*
X027078Y012607D01*
X027106Y012559D01*
X027130Y012509D01*
X027151Y012458D01*
X027168Y012405D01*
X027182Y012351D01*
X027191Y012296D01*
X027197Y012241D01*
X027199Y012186D01*
X027198Y012186D01*
X027196Y012241D01*
X027190Y012296D01*
X027181Y012351D01*
X027167Y012405D01*
X027150Y012457D01*
X027129Y012509D01*
X027105Y012559D01*
X027078Y012607D01*
X027047Y012653D01*
X027013Y012697D01*
X026976Y012738D01*
X026936Y012777D01*
X026894Y012813D01*
X026849Y012845D01*
X026848Y012845D01*
X026893Y012812D01*
X026935Y012776D01*
X026975Y012737D01*
X027012Y012696D01*
X027046Y012652D01*
X027077Y012606D01*
X027104Y012558D01*
X027129Y012508D01*
X027149Y012457D01*
X027166Y012404D01*
X027180Y012351D01*
X027189Y012296D01*
X027195Y012241D01*
X027197Y012186D01*
X027196Y012186D01*
X027194Y012241D01*
X027188Y012296D01*
X027179Y012350D01*
X027165Y012404D01*
X027148Y012457D01*
X027128Y012508D01*
X027103Y012558D01*
X027076Y012606D01*
X027045Y012652D01*
X027011Y012695D01*
X026974Y012737D01*
X026935Y012775D01*
X026892Y012811D01*
X026848Y012844D01*
X026847Y012843D01*
X026892Y012810D01*
X026934Y012774D01*
X026974Y012736D01*
X027010Y012695D01*
X027044Y012651D01*
X027075Y012605D01*
X027103Y012557D01*
X027127Y012508D01*
X027147Y012456D01*
X027164Y012404D01*
X027178Y012350D01*
X027187Y012296D01*
X027193Y012241D01*
X027195Y012186D01*
X027194Y012186D01*
X027192Y012241D01*
X027186Y012296D01*
X027177Y012350D01*
X027163Y012404D01*
X027146Y012456D01*
X027126Y012507D01*
X027102Y012557D01*
X027074Y012605D01*
X027043Y012651D01*
X027010Y012694D01*
X026973Y012735D01*
X026933Y012774D01*
X026891Y012809D01*
X026847Y012842D01*
X026846Y012841D01*
X026890Y012809D01*
X026933Y012773D01*
X026972Y012735D01*
X027009Y012693D01*
X027043Y012650D01*
X027073Y012604D01*
X027101Y012556D01*
X027125Y012507D01*
X027145Y012456D01*
X027162Y012403D01*
X027176Y012350D01*
X027185Y012295D01*
X027191Y012241D01*
X027193Y012186D01*
X027192Y012186D01*
X027190Y012241D01*
X027184Y012295D01*
X027175Y012350D01*
X027161Y012403D01*
X027145Y012455D01*
X027124Y012506D01*
X027100Y012556D01*
X027072Y012604D01*
X027042Y012649D01*
X027008Y012693D01*
X026971Y012734D01*
X026932Y012772D01*
X026890Y012808D01*
X026845Y012840D01*
X026889Y012807D01*
X026931Y012772D01*
X026971Y012733D01*
X027007Y012692D01*
X027041Y012649D01*
X027072Y012603D01*
X027099Y012555D01*
X027123Y012506D01*
X027144Y012455D01*
X027160Y012403D01*
X027174Y012349D01*
X027183Y012295D01*
X027189Y012240D01*
X027191Y012186D01*
X026908Y012185D02*
X026889Y012185D01*
X026890Y012185D02*
X026889Y012222D01*
X026884Y012259D01*
X026878Y012295D01*
X026868Y012330D01*
X026856Y012365D01*
X026841Y012399D01*
X026858Y012406D01*
X026858Y012407D01*
X026874Y012372D01*
X026886Y012336D01*
X026896Y012299D01*
X026903Y012262D01*
X026908Y012224D01*
X026909Y012185D01*
X026908Y012185D01*
X026907Y012224D01*
X026902Y012261D01*
X026895Y012299D01*
X026885Y012336D01*
X026873Y012372D01*
X026857Y012406D01*
X026856Y012406D01*
X026872Y012371D01*
X026884Y012335D01*
X026894Y012299D01*
X026901Y012261D01*
X026906Y012223D01*
X026907Y012185D01*
X026906Y012185D01*
X026905Y012223D01*
X026900Y012261D01*
X026893Y012298D01*
X026883Y012335D01*
X026871Y012371D01*
X026856Y012406D01*
X026855Y012405D01*
X026870Y012370D01*
X026882Y012335D01*
X026892Y012298D01*
X026899Y012261D01*
X026904Y012223D01*
X026905Y012185D01*
X026904Y012185D01*
X026903Y012223D01*
X026898Y012261D01*
X026891Y012298D01*
X026881Y012334D01*
X026869Y012370D01*
X026854Y012405D01*
X026853Y012404D01*
X026868Y012370D01*
X026880Y012334D01*
X026890Y012298D01*
X026897Y012261D01*
X026902Y012223D01*
X026903Y012185D01*
X026902Y012185D01*
X026901Y012223D01*
X026896Y012261D01*
X026889Y012297D01*
X026879Y012334D01*
X026867Y012369D01*
X026852Y012404D01*
X026851Y012403D01*
X026866Y012369D01*
X026879Y012334D01*
X026888Y012297D01*
X026895Y012260D01*
X026900Y012223D01*
X026901Y012185D01*
X026900Y012185D01*
X026899Y012223D01*
X026894Y012260D01*
X026887Y012297D01*
X026878Y012333D01*
X026865Y012369D01*
X026850Y012403D01*
X026849Y012403D01*
X026864Y012368D01*
X026877Y012333D01*
X026886Y012297D01*
X026893Y012260D01*
X026898Y012223D01*
X026899Y012185D01*
X026898Y012185D01*
X026897Y012223D01*
X026892Y012260D01*
X026885Y012297D01*
X026876Y012333D01*
X026863Y012368D01*
X026848Y012402D01*
X026847Y012402D01*
X026862Y012367D01*
X026875Y012332D01*
X026884Y012296D01*
X026891Y012260D01*
X026896Y012223D01*
X026897Y012185D01*
X026896Y012185D01*
X026895Y012223D01*
X026890Y012260D01*
X026883Y012296D01*
X026874Y012332D01*
X026861Y012367D01*
X026847Y012401D01*
X026846Y012401D01*
X026860Y012367D01*
X026873Y012332D01*
X026882Y012296D01*
X026889Y012259D01*
X026894Y012223D01*
X026895Y012185D01*
X026894Y012185D01*
X026893Y012223D01*
X026888Y012259D01*
X026881Y012296D01*
X026872Y012331D01*
X026860Y012366D01*
X026845Y012400D01*
X026844Y012400D01*
X026859Y012366D01*
X026871Y012331D01*
X026880Y012295D01*
X026887Y012259D01*
X026892Y012222D01*
X026893Y012185D01*
X026892Y012185D01*
X026891Y012222D01*
X026886Y012259D01*
X026880Y012295D01*
X026870Y012331D01*
X026858Y012366D01*
X026843Y012399D01*
X026842Y012399D01*
X026857Y012365D01*
X026869Y012331D01*
X026879Y012295D01*
X026885Y012259D01*
X026890Y012222D01*
X026891Y012185D01*
X025940Y012406D02*
X025957Y012398D01*
X025957Y012399D02*
X025942Y012365D01*
X025930Y012330D01*
X025920Y012295D01*
X025914Y012259D01*
X025909Y012222D01*
X025908Y012185D01*
X025890Y012185D01*
X025889Y012185D01*
X025890Y012224D01*
X025895Y012262D01*
X025902Y012299D01*
X025912Y012336D01*
X025924Y012372D01*
X025940Y012407D01*
X025941Y012406D01*
X025925Y012372D01*
X025913Y012336D01*
X025903Y012299D01*
X025896Y012261D01*
X025891Y012224D01*
X025890Y012185D01*
X025891Y012185D01*
X025892Y012223D01*
X025897Y012261D01*
X025904Y012299D01*
X025914Y012335D01*
X025926Y012371D01*
X025942Y012406D01*
X025927Y012371D01*
X025915Y012335D01*
X025905Y012298D01*
X025898Y012261D01*
X025893Y012223D01*
X025892Y012185D01*
X025893Y012185D01*
X025894Y012223D01*
X025899Y012261D01*
X025906Y012298D01*
X025916Y012335D01*
X025928Y012370D01*
X025943Y012405D01*
X025944Y012405D01*
X025929Y012370D01*
X025917Y012334D01*
X025907Y012298D01*
X025900Y012261D01*
X025895Y012223D01*
X025894Y012185D01*
X025895Y012185D01*
X025896Y012223D01*
X025901Y012261D01*
X025908Y012298D01*
X025918Y012334D01*
X025930Y012370D01*
X025945Y012404D01*
X025946Y012404D01*
X025931Y012369D01*
X025919Y012334D01*
X025909Y012297D01*
X025902Y012261D01*
X025897Y012223D01*
X025896Y012185D01*
X025897Y012185D01*
X025898Y012223D01*
X025903Y012260D01*
X025910Y012297D01*
X025919Y012334D01*
X025932Y012369D01*
X025947Y012403D01*
X025948Y012403D01*
X025933Y012369D01*
X025920Y012333D01*
X025911Y012297D01*
X025904Y012260D01*
X025899Y012223D01*
X025898Y012185D01*
X025899Y012185D01*
X025900Y012223D01*
X025905Y012260D01*
X025912Y012297D01*
X025921Y012333D01*
X025934Y012368D01*
X025949Y012403D01*
X025950Y012402D01*
X025935Y012368D01*
X025922Y012333D01*
X025913Y012297D01*
X025906Y012260D01*
X025901Y012223D01*
X025900Y012185D01*
X025901Y012185D01*
X025902Y012223D01*
X025907Y012260D01*
X025914Y012296D01*
X025923Y012332D01*
X025936Y012367D01*
X025951Y012402D01*
X025951Y012401D01*
X025937Y012367D01*
X025924Y012332D01*
X025915Y012296D01*
X025908Y012260D01*
X025903Y012223D01*
X025902Y012185D01*
X025903Y012185D01*
X025904Y012223D01*
X025909Y012259D01*
X025916Y012296D01*
X025925Y012332D01*
X025938Y012367D01*
X025952Y012401D01*
X025953Y012400D01*
X025938Y012366D01*
X025926Y012331D01*
X025917Y012296D01*
X025910Y012259D01*
X025905Y012223D01*
X025904Y012185D01*
X025905Y012185D01*
X025906Y012222D01*
X025911Y012259D01*
X025918Y012295D01*
X025927Y012331D01*
X025939Y012366D01*
X025954Y012400D01*
X025955Y012399D01*
X025940Y012366D01*
X025928Y012331D01*
X025918Y012295D01*
X025912Y012259D01*
X025907Y012222D01*
X025906Y012185D01*
X025907Y012185D01*
X025908Y012222D01*
X025913Y012259D01*
X025919Y012295D01*
X025929Y012331D01*
X025941Y012365D01*
X025956Y012399D01*
X025943Y012854D02*
X025954Y012838D01*
X025954Y012839D02*
X025909Y012806D01*
X025867Y012771D01*
X025828Y012732D01*
X025791Y012692D01*
X025758Y012648D01*
X025727Y012603D01*
X025700Y012555D01*
X025676Y012506D01*
X025655Y012455D01*
X025638Y012402D01*
X025625Y012349D01*
X025616Y012295D01*
X025610Y012240D01*
X025608Y012185D01*
X025590Y012185D01*
X025589Y012185D01*
X025591Y012242D01*
X025597Y012298D01*
X025607Y012353D01*
X025620Y012408D01*
X025638Y012461D01*
X025658Y012513D01*
X025683Y012564D01*
X025711Y012613D01*
X025742Y012659D01*
X025777Y012704D01*
X025814Y012746D01*
X025855Y012785D01*
X025898Y012821D01*
X025943Y012854D01*
X025944Y012854D01*
X025898Y012820D01*
X025855Y012784D01*
X025815Y012745D01*
X025778Y012703D01*
X025743Y012659D01*
X025712Y012612D01*
X025684Y012563D01*
X025659Y012513D01*
X025638Y012461D01*
X025621Y012407D01*
X025608Y012353D01*
X025598Y012297D01*
X025592Y012242D01*
X025590Y012185D01*
X025591Y012185D01*
X025593Y012242D01*
X025599Y012297D01*
X025609Y012353D01*
X025622Y012407D01*
X025639Y012460D01*
X025660Y012512D01*
X025685Y012563D01*
X025713Y012612D01*
X025744Y012658D01*
X025778Y012702D01*
X025816Y012744D01*
X025856Y012783D01*
X025899Y012820D01*
X025944Y012853D01*
X025945Y012852D01*
X025899Y012819D01*
X025857Y012783D01*
X025817Y012744D01*
X025779Y012702D01*
X025745Y012658D01*
X025714Y012611D01*
X025686Y012562D01*
X025661Y012512D01*
X025640Y012460D01*
X025623Y012407D01*
X025610Y012352D01*
X025600Y012297D01*
X025594Y012241D01*
X025592Y012185D01*
X025593Y012185D01*
X025595Y012241D01*
X025601Y012297D01*
X025611Y012352D01*
X025624Y012406D01*
X025641Y012460D01*
X025662Y012512D01*
X025687Y012562D01*
X025714Y012610D01*
X025746Y012657D01*
X025780Y012701D01*
X025817Y012743D01*
X025857Y012782D01*
X025900Y012818D01*
X025945Y012851D01*
X025946Y012850D01*
X025901Y012817D01*
X025858Y012781D01*
X025818Y012742D01*
X025781Y012701D01*
X025746Y012656D01*
X025715Y012610D01*
X025687Y012562D01*
X025663Y012511D01*
X025642Y012459D01*
X025625Y012406D01*
X025612Y012352D01*
X025602Y012297D01*
X025596Y012241D01*
X025594Y012185D01*
X025595Y012185D01*
X025597Y012241D01*
X025603Y012297D01*
X025612Y012352D01*
X025626Y012406D01*
X025643Y012459D01*
X025664Y012511D01*
X025688Y012561D01*
X025716Y012609D01*
X025747Y012656D01*
X025781Y012700D01*
X025819Y012741D01*
X025859Y012780D01*
X025901Y012816D01*
X025946Y012849D01*
X025947Y012849D01*
X025902Y012816D01*
X025859Y012780D01*
X025819Y012741D01*
X025782Y012699D01*
X025748Y012655D01*
X025717Y012609D01*
X025689Y012561D01*
X025665Y012510D01*
X025644Y012459D01*
X025627Y012406D01*
X025613Y012352D01*
X025604Y012297D01*
X025598Y012241D01*
X025596Y012185D01*
X025597Y012185D01*
X025599Y012241D01*
X025605Y012297D01*
X025614Y012351D01*
X025628Y012405D01*
X025645Y012458D01*
X025666Y012510D01*
X025690Y012560D01*
X025718Y012608D01*
X025749Y012655D01*
X025783Y012699D01*
X025820Y012740D01*
X025860Y012779D01*
X025903Y012815D01*
X025947Y012848D01*
X025948Y012847D01*
X025903Y012814D01*
X025861Y012778D01*
X025821Y012739D01*
X025784Y012698D01*
X025750Y012654D01*
X025719Y012608D01*
X025691Y012560D01*
X025667Y012510D01*
X025646Y012458D01*
X025629Y012405D01*
X025615Y012351D01*
X025606Y012296D01*
X025600Y012241D01*
X025598Y012185D01*
X025599Y012185D01*
X025601Y012241D01*
X025607Y012296D01*
X025616Y012351D01*
X025630Y012405D01*
X025647Y012458D01*
X025668Y012509D01*
X025692Y012559D01*
X025720Y012607D01*
X025751Y012653D01*
X025785Y012697D01*
X025822Y012739D01*
X025861Y012777D01*
X025904Y012813D01*
X025949Y012846D01*
X025949Y012845D01*
X025904Y012813D01*
X025862Y012777D01*
X025822Y012738D01*
X025785Y012697D01*
X025751Y012653D01*
X025720Y012607D01*
X025693Y012559D01*
X025669Y012509D01*
X025648Y012457D01*
X025631Y012405D01*
X025617Y012351D01*
X025608Y012296D01*
X025602Y012241D01*
X025600Y012185D01*
X025601Y012185D01*
X025603Y012241D01*
X025609Y012296D01*
X025618Y012351D01*
X025632Y012404D01*
X025649Y012457D01*
X025669Y012508D01*
X025694Y012558D01*
X025721Y012606D01*
X025752Y012652D01*
X025786Y012696D01*
X025823Y012737D01*
X025863Y012776D01*
X025905Y012812D01*
X025950Y012845D01*
X025950Y012844D01*
X025906Y012811D01*
X025863Y012775D01*
X025824Y012737D01*
X025787Y012695D01*
X025753Y012652D01*
X025722Y012606D01*
X025695Y012558D01*
X025670Y012508D01*
X025650Y012457D01*
X025633Y012404D01*
X025619Y012350D01*
X025610Y012296D01*
X025604Y012241D01*
X025602Y012185D01*
X025603Y012185D01*
X025605Y012241D01*
X025611Y012296D01*
X025620Y012350D01*
X025634Y012404D01*
X025651Y012456D01*
X025671Y012508D01*
X025695Y012557D01*
X025723Y012605D01*
X025754Y012651D01*
X025788Y012695D01*
X025824Y012736D01*
X025864Y012774D01*
X025906Y012810D01*
X025951Y012843D01*
X025951Y012842D01*
X025907Y012809D01*
X025865Y012774D01*
X025825Y012735D01*
X025788Y012694D01*
X025755Y012651D01*
X025724Y012605D01*
X025696Y012557D01*
X025672Y012507D01*
X025652Y012456D01*
X025635Y012403D01*
X025621Y012350D01*
X025612Y012296D01*
X025606Y012241D01*
X025604Y012185D01*
X025605Y012185D01*
X025607Y012241D01*
X025613Y012295D01*
X025622Y012350D01*
X025636Y012403D01*
X025653Y012456D01*
X025673Y012507D01*
X025697Y012556D01*
X025725Y012604D01*
X025755Y012650D01*
X025789Y012693D01*
X025826Y012735D01*
X025865Y012773D01*
X025908Y012809D01*
X025952Y012841D01*
X025953Y012840D01*
X025908Y012808D01*
X025866Y012772D01*
X025827Y012734D01*
X025790Y012693D01*
X025756Y012649D01*
X025726Y012604D01*
X025698Y012556D01*
X025674Y012506D01*
X025653Y012455D01*
X025637Y012403D01*
X025623Y012349D01*
X025614Y012295D01*
X025608Y012241D01*
X025606Y012185D01*
X025607Y012185D01*
X025609Y012240D01*
X025615Y012295D01*
X025624Y012349D01*
X025637Y012403D01*
X025654Y012455D01*
X025675Y012506D01*
X025699Y012555D01*
X025726Y012603D01*
X025757Y012649D01*
X025791Y012692D01*
X025827Y012733D01*
X025867Y012772D01*
X025909Y012807D01*
X025953Y012840D01*
D20*
X025899Y012185D02*
X025899Y009485D01*
X025599Y009485D02*
X025599Y012185D01*
X026899Y012185D02*
X026899Y009485D01*
X027199Y009485D02*
X027199Y012185D01*
X026399Y011235D02*
X026399Y011085D01*
X026399Y010585D02*
X026399Y010435D01*
X027070Y016105D02*
X027143Y016105D01*
X027107Y016105D02*
X027107Y016326D01*
X027143Y016326D02*
X027070Y016326D01*
X027217Y016289D02*
X027217Y016142D01*
X027254Y016105D01*
X027327Y016105D01*
X027364Y016142D01*
X027438Y016105D02*
X027585Y016105D01*
X027512Y016105D02*
X027512Y016326D01*
X027438Y016252D01*
X027364Y016289D02*
X027327Y016326D01*
X027254Y016326D01*
X027217Y016289D01*
X009199Y013685D02*
X009199Y010985D01*
X008899Y010985D02*
X008899Y013685D01*
X007899Y013685D02*
X007899Y010985D01*
X007599Y010985D02*
X007599Y013685D01*
X008399Y012735D02*
X008399Y012585D01*
X008399Y012085D02*
X008399Y011935D01*
D21*
X016043Y006335D02*
X017256Y006335D01*
X017649Y005824D02*
X017649Y004835D01*
X017256Y004335D02*
X016043Y004335D01*
X015649Y004847D02*
X015649Y005824D01*
X016149Y005335D02*
X016151Y005379D01*
X016157Y005423D01*
X016167Y005466D01*
X016180Y005508D01*
X016197Y005549D01*
X016218Y005588D01*
X016242Y005625D01*
X016269Y005660D01*
X016299Y005692D01*
X016332Y005722D01*
X016368Y005748D01*
X016405Y005772D01*
X016445Y005791D01*
X016486Y005808D01*
X016529Y005820D01*
X016572Y005829D01*
X016616Y005834D01*
X016660Y005835D01*
X016704Y005832D01*
X016748Y005825D01*
X016791Y005814D01*
X016833Y005800D01*
X016873Y005782D01*
X016912Y005760D01*
X016948Y005736D01*
X016982Y005708D01*
X017014Y005677D01*
X017043Y005643D01*
X017069Y005607D01*
X017091Y005569D01*
X017110Y005529D01*
X017125Y005487D01*
X017137Y005445D01*
X017145Y005401D01*
X017149Y005357D01*
X017149Y005313D01*
X017145Y005269D01*
X017137Y005225D01*
X017125Y005183D01*
X017110Y005141D01*
X017091Y005101D01*
X017069Y005063D01*
X017043Y005027D01*
X017014Y004993D01*
X016982Y004962D01*
X016948Y004934D01*
X016912Y004910D01*
X016873Y004888D01*
X016833Y004870D01*
X016791Y004856D01*
X016748Y004845D01*
X016704Y004838D01*
X016660Y004835D01*
X016616Y004836D01*
X016572Y004841D01*
X016529Y004850D01*
X016486Y004862D01*
X016445Y004879D01*
X016405Y004898D01*
X016368Y004922D01*
X016332Y004948D01*
X016299Y004978D01*
X016269Y005010D01*
X016242Y005045D01*
X016218Y005082D01*
X016197Y005121D01*
X016180Y005162D01*
X016167Y005204D01*
X016157Y005247D01*
X016151Y005291D01*
X016149Y005335D01*
X017793Y016085D02*
X019006Y016085D01*
X019399Y016597D02*
X019399Y017574D01*
X019006Y018085D02*
X017793Y018085D01*
X017399Y017585D02*
X017399Y016597D01*
X017899Y017085D02*
X017901Y017129D01*
X017907Y017173D01*
X017917Y017216D01*
X017930Y017258D01*
X017947Y017299D01*
X017968Y017338D01*
X017992Y017375D01*
X018019Y017410D01*
X018049Y017442D01*
X018082Y017472D01*
X018118Y017498D01*
X018155Y017522D01*
X018195Y017541D01*
X018236Y017558D01*
X018279Y017570D01*
X018322Y017579D01*
X018366Y017584D01*
X018410Y017585D01*
X018454Y017582D01*
X018498Y017575D01*
X018541Y017564D01*
X018583Y017550D01*
X018623Y017532D01*
X018662Y017510D01*
X018698Y017486D01*
X018732Y017458D01*
X018764Y017427D01*
X018793Y017393D01*
X018819Y017357D01*
X018841Y017319D01*
X018860Y017279D01*
X018875Y017237D01*
X018887Y017195D01*
X018895Y017151D01*
X018899Y017107D01*
X018899Y017063D01*
X018895Y017019D01*
X018887Y016975D01*
X018875Y016933D01*
X018860Y016891D01*
X018841Y016851D01*
X018819Y016813D01*
X018793Y016777D01*
X018764Y016743D01*
X018732Y016712D01*
X018698Y016684D01*
X018662Y016660D01*
X018623Y016638D01*
X018583Y016620D01*
X018541Y016606D01*
X018498Y016595D01*
X018454Y016588D01*
X018410Y016585D01*
X018366Y016586D01*
X018322Y016591D01*
X018279Y016600D01*
X018236Y016612D01*
X018195Y016629D01*
X018155Y016648D01*
X018118Y016672D01*
X018082Y016698D01*
X018049Y016728D01*
X018019Y016760D01*
X017992Y016795D01*
X017968Y016832D01*
X017947Y016871D01*
X017930Y016912D01*
X017917Y016954D01*
X017907Y016997D01*
X017901Y017041D01*
X017899Y017085D01*
X024834Y019245D02*
X025464Y019245D01*
X025464Y020426D02*
X024834Y020426D01*
D22*
X026954Y018833D02*
X026954Y017337D01*
X028844Y017337D02*
X028844Y018833D01*
X027628Y014341D02*
X027628Y013911D01*
X027485Y013911D02*
X027771Y013911D01*
X027485Y014198D02*
X027628Y014341D01*
X032185Y014106D02*
X032471Y014106D01*
X032400Y013891D02*
X032400Y014321D01*
X032185Y014106D01*
D23*
X027149Y017710D03*
D24*
X028149Y015235D02*
X028399Y015235D01*
X028399Y014985D01*
X028899Y014985D01*
X028899Y015235D01*
X029399Y015235D01*
X029399Y014985D01*
X029899Y014985D01*
X029899Y015235D01*
X030399Y015235D01*
X031899Y015235D01*
X031899Y014985D01*
X031399Y014985D01*
X031399Y015235D01*
X030899Y015235D01*
X030899Y014985D01*
X030399Y014985D01*
X030399Y015235D01*
X031199Y015235D02*
X028149Y015235D01*
X028149Y014085D01*
X028149Y012935D01*
X031149Y012935D01*
X031649Y012935D01*
X031649Y013335D01*
X031549Y013535D01*
X028749Y013535D01*
X028649Y013335D01*
X028649Y012935D01*
X028749Y012935D02*
X028749Y013335D01*
X028649Y013335D01*
X028749Y013335D02*
X031549Y013335D01*
X031549Y012935D01*
X031649Y012935D02*
X032149Y012935D01*
X032149Y014085D01*
X032149Y015235D01*
X032049Y015235D02*
X031899Y015235D01*
X031649Y013335D02*
X031549Y013335D01*
X031951Y023514D02*
X025848Y023514D01*
X025848Y024656D01*
X031951Y024656D01*
X031951Y023514D01*
X024451Y023514D02*
X024451Y024656D01*
X018348Y024656D01*
X018348Y023514D01*
X024451Y023514D01*
X010451Y022156D02*
X010451Y021014D01*
X006348Y021014D01*
X006348Y022156D01*
X010451Y022156D01*
D25*
X037624Y017935D03*
X037624Y010235D03*
D26*
X036574Y009155D03*
X036574Y019015D03*
D27*
X036749Y014085D03*
D28*
X038399Y014085D03*
D29*
X035174Y014085D03*
X035174Y013005D03*
X035174Y011925D03*
X035174Y015165D03*
X035174Y016245D03*
D30*
X035674Y015705D03*
X035674Y014625D03*
X035674Y013545D03*
X035674Y012465D03*
D31*
X030840Y012183D02*
X030838Y012183D01*
X030836Y012180D01*
X030834Y012180D02*
X030829Y012180D01*
X030829Y012179D02*
X030829Y012181D01*
X030830Y012183D01*
X030832Y012183D01*
X030834Y012181D01*
X030834Y012180D01*
X030832Y012177D02*
X030830Y012177D01*
X030829Y012179D01*
X030827Y012179D02*
X030827Y012183D01*
X030827Y012179D02*
X030825Y012177D01*
X030824Y012179D01*
X030823Y012177D01*
X030821Y012179D01*
X030821Y012183D01*
X030819Y012181D02*
X030818Y012183D01*
X030815Y012183D01*
X030814Y012181D01*
X030814Y012179D01*
X030815Y012177D01*
X030818Y012177D01*
X030819Y012179D01*
X030819Y012181D01*
X030812Y012181D02*
X030811Y012180D01*
X030807Y012180D01*
X030807Y012177D02*
X030807Y012185D01*
X030811Y012185D01*
X030812Y012184D01*
X030812Y012181D01*
X030798Y012183D02*
X030794Y012183D01*
X030792Y012181D01*
X030794Y012180D01*
X030796Y012180D01*
X030798Y012179D01*
X030796Y012177D01*
X030792Y012177D01*
X030790Y012177D02*
X030790Y012183D01*
X030785Y012183D02*
X030785Y012179D01*
X030786Y012177D01*
X030790Y012177D01*
X030783Y012179D02*
X030782Y012177D01*
X030778Y012177D01*
X030778Y012185D01*
X030782Y012185D01*
X030783Y012184D01*
X030783Y012183D01*
X030782Y012181D01*
X030778Y012181D01*
X030782Y012181D02*
X030783Y012180D01*
X030783Y012179D01*
X030836Y012177D02*
X030836Y012183D01*
X030706Y005587D02*
X030706Y005585D01*
X030706Y005583D02*
X030706Y005577D01*
X030707Y005577D02*
X030704Y005577D01*
X030702Y005577D02*
X030702Y005581D01*
X030701Y005583D01*
X030700Y005581D01*
X030700Y005577D01*
X030697Y005577D02*
X030697Y005583D01*
X030698Y005583D01*
X030700Y005581D01*
X030704Y005583D02*
X030706Y005583D01*
X030709Y005583D02*
X030713Y005583D01*
X030714Y005581D01*
X030714Y005577D01*
X030716Y005579D02*
X030718Y005580D01*
X030722Y005580D01*
X030722Y005581D02*
X030722Y005577D01*
X030718Y005577D01*
X030716Y005579D01*
X030718Y005583D02*
X030720Y005583D01*
X030722Y005581D01*
X030724Y005583D02*
X030726Y005583D01*
X030725Y005584D02*
X030725Y005579D01*
X030726Y005577D01*
X030728Y005579D02*
X030730Y005577D01*
X030732Y005577D01*
X030734Y005579D01*
X030734Y005581D01*
X030732Y005583D01*
X030730Y005583D01*
X030728Y005581D01*
X030728Y005579D01*
X030736Y005580D02*
X030738Y005583D01*
X030740Y005583D01*
X030736Y005583D02*
X030736Y005577D01*
X030709Y005577D02*
X030709Y005583D01*
X030695Y005583D02*
X030694Y005583D01*
X030691Y005580D01*
X030689Y005580D02*
X030684Y005580D01*
X030684Y005579D02*
X030684Y005581D01*
X030685Y005583D01*
X030688Y005583D01*
X030689Y005581D01*
X030689Y005580D01*
X030688Y005577D02*
X030685Y005577D01*
X030684Y005579D01*
X030679Y005577D02*
X030679Y005585D01*
X030677Y005585D02*
X030682Y005585D01*
X030691Y005583D02*
X030691Y005577D01*
X033149Y005426D02*
X033157Y005426D01*
X033157Y005422D01*
X033156Y005421D01*
X033153Y005421D01*
X033152Y005422D01*
X033152Y005426D01*
X033157Y005418D02*
X033157Y005416D01*
X033157Y005417D02*
X033149Y005417D01*
X033149Y005416D01*
X033153Y005414D02*
X033152Y005412D01*
X033152Y005410D01*
X033153Y005408D01*
X033156Y005408D01*
X033157Y005410D01*
X033157Y005412D01*
X033155Y005414D02*
X033155Y005408D01*
X033157Y005406D02*
X033157Y005404D01*
X033157Y005405D02*
X033152Y005405D01*
X033152Y005404D01*
X033153Y005402D02*
X033157Y005402D01*
X033153Y005402D02*
X033152Y005400D01*
X033152Y005398D01*
X033153Y005396D01*
X033155Y005394D02*
X033156Y005394D01*
X033157Y005393D01*
X033157Y005390D01*
X033156Y005389D01*
X033153Y005390D02*
X033153Y005393D01*
X033155Y005394D01*
X033157Y005396D02*
X033149Y005396D01*
X033151Y005394D02*
X033149Y005393D01*
X033149Y005390D01*
X033151Y005389D01*
X033152Y005389D01*
X033153Y005390D01*
X033152Y005380D02*
X033152Y005376D01*
X033153Y005375D01*
X033155Y005376D01*
X033155Y005379D01*
X033156Y005380D01*
X033157Y005379D01*
X033157Y005375D01*
X033157Y005373D02*
X033152Y005373D01*
X033157Y005373D02*
X033157Y005369D01*
X033156Y005367D01*
X033152Y005367D01*
X033152Y005365D02*
X033153Y005364D01*
X033153Y005360D01*
X033149Y005360D02*
X033149Y005364D01*
X033151Y005365D01*
X033152Y005365D01*
X033153Y005364D02*
X033155Y005365D01*
X033156Y005365D01*
X033157Y005364D01*
X033157Y005360D01*
X033149Y005360D01*
X033148Y005405D02*
X033149Y005405D01*
X033153Y005414D02*
X033155Y005414D01*
M02*
